<?xml version="1.0" encoding="utf-8"?>
<!-- Generator: Adobe Illustrator 18.1.1, SVG Export Plug-In . SVG Version: 6.00 Build 0)  -->
<svg version="1.1" id="Layer_1" xmlns="http://www.w3.org/2000/svg" xmlns:xlink="http://www.w3.org/1999/xlink" x="0px" y="0px"
	 viewBox="270 0 560 275" enable-background="new 270 0 560 275" xml:space="preserve">
<path fill="#EB3D00" d="M727.4,75.1c0.6,0,1.3,0,1.9-0.3c0.8-0.3,0.9-1.3,0.5-1.9s-1.7-0.5-2.3-0.5h-8.7c-0.3-0.1-0.3-0.3-0.3-0.6
	c0-2.9,0-5.8,0-8.7c0-0.6,0.3-0.6,0.8-0.6c1.3,0,23.4,0,33.1,0c2,0,3.7-1.5,3.7-3.5c0-16.1,0-32.1,0-48.2c0-0.4,0-0.6-0.1-1
	c-0.7-1.9-2-2.8-4-2.8c-6.8,0-23.8,0-40.8,0l0,0c-17,0-34,0-40.8,0c-2,0-3.3,0.9-4.1,2.7c-0.4,0.4-0.4,0.8-0.4,1
	c0,16.1,0,32.1,0,48.2c0,1.9,1.7,3.5,3.7,3.5c9.8,0,31.8,0,33.1,0c0.5,0,0.8,0.1,0.8,0.6c0,2.9,0,5.8,0,8.7c0,0.4-0.1,0.5-0.3,0.6
	h-8.7c-0.6,0-1.9-0.1-2.3,0.5c-0.4,0.6-0.3,1.7,0.5,1.9c0.6,0.3,1.3,0.3,1.9,0.3L727.4,75.1L727.4,75.1z"/>
<path fill="#CECECE" d="M654.4,25.8c2.4,0,4.1,1.5,4.1,4c0,13.3,0,40.5,0,41.1c1.3,0,6.7,0,8.1,0.1c0.5,0,1.3,0.1,1.5,0.6
	c0.4,0.8-0.5,1.2-1,1.5c-2.2,1.4-4.6,1.9-7.2,1.9c-11.4,0-56.9,0-68.2,0c-2.4,0-5-0.4-7.2-1.9c-0.5-0.4-1.4-0.8-1-1.5
	c0.3-0.6,1-0.6,1.5-0.6c1.4-0.1,6.9,0,8.1-0.1c0-0.5,0-27.8,0-41.1c0-2.4,1.7-4,4.1-4C606.7,25.8,644.8,25.8,654.4,25.8"/>
<path fill="#CECECE" d="M816.8,72.4c0,1.5-1.3,2.8-2.7,2.8h-7.9c-1.5,0-2.7-1.3-2.7-2.8v-20c0-1.5,1.3-2.8,2.7-2.8h7.9
	c1.5,0,2.7,1.3,2.7,2.8V72.4z"/>
<path fill="#CECECE" d="M797.5,71.8c0,1.9-1.3,3.3-3.3,3.3c-9.6,0-19.2,0-28.7,0c-1.8,0-3.2-1.4-3.2-3.3c0-12.7,0-25.3,0-37.9
	c0-1.9,1.5-3.2,3.5-3.2c9.3,0,18.7,0,28,0c0.4,0,0.8,0,1,0.1c1.8,0.5,2.6,1.5,2.6,3.3c0,6.3,0,12.4,0,18.7
	C797.5,52.8,797.5,65.4,797.5,71.8"/>
<path fill="#FFFFFF" d="M654.9,69.8c0.5,0,0.8,0,0.8-0.6c0-6.9,0-33.8,0-39.5c0-1,0-1-1-1c-19.3,0-38.5,0-57.8,0c-1.2,0-1.2,0-1.2,1
	c0,12.7,0,26.6,0,39.3c0,0.8,0.1,0.9,0.9,0.9C606.3,69.8,648.9,69.8,654.9,69.8"/>
<path fill="#FFFFFF" d="M751.8,10.4c0.8,0,1,0.1,1,1c0,15.7,0,31.3,0,47.1c0,0.8-0.3,1-1,1c-13.7,0-68.4,0-82.1,0c-0.8,0-1-0.3-1-1
	c0-15.7,0-31.3,0-47.1c0-0.9,0.3-1,1-1C683.5,10.4,738.3,10.4,751.8,10.4"/>
<path fill="#FFFFFF" d="M804.7,62.4L804.7,62.4c0,3.1,0,6,0,9.1c0,0.3,0.1,0.3,0.3,0.3c3.5,0,6.9,0,10.2,0c0.3,0,0.3-0.1,0.3-0.3
	c0-2.7,0-5.4,0-8.1c0-3.3,0-6.7,0-10.1c0-0.3,0-0.4-0.3-0.4c-3.5,0-6.8,0-10.2,0c-0.3,0-0.4,0.1-0.4,0.4
	C804.7,56.4,804.7,59.3,804.7,62.4"/>
<path fill="#FFFFFF" d="M795.3,36.1c0-0.6-0.1-0.8-0.8-0.8c-9.7,0-19.4,0-29.2,0c-0.6,0-0.8,0.3-0.8,0.9c0,8.2,0,34.4,0,34.4l0,0
	h30.6l0,0C795.3,70.5,795.3,44.3,795.3,36.1"/>
<path fill="#CECECE" d="M700.9,105.4H689v-8.8l11.9-1.7V105.4z M679.4,97.8v7.4h9.1v-8.7L679.4,97.8z M679.4,105.9v7.5l9.1,1.3V106
	L679.4,105.9L679.4,105.9z M689,105.9v8.8l11.9,1.7v-10.5H689z M722.3,99.3l-2.7,9.8c-0.1,0.5-0.3,0.9-0.3,1.3l0,0
	c0-0.4-0.1-0.8-0.3-1.2l-2.7-10H715l-2.8,9.8c-0.1,0.5-0.3,0.9-0.3,1.3l0,0c0-0.4-0.1-0.9-0.3-1.3l-2.7-9.8h-1.7L711,112h1.8
	l2.7-9.5c0.1-0.4,0.3-0.9,0.3-1.3l0,0c0,0.5,0.1,0.9,0.3,1.3l2.7,9.5h1.8l3.6-12.8C724.1,99.3,722.3,99.3,722.3,99.3z M726.9,99.9
	c0-0.3-0.1-0.5-0.3-0.6S726.3,99,726,99s-0.5,0.1-0.6,0.3s-0.3,0.4-0.3,0.6c0,0.3,0.1,0.5,0.3,0.6s0.4,0.3,0.6,0.3
	c0.3,0,0.5-0.1,0.6-0.3S726.9,100.2,726.9,99.9 M726.6,102.8h-1.5v9.2h1.5V102.8z M736.5,106.4c0-1.2-0.3-2.2-0.8-2.8
	c-0.5-0.6-1.3-1-2.3-1c-1.3,0-2.3,0.6-3.1,1.8l0,0v-1.5h-1.4v9.2h1.4v-5.2c0-0.9,0.3-1.5,0.8-2s1.2-0.8,1.8-0.8c1.4,0,2.2,1,2.2,2.9
	v5.2h1.4L736.5,106.4L736.5,106.4z M746.7,98.5h-1.5v5.6l0,0c-0.6-1-1.5-1.5-2.8-1.5s-2.3,0.5-3.1,1.4s-1.2,2.2-1.2,3.7
	c0,1.4,0.4,2.6,1,3.3c0.6,0.9,1.7,1.3,2.8,1.3c1.4,0,2.4-0.6,3.2-1.8l0,0v1.5h1.4V98.5H746.7z M745.2,108c0,0.9-0.3,1.7-0.8,2.3
	c-0.5,0.6-1.2,0.9-2,0.9s-1.5-0.3-2-0.9s-0.8-1.4-0.8-2.6s0.3-2,0.8-2.7s1.3-1,2-1s1.3,0.3,1.8,0.8s0.8,1.2,0.8,1.9v1.3
	 M757.6,107.4c0-1.5-0.4-2.7-1.2-3.5c-0.8-0.9-1.8-1.3-3.2-1.3s-2.6,0.4-3.5,1.3c-0.8,0.9-1.3,2-1.3,3.6c0,1.4,0.4,2.6,1.2,3.5
	s1.9,1.3,3.2,1.3c1.4,0,2.6-0.4,3.3-1.3C757.1,110,757.6,108.8,757.6,107.4 M756.1,107.4c0,1.2-0.3,2-0.8,2.7
	c-0.5,0.6-1.3,0.9-2.2,0.9s-1.7-0.3-2.2-0.9s-0.8-1.5-0.8-2.6c0-1.2,0.3-2,0.8-2.7c0.5-0.6,1.3-0.9,2.3-0.9c0.9,0,1.7,0.3,2.2,0.9
	C755.8,105.4,756.1,106.3,756.1,107.4 M769.5,102.8l-1.9,6.9c-0.1,0.3-0.1,0.5-0.1,0.8h-0.1c0-0.3,0-0.6-0.1-0.8l-1.9-6.9H764
	l-2,6.9c-0.1,0.4-0.1,0.6-0.1,0.9h-0.1c0-0.3-0.1-0.6-0.1-0.8l-1.9-6.9H758l2.8,9.2h1.4l2-6.7c0.1-0.4,0.1-0.6,0.1-0.8l0,0
	c0,0.4,0.1,0.6,0.1,0.9l1.9,6.5h1.5l2.7-9.2H769.5L769.5,102.8z M777.2,109.6c0-0.6-0.1-1.2-0.5-1.5c-0.4-0.4-1-0.8-1.8-1.2
	c-0.8-0.3-1.2-0.5-1.4-0.8c-0.3-0.3-0.4-0.5-0.4-0.9s0.1-0.6,0.4-0.9c0.3-0.3,0.6-0.4,1.2-0.4c0.8,0,1.5,0.3,2,0.6V103
	c-0.6-0.3-1.3-0.4-1.9-0.4c-0.9,0-1.7,0.3-2.3,0.8s-0.9,1.2-0.9,1.9c0,0.6,0.1,1.2,0.5,1.5c0.4,0.4,0.9,0.8,1.7,1.2
	c0.8,0.4,1.3,0.6,1.5,0.9c0.3,0.3,0.4,0.5,0.4,0.9c0,0.9-0.6,1.3-1.8,1.3c-0.9,0-1.7-0.3-2.4-0.9v1.5c0.6,0.4,1.4,0.5,2.3,0.5
	c1,0,1.8-0.3,2.4-0.8C776.9,111,777.2,110.4,777.2,109.6"/>
<path fill="#CECECE" d="M795.8,103L795.8,103v6c0,0.8-0.6,1.4-1.4,1.4s-1.4-0.6-1.4-1.4v-6c0-0.8,0.6-1.4,1.4-1.4
	S795.8,102.2,795.8,103z M812.6,103L812.6,103c0-0.8-0.6-1.4-1.4-1.4s-1.4,0.6-1.4,1.4v6c0,0.8,0.6,1.4,1.4,1.4s1.4-0.6,1.4-1.4l0,0
	V103z M809.1,101.8h-12.8v9.3l0,0c0,0.8,0.6,1.4,1.4,1.4h1.2v3.2c0,0.8,0.6,1.4,1.4,1.4s1.4-0.6,1.4-1.4l0,0v-3.2h1.9v3.2
	c0,0.8,0.6,1.4,1.4,1.4c0.8,0,1.4-0.6,1.4-1.4l0,0v-3.2h1.2c0.8,0,1.4-0.6,1.4-1.4L809.1,101.8L809.1,101.8z M809.3,101.3h-12.9
	c0.1-2.2,1.4-4.1,3.3-5.1l-1-1.8c0-0.1,0-0.3,0.1-0.3s0.3,0,0.3,0.1l1,1.9c0.9-0.4,1.8-0.6,2.8-0.6s1.9,0.3,2.8,0.6l1-1.9
	c0-0.1,0.1-0.1,0.3-0.1c0.1,0,0.1,0.1,0.1,0.3l-1,1.8C807.9,97.2,809.1,99.1,809.3,101.3 M800.4,98.5c0-0.3-0.3-0.5-0.5-0.5
	s-0.5,0.3-0.5,0.5c0,0.3,0.3,0.5,0.5,0.5S800.4,98.7,800.4,98.5 M806.3,98.5c0-0.3-0.3-0.5-0.5-0.5s-0.5,0.3-0.5,0.5
	c0,0.3,0.3,0.5,0.5,0.5S806.3,98.7,806.3,98.5"/>
<path fill="#CECECE" d="M590.3,100.9c0,0.3-0.1,0.5-0.4,0.8c-0.3,0.3-0.5,0.3-0.8,0.3s-0.6-0.1-0.8-0.3c-0.3-0.3-0.4-0.5-0.4-0.8
	s0.1-0.5,0.4-0.8c0.3-0.3,0.5-0.3,0.8-0.3c0.4,0,0.6,0.1,0.8,0.4C590.2,100.4,590.3,100.7,590.3,100.9 M588.1,103.9h1.8v8.2h-1.8
	V103.9z"/>
<path fill="#CECECE" d="M600,104.1c0,0.8-0.1,1.4-0.5,1.9c-0.4,0.6-0.9,1-1.5,1.4s-1.4,0.5-2.3,0.5h-1.4v4.1h-1.9v-11.5h3.6
	c1.3,0,2.3,0.3,3.1,0.9C599.8,102.1,600,103,600,104.1 M598.1,104.1c0-0.6-0.3-1.2-0.6-1.5c-0.4-0.4-1-0.5-1.8-0.5h-1.3v4.1h1.3
	c0.8,0,1.4-0.1,1.8-0.5C597.8,105.4,598.1,104.9,598.1,104.1"/>
<path fill="#CECECE" d="M605.1,112v-1.2l0,0c-0.5,0.9-1.4,1.3-2.4,1.3c-0.8,0-1.4-0.3-1.9-0.6c-0.5-0.4-0.6-1-0.6-1.8
	s0.3-1.4,0.6-1.9c0.5-0.5,1.2-0.8,2-0.9l2.4-0.4c0-1.2-0.5-1.7-1.5-1.7c-0.5,0-1,0.1-1.4,0.3c-0.5,0.1-0.9,0.4-1.3,0.6V104
	c0.3-0.1,0.8-0.4,1.3-0.5c0.6-0.1,1.2-0.3,1.5-0.3c1,0,1.8,0.3,2.4,0.8c0.5,0.5,0.8,1.4,0.8,2.4v5.2h-1.9L605.1,112L605.1,112z
	 M601.8,109.6c0,0.4,0.1,0.6,0.4,0.9c0.3,0.3,0.6,0.3,1,0.3c0.5,0,1-0.1,1.4-0.5s0.5-0.9,0.5-1.4v-0.8l-1.8,0.3
	c-0.5,0.1-0.9,0.3-1.2,0.4S601.8,109.2,601.8,109.6"/>
<path fill="#CECECE" d="M614.2,112v-1.3l0,0c-0.6,1-1.5,1.5-2.7,1.5c-1,0-1.9-0.4-2.4-1.2c-0.6-0.8-0.9-1.8-0.9-2.9
	c0-1.4,0.4-2.4,1-3.3c0.6-0.8,1.5-1.3,2.7-1.3c0.5,0,1,0.1,1.4,0.3c0.4,0.3,0.8,0.5,0.9,0.9l0,0v-5h1.8v12.2L614.2,112L614.2,112z
	 M614.2,107.3c0-0.6-0.3-1-0.6-1.5c-0.4-0.4-0.9-0.6-1.4-0.6c-0.6,0-1.3,0.3-1.7,0.8s-0.5,1.3-0.5,2.2c0,0.8,0.1,1.5,0.5,1.9
	c0.4,0.5,0.9,0.8,1.5,0.8s1.2-0.3,1.5-0.8c0.4-0.5,0.6-1.2,0.6-1.8L614.2,107.3L614.2,107.3z"/>
<polygon fill="#EB3D00" points="643.2,112 643.2,103 643.1,103 639.4,112 638.3,112 634.4,103 634.4,103 634.4,112 632.6,112 
	632.6,100.5 635.3,100.5 638.8,109.2 638.9,109.2 642.5,100.5 645,100.5 645,112 "/>
<path fill="#EB3D00" d="M651.6,112v-1.2l0,0c-0.5,0.9-1.4,1.3-2.4,1.3c-0.8,0-1.4-0.3-1.9-0.6c-0.5-0.4-0.6-1-0.6-1.8
	s0.3-1.4,0.6-1.9c0.5-0.5,1.2-0.8,2-0.9l2.4-0.4c0-1.2-0.5-1.7-1.5-1.7c-0.5,0-1,0.1-1.4,0.3c-0.5,0.1-0.9,0.4-1.3,0.6V104
	c0.3-0.1,0.8-0.4,1.3-0.5c0.6-0.1,1.2-0.3,1.5-0.3c1,0,1.8,0.3,2.4,0.8c0.5,0.5,0.8,1.4,0.8,2.4v5.2h-1.9L651.6,112L651.6,112z
	 M648.4,109.6c0,0.4,0.1,0.6,0.4,0.9c0.3,0.3,0.6,0.3,1,0.3c0.5,0,1-0.1,1.4-0.5s0.5-0.9,0.5-1.4v-0.8l-1.8,0.3
	c-0.5,0.1-0.9,0.3-1.2,0.4S648.4,109.2,648.4,109.6"/>
<path fill="#EB3D00" d="M661.3,111.7c-0.6,0.4-1.4,0.5-2.3,0.5c-0.8,0-1.5-0.1-2.2-0.5s-1.2-0.8-1.4-1.4c-0.4-0.6-0.5-1.3-0.5-2.2
	s0.1-1.7,0.5-2.4c0.4-0.6,0.9-1.3,1.5-1.5c0.6-0.4,1.4-0.5,2.3-0.5c0.4,0,0.8,0,1,0.1c0.4,0.1,0.6,0.1,0.9,0.3v1.8
	c-0.6-0.4-1.3-0.6-1.9-0.6c-0.8,0-1.4,0.3-1.9,0.8s-0.8,1.2-0.8,2s0.3,1.5,0.6,2c0.5,0.5,1,0.8,1.9,0.8c0.3,0,0.6,0,0.9-0.1
	c0.4-0.1,0.6-0.3,1-0.5v1.5C661,111.7,661.3,111.7,661.3,111.7z"/>
<g>
	<g enable-background="new    ">
		<path fill="#EB3D00" d="M314.4,163.3H313v-10.9c-0.1,0.1-0.3,0.3-0.5,0.4c-0.3,0.1-0.5,0.3-0.8,0.4c-0.3,0.1-0.5,0.3-0.9,0.4
			s-0.6,0.3-0.9,0.3v-1.4c0.3-0.1,0.6-0.3,1-0.4s0.6-0.3,1-0.5c0.4-0.1,0.6-0.4,1-0.6c0.3-0.3,0.5-0.4,0.8-0.6h0.5v13L314.4,163.3
			L314.4,163.3z"/>
		<path fill="#EB3D00" d="M323.7,158.9H319v-1.2h4.7V158.9z"/>
		<path fill="#EB3D00" d="M330.5,163.2c-0.4,0.1-0.8,0.3-1.3,0.3c-1.5,0-2.3-0.9-2.3-2.7v-5.2h-1.5v-1.3h1.5v-2.2l1.4-0.5v2.7h2.3
			v1.3h-2.3v5c0,0.6,0.1,1,0.3,1.3c0.1,0.3,0.5,0.4,1,0.4c0.4,0,0.6-0.1,0.9-0.3V163.2L330.5,163.2z"/>
		<path fill="#EB3D00" d="M333.2,152.1c-0.3,0-0.5-0.1-0.6-0.3c-0.1-0.1-0.3-0.4-0.3-0.6s0.1-0.5,0.3-0.6c0.1-0.1,0.4-0.3,0.6-0.3
			c0.3,0,0.5,0.1,0.6,0.3c0.1,0.1,0.3,0.4,0.3,0.6s-0.1,0.5-0.3,0.6C333.7,152,333.5,152.1,333.2,152.1z M333.8,163.3h-1.4v-9h1.4
			V163.3z"/>
		<path fill="#EB3D00" d="M349.4,163.3H348v-5.1c0-1-0.1-1.7-0.5-2.2s-0.8-0.6-1.5-0.6c-0.6,0-1.2,0.3-1.5,0.9
			c-0.4,0.6-0.6,1.3-0.6,2v5.1h-1.4V158c0-1.8-0.6-2.7-2-2.7c-0.6,0-1.2,0.3-1.5,0.8s-0.6,1.2-0.6,2v5.1H337v-9h1.4v1.4l0,0
			c0.6-1,1.5-1.7,2.8-1.7c0.6,0,1.2,0.1,1.7,0.5s0.8,0.8,0.9,1.3c0.6-1.3,1.7-1.8,2.9-1.8c1.9,0,2.9,1.3,2.9,3.7v5.7H349.4z"/>
		<path fill="#EB3D00" d="M359.4,159.2h-6.3c0,1,0.3,1.8,0.8,2.3s1.3,0.8,2.2,0.8c1,0,1.9-0.4,2.8-1v1.4c-0.8,0.5-1.8,0.9-3.1,0.9
			c-1.3,0-2.3-0.4-2.9-1.3c-0.8-0.8-1-1.9-1-3.5c0-1.4,0.4-2.6,1.2-3.5c0.8-0.9,1.8-1.3,2.9-1.3s2,0.4,2.7,1.2c0.6,0.8,1,1.8,1,3.2
			v0.8C359.7,159.2,359.4,159.2,359.4,159.2z M357.9,158c0-0.8-0.3-1.5-0.6-1.9c-0.4-0.4-0.9-0.6-1.7-0.6c-0.6,0-1.3,0.3-1.7,0.8
			c-0.4,0.5-0.8,1.2-0.9,1.9L357.9,158L357.9,158z"/>
	</g>
	<g enable-background="new    ">
		<path fill="#EB3D00" d="M301.3,183.5L301.3,183.5v5.4h-1.4v-13h1.4v1.5l0,0c0.8-1.2,1.8-1.8,3.1-1.8c1.2,0,2,0.4,2.7,1.2
			c0.6,0.8,1,1.9,1,3.2c0,1.5-0.4,2.7-1.2,3.6c-0.8,0.9-1.7,1.4-2.9,1.4C302.8,185.1,301.9,184.6,301.3,183.5z M301.2,180v1.3
			c0,0.8,0.3,1.4,0.8,1.9s1.2,0.8,1.8,0.8c0.9,0,1.5-0.4,2-1s0.8-1.5,0.8-2.8c0-1-0.3-1.8-0.6-2.3c-0.4-0.5-1-0.9-1.9-0.9
			s-1.5,0.3-2,0.9C301.5,178.3,301.2,179.1,301.2,180z"/>
		<path fill="#EB3D00" d="M317.6,184.8h-1.4v-1.4l0,0c-0.6,1-1.5,1.7-2.8,1.7c-2.2,0-3.2-1.3-3.2-3.8v-5.4h1.4v5.1
			c0,1.9,0.8,2.8,2.2,2.8c0.6,0,1.3-0.3,1.8-0.8s0.6-1.2,0.6-2v-5.1h1.4V184.8z"/>
		<path fill="#EB3D00" d="M325.1,177.3c-0.3-0.3-0.6-0.3-1-0.3c-0.6,0-1.2,0.3-1.5,0.9c-0.4,0.6-0.6,1.4-0.6,2.3v4.6h-1.4v-9h1.4
			v1.8l0,0c0.3-0.6,0.5-1.2,0.9-1.5c0.4-0.4,0.9-0.5,1.4-0.5c0.4,0,0.6,0,0.9,0.1L325.1,177.3L325.1,177.3z"/>
		<path fill="#EB3D00" d="M332.6,184.4c-0.6,0.4-1.5,0.6-2.4,0.6c-1.3,0-2.3-0.4-3.1-1.3c-0.8-0.8-1.2-1.9-1.2-3.2
			c0-1.5,0.4-2.7,1.3-3.6c0.9-0.9,1.9-1.3,3.3-1.3c0.8,0,1.5,0.1,2,0.4v1.4c-0.6-0.5-1.4-0.6-2.2-0.6c-0.9,0-1.7,0.4-2.3,1
			c-0.6,0.6-0.9,1.5-0.9,2.6c0,1,0.3,1.9,0.8,2.4s1.3,0.9,2.2,0.9c0.8,0,1.5-0.3,2.2-0.8v1.4h0.3V184.4z"/>
		<path fill="#EB3D00" d="M342.2,184.8h-1.4v-5.1c0-1.9-0.6-2.8-2-2.8c-0.6,0-1.3,0.3-1.8,0.8s-0.8,1.3-0.8,2v5.1h-1.4v-13.3h1.4
			v5.8l0,0c0.6-1.2,1.7-1.7,2.9-1.7c2,0,3.1,1.3,3.1,3.7L342.2,184.8L342.2,184.8z"/>
		<path fill="#EB3D00" d="M351.2,184.8h-1.4v-1.4l0,0c-0.6,1-1.5,1.7-2.8,1.7c-0.9,0-1.5-0.3-2-0.8s-0.8-1.2-0.8-1.9
			c0-1.7,1-2.7,2.9-2.9l2.7-0.4c0-1.5-0.6-2.3-1.8-2.3c-1,0-2,0.4-2.9,1.2v-1.4c0.9-0.5,1.9-0.9,3.1-0.9c2,0,3.2,1.2,3.2,3.3
			L351.2,184.8L351.2,184.8z M349.8,180.2l-2.2,0.3c-0.6,0.1-1.2,0.3-1.5,0.5c-0.4,0.3-0.5,0.6-0.5,1.3c0,0.4,0.1,0.8,0.5,1
			c0.3,0.3,0.8,0.4,1.3,0.4c0.8,0,1.3-0.3,1.8-0.8s0.6-1.2,0.6-1.9L349.8,180.2L349.8,180.2z"/>
		<path fill="#EB3D00" d="M353.4,184.4v-1.5c0.8,0.6,1.7,0.9,2.6,0.9c1.3,0,1.9-0.4,1.9-1.3c0-0.3,0-0.4-0.1-0.6
			c-0.1-0.1-0.3-0.3-0.4-0.4s-0.4-0.3-0.6-0.4s-0.5-0.3-0.8-0.4c-0.4-0.1-0.8-0.3-1-0.5c-0.3-0.1-0.5-0.4-0.8-0.5
			c-0.3-0.3-0.4-0.4-0.5-0.6c-0.1-0.3-0.1-0.5-0.1-0.9s0.1-0.8,0.3-1.2c0.3-0.4,0.5-0.6,0.8-0.8c0.4-0.3,0.6-0.4,1.2-0.5
			s0.9-0.1,1.3-0.1c0.8,0,1.4,0.1,2,0.4v1.4c-0.6-0.4-1.4-0.6-2.3-0.6c-0.3,0-0.5,0-0.8,0.1c-0.3,0-0.4,0.1-0.5,0.3
			c-0.1,0.1-0.3,0.3-0.4,0.4s-0.1,0.4-0.1,0.5c0,0.3,0,0.4,0.1,0.6s0.3,0.3,0.4,0.4c0.1,0.1,0.4,0.3,0.6,0.4
			c0.3,0.1,0.5,0.3,0.8,0.4c0.4,0.1,0.8,0.3,1,0.5c0.3,0.1,0.6,0.4,0.8,0.5c0.3,0.3,0.4,0.4,0.5,0.6s0.1,0.5,0.1,0.9
			s-0.1,0.8-0.3,1.2c-0.1,0.4-0.5,0.6-0.8,0.8c-0.3,0.1-0.6,0.4-1.2,0.5c-0.5,0.1-0.9,0.1-1.3,0.1
			C354.9,185.1,354.2,184.8,353.4,184.4z"/>
		<path fill="#EB3D00" d="M368.8,180.7h-6.3c0,1,0.3,1.8,0.8,2.3s1.3,0.8,2.2,0.8c1,0,1.9-0.4,2.8-1v1.4c-0.8,0.5-1.8,0.9-3.1,0.9
			c-1.3,0-2.3-0.4-2.9-1.3c-0.8-0.8-1-1.9-1-3.5c0-1.4,0.4-2.6,1.2-3.5c0.8-0.9,1.8-1.3,2.9-1.3c1.2,0,2,0.4,2.7,1.2
			c0.6,0.8,1,1.8,1,3.2v0.8C369,180.7,368.8,180.7,368.8,180.7z M367.3,179.5c0-0.8-0.3-1.5-0.6-1.9c-0.4-0.4-0.9-0.6-1.7-0.6
			c-0.6,0-1.3,0.3-1.7,0.8c-0.4,0.5-0.8,1.2-0.9,1.9L367.3,179.5L367.3,179.5z"/>
	</g>
</g>
<g>
	<path fill="#CECECE" d="M313.9,224.2h-1.4v-10.9c-0.1,0.1-0.3,0.3-0.5,0.4c-0.3,0.1-0.5,0.3-0.8,0.4c-0.3,0.1-0.5,0.3-0.9,0.4
		c-0.3,0.1-0.6,0.3-0.9,0.3v-1.4c0.3-0.1,0.6-0.3,1-0.4s0.6-0.3,1-0.5c0.4-0.1,0.6-0.4,1-0.6c0.3-0.3,0.5-0.4,0.8-0.6h0.5v13
		L313.9,224.2L313.9,224.2z"/>
	<path fill="#CECECE" d="M323.2,219.9h-4.7v-1.2h4.7V219.9z"/>
	<path fill="#CECECE" d="M332.9,215.3l-4.1,10.4c-0.8,1.8-1.8,2.8-3.1,2.8c-0.4,0-0.6,0-0.9-0.1V227c0.3,0.1,0.6,0.1,0.9,0.1
		c0.8,0,1.3-0.4,1.7-1.3l0.8-1.7l-3.5-9h1.5l2.4,6.9c0,0.1,0.1,0.3,0.1,0.6l0,0c0-0.1,0.1-0.4,0.1-0.6l2.6-6.9
		C331.5,215.3,332.9,215.3,332.9,215.3z"/>
	<path fill="#CECECE" d="M341.6,220.1h-6.3c0,1,0.3,1.8,0.8,2.3s1.3,0.8,2.2,0.8c1,0,1.9-0.4,2.8-1v1.4c-0.8,0.5-1.8,0.9-3.1,0.9
		c-1.3,0-2.3-0.4-2.9-1.3c-0.8-0.8-1-1.9-1-3.5c0-1.4,0.4-2.6,1.2-3.5s1.8-1.3,2.9-1.3s2,0.4,2.7,1.2c0.6,0.8,1,1.8,1,3.2v0.8
		C341.9,220.1,341.6,220.1,341.6,220.1z M340.1,219c0-0.8-0.3-1.5-0.6-1.9c-0.4-0.5-0.9-0.6-1.7-0.6c-0.6,0-1.3,0.3-1.7,0.8
		c-0.5,0.5-0.8,1.2-0.9,1.9L340.1,219L340.1,219z"/>
	<path fill="#CECECE" d="M350.2,224.2h-1.4v-1.4l0,0c-0.6,1-1.5,1.7-2.8,1.7c-0.9,0-1.5-0.3-2-0.8s-0.8-1.2-0.8-1.9
		c0-1.7,1-2.7,2.9-2.9l2.7-0.4c0-1.5-0.6-2.3-1.8-2.3c-1,0-2,0.4-2.9,1.2V216c0.9-0.5,1.9-0.9,3.1-0.9c2,0,3.2,1.2,3.2,3.3
		L350.2,224.2L350.2,224.2z M348.8,219.7l-2.2,0.3c-0.6,0.1-1.2,0.3-1.5,0.5c-0.4,0.3-0.5,0.6-0.5,1.3c0,0.4,0.1,0.8,0.5,1
		c0.3,0.3,0.8,0.4,1.3,0.4c0.8,0,1.3-0.3,1.8-0.8s0.6-1.2,0.6-1.9L348.8,219.7L348.8,219.7z"/>
	<path fill="#CECECE" d="M357.6,216.8c-0.3-0.3-0.6-0.3-1-0.3c-0.6,0-1.2,0.3-1.5,0.9c-0.4,0.6-0.6,1.4-0.6,2.3v4.6H353v-9h1.4v1.8
		l0,0c0.3-0.6,0.5-1.2,0.9-1.5s0.9-0.5,1.4-0.5c0.4,0,0.6,0,0.9,0.1L357.6,216.8L357.6,216.8z"/>
	<path fill="#CECECE" d="M285.4,245.5V244c0.8,0.6,1.7,0.9,2.6,0.9c1.3,0,1.9-0.4,1.9-1.3c0-0.3,0-0.4-0.1-0.6
		c-0.1-0.1-0.3-0.3-0.4-0.4s-0.4-0.3-0.6-0.4c-0.3-0.1-0.5-0.3-0.8-0.4c-0.4-0.1-0.8-0.3-1-0.5c-0.3-0.1-0.5-0.4-0.8-0.5
		c-0.3-0.3-0.4-0.4-0.5-0.6c-0.1-0.3-0.1-0.5-0.1-0.9s0.1-0.8,0.3-1.2c0.3-0.4,0.5-0.6,0.8-0.8c0.4-0.3,0.6-0.4,1.2-0.5
		c0.5-0.1,0.9-0.1,1.3-0.1c0.8,0,1.4,0.1,2,0.4v1.4c-0.6-0.4-1.4-0.6-2.3-0.6c-0.3,0-0.5,0-0.8,0.1c-0.3,0-0.4,0.1-0.5,0.3
		c-0.1,0.1-0.3,0.3-0.4,0.4c-0.1,0.1-0.1,0.4-0.1,0.5c0,0.3,0,0.4,0.1,0.6c0.1,0.1,0.3,0.3,0.4,0.4c0.1,0.1,0.4,0.3,0.6,0.4
		c0.3,0.1,0.5,0.3,0.8,0.4c0.4,0.1,0.8,0.3,1,0.5c0.3,0.1,0.6,0.4,0.8,0.5c0.3,0.3,0.4,0.4,0.5,0.6c0.1,0.3,0.1,0.5,0.1,0.9
		s-0.1,0.8-0.3,1.2c-0.3,0.4-0.5,0.6-0.8,0.8c-0.3,0.1-0.6,0.4-1.2,0.5c-0.5,0.1-0.9,0.1-1.3,0.1C286.9,246,286.1,245.8,285.4,245.5
		z"/>
	<path fill="#CECECE" d="M300.8,245.7h-1.4v-1.4l0,0c-0.6,1-1.5,1.7-2.8,1.7c-2.2,0-3.2-1.3-3.2-3.8v-5.4h1.4v5.1
		c0,1.9,0.8,2.8,2.2,2.8c0.6,0,1.3-0.3,1.7-0.8c0.5-0.5,0.6-1.2,0.6-2v-5.1h1.4v9C300.7,245.7,300.8,245.7,300.8,245.7z"/>
	<path fill="#CECECE" d="M305.2,244.4L305.2,244.4v1.3h-1.4v-13.2h1.4v5.9l0,0c0.8-1.2,1.8-1.8,3.1-1.8c1.2,0,2,0.4,2.7,1.2
		c0.6,0.8,1,1.9,1,3.2c0,1.5-0.4,2.7-1.2,3.6c-0.8,0.9-1.7,1.4-2.9,1.4C306.7,246,305.8,245.5,305.2,244.4z M305.1,240.8v1.3
		c0,0.8,0.3,1.4,0.8,1.9s1.2,0.8,1.8,0.8c0.9,0,1.5-0.4,2-1s0.8-1.5,0.8-2.8c0-1-0.3-1.8-0.6-2.3c-0.4-0.5-1-0.9-1.9-0.9
		s-1.5,0.3-2,0.9C305.3,239.3,305.1,240,305.1,240.8z"/>
	<path fill="#CECECE" d="M313.6,245.5V244c0.8,0.6,1.7,0.9,2.6,0.9c1.3,0,1.9-0.4,1.9-1.3c0-0.3,0-0.4-0.1-0.6
		c-0.1-0.1-0.3-0.3-0.4-0.4c-0.1-0.1-0.4-0.3-0.6-0.4c-0.3-0.1-0.5-0.3-0.8-0.4c-0.4-0.1-0.8-0.3-1-0.5c-0.3-0.1-0.5-0.4-0.8-0.5
		c-0.3-0.3-0.4-0.4-0.5-0.6s-0.1-0.5-0.1-0.9s0.1-0.8,0.3-1.2c0.3-0.4,0.5-0.6,0.8-0.8c0.4-0.3,0.6-0.4,1.2-0.5
		c0.5-0.1,0.9-0.1,1.3-0.1c0.8,0,1.4,0.1,2,0.4v1.4c-0.6-0.4-1.4-0.6-2.3-0.6c-0.3,0-0.5,0-0.8,0.1c-0.3,0-0.4,0.1-0.5,0.3
		c-0.1,0.1-0.3,0.3-0.4,0.4s-0.1,0.4-0.1,0.5c0,0.3,0,0.4,0.1,0.6c0.1,0.1,0.3,0.3,0.4,0.4c0.1,0.1,0.4,0.3,0.6,0.4s0.5,0.3,0.8,0.4
		c0.4,0.1,0.8,0.3,1,0.5c0.3,0.1,0.6,0.4,0.8,0.5c0.3,0.3,0.4,0.4,0.5,0.6c0.1,0.3,0.1,0.5,0.1,0.9s-0.1,0.8-0.3,1.2
		c-0.3,0.4-0.5,0.6-0.8,0.8c-0.3,0.1-0.6,0.4-1.2,0.5c-0.5,0.1-0.9,0.1-1.3,0.1C315.2,246,314.4,245.8,313.6,245.5z"/>
	<path fill="#CECECE" d="M328,245.3c-0.6,0.4-1.5,0.6-2.4,0.6c-1.3,0-2.3-0.4-3.1-1.3c-0.8-0.8-1.2-1.9-1.2-3.2
		c0-1.5,0.4-2.7,1.3-3.6c0.9-0.9,1.9-1.3,3.3-1.3c0.8,0,1.5,0.1,2,0.4v1.4c-0.6-0.5-1.4-0.6-2.2-0.6c-0.9,0-1.7,0.4-2.3,1
		c-0.6,0.6-0.9,1.5-0.9,2.6c0,1,0.3,1.9,0.8,2.4s1.3,0.9,2.2,0.9c0.8,0,1.5-0.3,2.2-0.8v1.4h0.3V245.3z"/>
	<path fill="#CECECE" d="M334.7,238.3c-0.3-0.3-0.6-0.3-1-0.3c-0.6,0-1.2,0.3-1.5,0.9c-0.4,0.6-0.6,1.4-0.6,2.3v4.6h-1.4v-9h1.4v1.8
		l0,0c0.3-0.6,0.5-1.2,0.9-1.5c0.4-0.4,0.9-0.5,1.4-0.5c0.4,0,0.6,0,0.9,0.1L334.7,238.3L334.7,238.3z"/>
	<path fill="#CECECE" d="M337,234.6c-0.3,0-0.5-0.1-0.6-0.3s-0.3-0.4-0.3-0.6c0-0.3,0.1-0.5,0.3-0.6s0.4-0.3,0.6-0.3
		c0.3,0,0.5,0.1,0.6,0.3c0.1,0.1,0.3,0.4,0.3,0.6c0,0.3-0.1,0.5-0.3,0.6C337.5,234.5,337.3,234.6,337,234.6z M337.8,245.7h-1.4v-9
		h1.4V245.7z"/>
	<path fill="#CECECE" d="M342.2,244.4L342.2,244.4v5.4h-1.4v-13h1.4v1.7l0,0c0.8-1.2,1.8-1.8,3.1-1.8c1.2,0,2,0.4,2.7,1.2
		c0.6,0.8,1,1.9,1,3.2c0,1.5-0.4,2.7-1.2,3.6c-0.8,0.9-1.7,1.4-2.9,1.4C343.7,246,342.8,245.5,342.2,244.4z M342,240.8v1.3
		c0,0.8,0.3,1.4,0.8,1.9s1.2,0.8,1.8,0.8c0.9,0,1.5-0.4,2-1s0.8-1.5,0.8-2.8c0-1-0.3-1.8-0.6-2.3c-0.4-0.5-1-0.9-1.9-0.9
		s-1.5,0.3-2,0.9C342.3,239.3,342,240,342,240.8z"/>
	<path fill="#CECECE" d="M355.3,245.7c-0.4,0.1-0.8,0.3-1.3,0.3c-1.5,0-2.3-0.9-2.3-2.7V238h-1.5v-1.3h1.5v-2.2l1.4-0.5v2.7h2.3v1.3
		h-2.3v5c0,0.6,0.1,1,0.3,1.3c0.1,0.3,0.5,0.4,1,0.4c0.4,0,0.6-0.1,0.9-0.3V245.7L355.3,245.7z"/>
	<path fill="#CECECE" d="M358,234.6c-0.3,0-0.5-0.1-0.6-0.3s-0.3-0.4-0.3-0.6c0-0.3,0.1-0.5,0.3-0.6s0.4-0.3,0.6-0.3
		c0.3,0,0.5,0.1,0.6,0.3c0.1,0.1,0.3,0.4,0.3,0.6c0,0.3-0.1,0.5-0.3,0.6C358.5,234.5,358.3,234.6,358,234.6z M358.7,245.7h-1.4v-9
		h1.4V245.7z"/>
	<path fill="#CECECE" d="M365.3,246c-1.3,0-2.4-0.4-3.2-1.3c-0.8-0.9-1.2-1.9-1.2-3.3c0-1.5,0.4-2.7,1.3-3.6
		c0.9-0.9,1.9-1.3,3.3-1.3c1.3,0,2.4,0.4,3.1,1.3c0.8,0.8,1.2,1.9,1.2,3.5c0,1.4-0.4,2.6-1.2,3.5C367.7,245.6,366.7,246,365.3,246z
		 M365.4,237.8c-0.9,0-1.7,0.3-2.2,0.9c-0.5,0.6-0.8,1.5-0.8,2.6c0,1,0.3,1.9,0.8,2.6c0.5,0.6,1.3,0.9,2.2,0.9
		c0.9,0,1.7-0.3,2.2-0.9c0.5-0.6,0.8-1.4,0.8-2.6s-0.3-1.9-0.8-2.6C367.1,238,366.3,237.8,365.4,237.8z"/>
	<path fill="#CECECE" d="M379.5,245.7h-1.4v-5.1c0-1.9-0.6-2.8-2-2.8c-0.8,0-1.3,0.3-1.8,0.8s-0.6,1.3-0.6,2v5.1h-1.4v-9h1.4v1.5
		l0,0c0.6-1.2,1.7-1.7,2.9-1.7c1,0,1.8,0.3,2.3,0.9c0.5,0.6,0.8,1.5,0.8,2.7L379.5,245.7L379.5,245.7z"/>
</g>
<g>
	<g>
		<g>
			<path fill="#CECECE" d="M598.1,221.2c0,0.6-0.1,1.2-0.3,1.7c-0.1,0.5-0.5,0.9-0.8,1.3c-0.3,0.4-0.8,0.6-1.3,0.9
				c-0.5,0.3-1,0.3-1.5,0.3c-0.6,0-1.2-0.1-1.7-0.4c-0.5-0.3-0.9-0.6-1.3-1.2c-0.4-0.5-0.6-1.2-0.8-1.8c-0.1-0.6-0.3-1.5-0.3-2.4
				c0-1.2,0.1-2,0.4-2.9c0.3-0.9,0.6-1.7,1-2.3s1-1.2,1.7-1.4s1.3-0.5,2-0.5c0.9,0,1.5,0.1,2,0.4v1.4c-0.6-0.4-1.3-0.5-2-0.5
				c-0.5,0-1,0.1-1.5,0.4c-0.5,0.3-0.9,0.6-1.2,1c-0.4,0.5-0.5,1-0.8,1.7c-0.1,0.6-0.3,1.4-0.3,2.2l0,0c0.6-1,1.5-1.5,2.8-1.5
				c0.5,0,1,0.1,1.5,0.3c0.4,0.1,0.8,0.5,1.2,0.8c0.3,0.4,0.5,0.8,0.8,1.3C598.2,220.1,598.1,220.8,598.1,221.2z M596.7,221.4
				c0-0.4,0-0.8-0.1-1.2s-0.3-0.6-0.5-0.9s-0.5-0.4-0.8-0.5s-0.6-0.3-1-0.3s-0.6,0.1-1,0.3c-0.4,0.1-0.5,0.3-0.8,0.5
				c-0.3,0.3-0.4,0.5-0.5,0.8s-0.1,0.6-0.1,1s0,0.9,0.1,1.2c0.1,0.4,0.3,0.8,0.5,1s0.5,0.5,0.8,0.6s0.6,0.3,1,0.3s0.6-0.1,1-0.3
				c0.3-0.1,0.5-0.4,0.8-0.5s0.4-0.5,0.5-0.9C596.6,222.3,596.7,221.8,596.7,221.4z"/>
			<path fill="#CECECE" d="M607.7,218.8c0,1-0.1,1.9-0.3,2.8c-0.1,0.8-0.5,1.5-0.8,2c-0.4,0.5-0.8,1-1.3,1.3s-1.2,0.4-1.8,0.4
				s-1.2-0.1-1.7-0.4c-0.5-0.3-0.9-0.6-1.3-1.2c-0.4-0.5-0.6-1.2-0.8-1.9c-0.1-0.8-0.3-1.7-0.3-2.7c0-1.2,0.1-2,0.3-2.9
				c0.1-0.9,0.5-1.5,0.8-2.2c0.4-0.5,0.8-1,1.3-1.3s1.2-0.4,1.8-0.4C606.4,212.5,607.7,214.6,607.7,218.8z M606.3,219.1
				c0-3.6-0.9-5.4-2.6-5.4c-1.8,0-2.7,1.8-2.7,5.5c0,3.3,0.9,5.1,2.7,5.1C605.4,224.2,606.3,222.4,606.3,219.1z"/>
			<path fill="#CECECE" d="M627.5,225.2h-1.4v-5.1c0-1-0.1-1.7-0.5-2.2c-0.3-0.4-0.8-0.6-1.5-0.6c-0.6,0-1.2,0.3-1.5,0.9
				c-0.4,0.5-0.6,1.3-0.6,2v5.1h-1.4V220c0-1.8-0.6-2.7-2-2.7c-0.6,0-1.2,0.3-1.5,0.8c-0.4,0.5-0.6,1.2-0.6,2v5.1h-1.4v-9h1.4v1.4
				l0,0c0.6-1,1.5-1.7,2.8-1.7c0.6,0,1.2,0.1,1.7,0.5s0.8,0.8,0.9,1.3c0.6-1.3,1.7-1.8,2.9-1.8c1.9,0,2.9,1.3,2.9,3.7L627.5,225.2
				L627.5,225.2z"/>
			<path fill="#CECECE" d="M631,214c-0.3,0-0.5-0.1-0.6-0.3c-0.1-0.1-0.3-0.4-0.3-0.6s0.1-0.5,0.3-0.6c0.1-0.1,0.4-0.3,0.6-0.3
				c0.3,0,0.5,0.1,0.6,0.3c0.1,0.1,0.3,0.4,0.3,0.6s-0.1,0.5-0.3,0.6C631.5,214,631.2,214,631,214z M631.7,225.2h-1.5v-9h1.4
				L631.7,225.2L631.7,225.2z"/>
			<path fill="#CECECE" d="M642,225.2h-1.4v-5.1c0-1.9-0.6-2.8-2-2.8c-0.8,0-1.3,0.3-1.8,0.8s-0.8,1.3-0.8,2v5.1h-1.4v-9h1.4v1.5
				l0,0c0.6-1.2,1.7-1.7,2.9-1.7c1,0,1.8,0.3,2.3,0.9c0.5,0.6,0.8,1.5,0.8,2.7V225.2L642,225.2z"/>
			<path fill="#CECECE" d="M651.9,225.2h-1.4v-1.4l0,0c-0.6,1-1.5,1.7-2.8,1.7c-2.2,0-3.2-1.3-3.2-3.8v-5.4h1.4v5.1
				c0,1.9,0.8,2.8,2.2,2.8c0.6,0,1.3-0.3,1.8-0.8s0.6-1.2,0.6-2v-5.1h1.4V225.2z"/>
			<path fill="#CECECE" d="M659,225.2c-0.4,0.1-0.8,0.3-1.3,0.3c-1.5,0-2.3-0.9-2.3-2.7v-5.2h-1.5v-1.3h1.5v-2.2l1.4-0.5v2.7h2.3
				v1.3h-2.3v5c0,0.6,0.1,1,0.3,1.3c0.1,0.3,0.5,0.4,1,0.4c0.4,0,0.6-0.1,0.9-0.3L659,225.2L659,225.2z"/>
			<path fill="#CECECE" d="M667.9,221h-6.3c0,1,0.3,1.8,0.8,2.3s1.3,0.8,2.2,0.8c1,0,1.9-0.4,2.8-1v1.4c-0.8,0.5-1.8,0.9-3.1,0.9
				s-2.3-0.4-2.9-1.3c-0.8-0.8-1-1.9-1-3.5c0-1.4,0.4-2.6,1.2-3.5s1.8-1.3,2.9-1.3c1.2,0,2,0.4,2.7,1.2c0.6,0.8,1,1.8,1,3.2v0.8
				C668.2,221,667.9,221,667.9,221z M666.5,219.9c0-0.8-0.3-1.5-0.6-1.9c-0.4-0.5-0.9-0.6-1.7-0.6c-0.6,0-1.3,0.3-1.7,0.8
				s-0.8,1.2-0.9,1.9L666.5,219.9L666.5,219.9z"/>
			<path fill="#CECECE" d="M669.6,224.9v-1.5c0.8,0.6,1.7,0.9,2.6,0.9c1.3,0,1.9-0.4,1.9-1.3c0-0.3,0-0.4-0.1-0.6
				c-0.1-0.1-0.3-0.3-0.4-0.4c-0.1-0.1-0.4-0.3-0.6-0.4c-0.3-0.1-0.5-0.3-0.8-0.4c-0.4-0.1-0.8-0.3-1-0.5c-0.3-0.1-0.5-0.4-0.8-0.5
				c-0.3-0.3-0.4-0.4-0.5-0.6c-0.1-0.3-0.1-0.5-0.1-0.9s0.1-0.8,0.3-1.2c0.3-0.4,0.5-0.6,0.8-0.8c0.4-0.3,0.6-0.4,1.2-0.5
				c0.4-0.1,0.9-0.1,1.3-0.1c0.8,0,1.4,0.1,2,0.4v1.4c-0.6-0.4-1.4-0.6-2.3-0.6c-0.3,0-0.5,0-0.8,0.1c-0.3,0-0.4,0.1-0.5,0.3
				c-0.1,0.1-0.3,0.3-0.4,0.4c-0.1,0.1-0.1,0.4-0.1,0.5c0,0.3,0,0.4,0.1,0.6c0.1,0.1,0.3,0.3,0.4,0.4c0.1,0.1,0.4,0.3,0.6,0.4
				c0.3,0.1,0.5,0.3,0.8,0.4c0.4,0.1,0.8,0.3,1,0.5c0.3,0.1,0.6,0.4,0.8,0.5c0.3,0.3,0.4,0.4,0.5,0.6c0.1,0.3,0.1,0.5,0.1,0.9
				s-0.1,0.8-0.3,1.2c-0.3,0.4-0.5,0.6-0.8,0.8c-0.3,0.1-0.6,0.4-1.2,0.5c-0.5,0.1-0.9,0.1-1.3,0.1
				C671.1,225.5,670.2,225.2,669.6,224.9z"/>
			<path fill="#CECECE" d="M594,245.5L594,245.5v5.4h-1.4v-13h1.4v1.5l0,0c0.8-1.2,1.8-1.8,3.1-1.8c1.2,0,2,0.4,2.7,1.2
				c0.6,0.8,1,1.9,1,3.2c0,1.5-0.4,2.7-1.2,3.6c-0.8,0.9-1.7,1.4-2.9,1.4C595.5,247,594.6,246.3,594,245.5z M594,241.9v1.3
				c0,0.8,0.3,1.4,0.8,1.9s1.2,0.8,1.8,0.8c0.9,0,1.5-0.4,2-1s0.8-1.5,0.8-2.8c0-1-0.3-1.8-0.6-2.3c-0.4-0.5-1-0.9-1.9-0.9
				s-1.5,0.3-2,0.9C594.3,240.2,594,241,594,241.9z"/>
			<path fill="#CECECE" d="M610.2,242.5H604c0,1,0.3,1.8,0.8,2.3s1.3,0.8,2.2,0.8c1,0,1.9-0.4,2.8-1v1.4c-0.8,0.5-1.8,0.9-3.1,0.9
				s-2.3-0.4-2.9-1.3c-0.8-0.8-1-1.9-1-3.5c0-1.4,0.4-2.6,1.2-3.5s1.8-1.3,2.9-1.3c1.2,0,2,0.4,2.7,1.2c0.6,0.8,1,1.8,1,3.2v0.8
				L610.2,242.5L610.2,242.5z M608.8,241.5c0-0.8-0.3-1.5-0.6-1.9c-0.4-0.5-0.9-0.6-1.7-0.6c-0.6,0-1.3,0.3-1.7,0.8
				s-0.8,1.2-0.9,1.9L608.8,241.5L608.8,241.5z"/>
			<path fill="#CECECE" d="M617.2,239.3c-0.3-0.3-0.6-0.3-1-0.3c-0.6,0-1.2,0.3-1.5,0.9c-0.4,0.6-0.6,1.4-0.6,2.3v4.6h-1.4v-9h1.4
				v1.8l0,0c0.3-0.6,0.5-1.2,0.9-1.5s0.9-0.5,1.4-0.5c0.4,0,0.6,0,0.9,0.1L617.2,239.3L617.2,239.3z"/>
			<path fill="#CECECE" d="M636.3,246.7h-1.4v-5.1c0-1-0.1-1.7-0.5-2.2c-0.3-0.4-0.8-0.6-1.5-0.6c-0.6,0-1.2,0.3-1.5,0.9
				c-0.4,0.5-0.6,1.3-0.6,2v5.1h-1.4v-5.4c0-1.8-0.6-2.7-2-2.7c-0.6,0-1.2,0.3-1.5,0.8c-0.4,0.5-0.6,1.2-0.6,2v5.1h-1.4v-9h1.4v1.4
				l0,0c0.6-1,1.5-1.7,2.8-1.7c0.6,0,1.2,0.1,1.7,0.5s0.8,0.8,0.9,1.3c0.6-1.3,1.7-1.8,2.9-1.8c1.9,0,2.9,1.3,2.9,3.7L636.3,246.7
				L636.3,246.7z"/>
			<path fill="#CECECE" d="M642.7,247c-1.3,0-2.4-0.4-3.2-1.3c-0.8-0.9-1.2-1.9-1.2-3.3c0-1.5,0.4-2.7,1.3-3.6
				c0.9-0.9,1.9-1.3,3.3-1.3c1.3,0,2.4,0.4,3.1,1.3c0.8,0.8,1.2,1.9,1.2,3.5c0,1.4-0.4,2.6-1.2,3.5C645.2,246.6,644.1,247,642.7,247
				z M642.9,238.7c-0.9,0-1.7,0.3-2.2,0.9c-0.5,0.6-0.8,1.5-0.8,2.6s0.3,1.9,0.8,2.6c0.5,0.6,1.3,0.9,2.2,0.9s1.7-0.3,2.2-0.9
				c0.5-0.6,0.8-1.4,0.8-2.6s-0.3-1.9-0.8-2.6C644.5,239.1,643.8,238.7,642.9,238.7z"/>
			<path fill="#CECECE" d="M656.9,246.7h-1.4v-5.1c0-1.9-0.6-2.8-2-2.8c-0.8,0-1.3,0.3-1.8,0.8s-0.8,1.3-0.8,2v5.1h-1.4v-9h1.4v1.5
				l0,0c0.6-1.2,1.7-1.7,2.9-1.7c1,0,1.8,0.3,2.3,0.9c0.5,0.6,0.8,1.5,0.8,2.7V246.7z"/>
			<path fill="#CECECE" d="M663.8,246.7c-0.4,0.1-0.8,0.3-1.3,0.3c-1.5,0-2.3-0.9-2.3-2.7v-5.2h-1.5v-1.3h1.5v-2.2l1.4-0.5v2.7h2.3
				v1.3h-2.3v5c0,0.6,0.1,1,0.3,1.3c0.1,0.3,0.5,0.4,1,0.4c0.4,0,0.6-0.1,0.9-0.3L663.8,246.7L663.8,246.7z"/>
			<path fill="#CECECE" d="M673.2,246.7h-1.4v-5.1c0-1.9-0.6-2.8-2-2.8c-0.6,0-1.3,0.3-1.8,0.8s-0.8,1.3-0.8,2v5.1h-1.4v-13.2h1.4
				v5.8l0,0c0.6-1.2,1.7-1.7,2.9-1.7c2,0,3.1,1.3,3.1,3.7V246.7L673.2,246.7z"/>
		</g>
	</g>
	<g>
		<path fill="#CECECE" d="M651.8,178.6c0.4-1.5,0.5-3.2,0.5-4.9c0-12.4-10.1-22.5-22.5-22.5c-1.3,0-2.6,0.1-3.8,0.4
			c-2-1.3-4.3-2-6.9-2c-7.2,0-13,5.9-13,13c0,2.4,0.6,4.6,1.8,6.7c-0.3,1.4-0.5,2.9-0.5,4.5c0,12.4,10.1,22.5,22.5,22.5
			c1.4,0,2.8-0.1,4.1-0.4c1.8,1,4,1.5,6.1,1.5c7.2,0,13-5.9,13-13C653.1,182.1,652.6,180.2,651.8,178.6"/>
		<path fill="#FFFFFF" d="M623,159L623,159c-1.9,0.6-3.3,1.7-4.3,3.1c-1,1.3-1.5,2.8-1.5,4.6s0.5,3.3,1.4,4.5s2.3,2.2,3.8,2.8
			s3.6,1.3,5.9,1.8c1.7,0.4,3.1,0.6,4.1,1c1,0.3,1.8,0.8,2.4,1.3c0.6,0.5,0.9,1.3,0.9,2.2c0,1.2-0.5,2-1.7,2.8s-2.7,1.2-4.5,1.2
			c-1.4,0-2.4-0.3-3.3-0.6c-0.8-0.4-1.4-0.9-1.9-1.4c-0.5-0.6-0.9-1.4-1.3-2.3c-0.4-0.9-0.8-1.5-1.3-1.9c-0.5-0.5-1.2-0.6-1.9-0.6
			c-0.9,0-1.8,0.3-2.3,0.9c-0.6,0.6-0.9,1.3-0.9,2.2c0,1.3,0.5,2.7,1.4,4.1c0.9,1.4,2.2,2.4,3.7,3.3c2.2,1.2,4.9,1.7,8.1,1.7
			c2.7,0,5.1-0.4,7-1.3c2-0.8,3.6-2,4.6-3.5s1.5-3.2,1.5-5c0-1.5-0.3-2.9-0.9-4c-0.6-1-1.4-1.9-2.6-2.7c-1-0.6-2.3-1.3-3.8-1.8
			s-3.2-0.9-5-1.3c-1.4-0.4-2.4-0.6-3.1-0.8s-1.3-0.4-1.8-0.6c-0.5-0.3-1-0.6-1.3-1s-0.5-0.8-0.5-1.3c0-0.9,0.5-1.5,1.4-2.2
			c1-0.6,2.3-1,3.8-1c1.8,0,2.9,0.3,3.7,0.9c0.8,0.6,1.4,1.4,2,2.6c0.5,0.9,0.9,1.4,1.3,1.8c0.5,0.4,1.2,0.6,1.9,0.6
			c0.9,0,1.7-0.4,2.3-1s0.9-1.4,0.9-2.2c0-0.9-0.3-1.7-0.6-2.6c-0.5-0.9-1.2-1.7-2.2-2.4s-2.2-1.4-3.7-1.8c-1.5-0.5-3.2-0.6-5.2-0.6
			C627.1,157.8,625,158.3,623,159z"/>
	</g>
</g>
<g>
	<g>
		<path fill="#2673BA" d="M292.8,88.3c-0.1-0.4-0.1-0.6-0.3-1c-0.1-0.3-0.3-0.6-0.4-0.8c-0.1-0.3-0.3-0.5-0.5-0.6
			c-0.1-0.1-0.4-0.4-0.5-0.4c-0.3-0.1-0.4-0.3-0.6-0.3c-0.3,0-0.5-0.1-0.8,0c-0.3,0-0.5,0-0.8,0.1s-0.5,0.1-0.6,0.4
			c-0.3,0.1-0.4,0.3-0.6,0.5c-0.1,0.3-0.4,0.4-0.5,0.8c-0.1,0.3-0.3,0.5-0.4,0.8s-0.3,0.6-0.3,0.9c-0.1,0.4-0.1,0.6-0.1,1
			s0,0.8,0,1.2c0,0.4,0,0.9,0,1.3s0.1,0.8,0.1,1c0.1,0.4,0.1,0.6,0.3,0.9c0.1,0.3,0.3,0.5,0.4,0.8s0.3,0.4,0.5,0.6
			c0.1,0.1,0.4,0.4,0.5,0.5s0.4,0.3,0.6,0.3c0.3,0.1,0.4,0.1,0.6,0.1c0.3,0,0.5,0,0.8,0s0.4-0.1,0.6-0.3c0.3-0.1,0.4-0.3,0.5-0.4
			s0.4-0.4,0.5-0.6c0.1-0.3,0.3-0.5,0.4-0.8s0.3-0.6,0.3-1c0.1-0.4,0.1-0.8,0.1-1.2c0-0.4,0-0.8,0-1.3s0-0.9,0-1.3
			C292.9,89,292.9,88.6,292.8,88.3z"/>
		<path fill="#2673BA" d="M315.5,80.2h-14.2V72l-22.8,4.1v30.8l22.8,4.1v-8h13.8c1.3,0,2.4-1.2,2.4-2.4v-18
			C317.5,80.2,315.8,80.2,315.5,80.2z M315.5,81.7c0.4,0,0.4,0.4,0.4,0.8l0,0l-9.1,8.8c0,0-0.1,0-0.3,0l-5.4-5.2v-4.3h14.4V81.7z
			 M296.2,92.6c-0.1,0.6-0.3,1.3-0.4,1.8s-0.4,1.2-0.6,1.5c-0.3,0.5-0.5,0.9-0.9,1.4c-0.4,0.4-0.6,0.8-1,1s-0.8,0.5-1.2,0.8
			c-0.4,0.1-0.9,0.3-1.3,0.4s-0.9,0.1-1.4,0c-0.5,0-0.9-0.1-1.3-0.3s-0.8-0.3-1.2-0.5c-0.4-0.3-0.8-0.5-1-0.8
			c-0.4-0.3-0.6-0.6-0.9-1s-0.5-0.8-0.8-1.3s-0.4-0.9-0.5-1.4s-0.3-1-0.3-1.7c-0.1-0.5-0.1-1.2-0.1-1.8s0-1.3,0.1-1.8
			c0.1-0.6,0.1-1.2,0.3-1.7c0.1-0.5,0.3-1,0.5-1.5c0.3-0.5,0.4-0.9,0.8-1.3c0.3-0.4,0.6-0.8,0.9-1.2c0.4-0.4,0.6-0.6,1-0.9
			s0.8-0.4,1.3-0.5c0.4-0.1,0.9-0.3,1.4-0.3s0.9,0,1.4,0c0.4,0.1,0.9,0.3,1.3,0.4s0.8,0.4,1.2,0.8c0.4,0.3,0.6,0.6,1,1
			c0.3,0.4,0.6,0.9,0.8,1.3c0.3,0.5,0.4,1,0.6,1.5c0.1,0.5,0.3,1.2,0.4,1.8s0.1,1.3,0.1,2C296.4,91.3,296.4,92,296.2,92.6z
			 M315,101.3h-13.8V89.5l4.7,4.7c0.4,0.4,1,0.4,1.4,0l8.4-8.3v14.5C315.9,100.8,315.4,101.3,315,101.3z"/>
	</g>
</g>
<g>
	<g>
		<g>
			<g>
				<path fill="#CECECE" d="M442.8,219.1h-1.4v-10.9c-0.1,0.1-0.3,0.3-0.5,0.4c-0.3,0.1-0.5,0.3-0.8,0.4c-0.3,0.1-0.5,0.3-0.9,0.4
					c-0.3,0.1-0.6,0.3-0.9,0.3v-1.4c0.3-0.1,0.6-0.3,1-0.4s0.6-0.3,1-0.5c0.4-0.1,0.6-0.4,1-0.6c0.3-0.3,0.5-0.4,0.8-0.6h0.5
					L442.8,219.1L442.8,219.1z"/>
				<path fill="#CECECE" d="M455.1,208h-3.6v11.1h-1.4v-11.3h-3.6v-1.3h8.7L455.1,208L455.1,208z"/>
				<path fill="#CECECE" d="M457.1,219.1v-12.5h3.6c1,0,1.9,0.3,2.6,0.8c0.6,0.5,0.9,1.3,0.9,2c0,0.8-0.3,1.3-0.6,1.8
					c-0.4,0.5-0.9,0.9-1.5,1.2l0,0c0.9,0.1,1.5,0.4,2,0.9s0.8,1.3,0.8,2c0,1-0.4,1.9-1.2,2.6c-0.8,0.6-1.7,1.3-2.9,1.3h-3.7V219.1z
					 M458.5,208v4.1h1.5c0.8,0,1.4-0.3,1.9-0.6s0.6-0.9,0.6-1.7c0-1.3-0.8-1.8-2.4-1.8H458.5z M458.5,213.3v4.5h2
					c0.9,0,1.5-0.3,2-0.6c0.5-0.4,0.8-1,0.8-1.7c0-1.5-1-2.2-3.1-2.2H458.5z"/>
				<path fill="#CECECE" d="M478.2,218.7c-0.6,0.4-1.5,0.6-2.4,0.6c-1.3,0-2.3-0.4-3.1-1.3c-0.8-0.8-1.2-1.9-1.2-3.2
					c0-1.5,0.4-2.7,1.3-3.6c0.9-0.9,1.9-1.3,3.3-1.3c0.8,0,1.5,0.1,2,0.4v1.4c-0.6-0.5-1.4-0.6-2.2-0.6c-0.9,0-1.7,0.4-2.3,1
					c-0.6,0.6-0.9,1.5-0.9,2.6s0.3,1.9,0.8,2.4c0.5,0.6,1.3,0.9,2.2,0.9c0.8,0,1.5-0.3,2.2-0.8v1.4h0.3V218.7z"/>
				<path fill="#CECECE" d="M481.8,219.1h-1.4v-13.2h1.4V219.1z"/>
				<path fill="#CECECE" d="M488.5,219.4c-1.3,0-2.4-0.4-3.2-1.3c-0.8-0.9-1.2-1.9-1.2-3.3c0-1.5,0.4-2.7,1.3-3.6
					c0.9-0.9,1.9-1.3,3.3-1.3c1.3,0,2.4,0.4,3.1,1.3c0.8,0.8,1.2,1.9,1.2,3.5c0,1.4-0.4,2.6-1.2,3.5
					C490.9,219,489.8,219.4,488.5,219.4z M488.6,211.2c-0.9,0-1.7,0.3-2.2,0.9c-0.5,0.6-0.8,1.5-0.8,2.6s0.3,1.9,0.8,2.6
					c0.5,0.6,1.3,0.9,2.2,0.9c0.9,0,1.7-0.3,2.2-0.9c0.5-0.6,0.8-1.4,0.8-2.6s-0.3-1.9-0.8-2.6C490.1,211.4,489.5,211.2,488.6,211.2
					z"/>
				<path fill="#CECECE" d="M502.4,219.1H501v-1.4l0,0c-0.6,1-1.5,1.7-2.8,1.7c-2.2,0-3.2-1.3-3.2-3.8v-5.4h1.4v5.1
					c0,1.9,0.8,2.8,2.2,2.8c0.6,0,1.3-0.3,1.8-0.8s0.6-1.2,0.6-2v-5.1h1.4V219.1z"/>
				<path fill="#CECECE" d="M512.9,219.1h-1.4v-1.5l0,0c-0.6,1.2-1.7,1.8-3.1,1.8c-1.2,0-2-0.4-2.7-1.2c-0.6-0.8-1-1.9-1-3.3
					c0-1.5,0.4-2.7,1.2-3.6c0.8-0.9,1.8-1.3,2.9-1.3c1.3,0,2.2,0.5,2.7,1.4l0,0v-5.5h1.4V219.1z M511.5,215.1v-1.3
					c0-0.8-0.3-1.3-0.8-1.8s-1-0.8-1.8-0.8c-0.9,0-1.5,0.4-2,1s-0.8,1.5-0.8,2.7c0,1,0.3,1.8,0.8,2.4c0.5,0.6,1.2,0.9,1.9,0.9
					s1.4-0.3,1.9-0.9S511.5,216,511.5,215.1z"/>
				<path fill="#CECECE" d="M446.7,240.3v-1.5c0.8,0.6,1.7,0.9,2.6,0.9c1.3,0,1.9-0.4,1.9-1.3c0-0.3,0-0.4-0.1-0.6
					c-0.1-0.1-0.3-0.3-0.4-0.4c-0.1-0.1-0.4-0.3-0.6-0.4c-0.3-0.1-0.5-0.3-0.8-0.4c-0.4-0.1-0.8-0.3-1-0.5c-0.3-0.1-0.5-0.4-0.8-0.5
					c-0.3-0.3-0.4-0.4-0.5-0.6s-0.1-0.5-0.1-0.9s0.1-0.8,0.3-1.2c0.3-0.4,0.5-0.6,0.8-0.8c0.4-0.3,0.6-0.4,1.2-0.5
					c0.4-0.1,0.9-0.1,1.3-0.1c0.8,0,1.4,0.1,2,0.4v1.4c-0.6-0.4-1.4-0.6-2.3-0.6c-0.3,0-0.5,0-0.8,0.1c-0.3,0-0.4,0.1-0.5,0.3
					c-0.1,0.1-0.3,0.3-0.4,0.4c-0.1,0.1-0.1,0.4-0.1,0.5c0,0.3,0,0.4,0.1,0.6c0.1,0.1,0.3,0.3,0.4,0.4c0.1,0.1,0.4,0.3,0.6,0.4
					c0.3,0.1,0.5,0.3,0.8,0.4c0.4,0.1,0.8,0.3,1,0.5c0.3,0.1,0.6,0.4,0.8,0.5c0.3,0.3,0.4,0.4,0.5,0.6c0.1,0.3,0.1,0.5,0.1,0.9
					s-0.1,0.8-0.3,1.2c-0.3,0.4-0.5,0.6-0.8,0.8s-0.6,0.4-1.2,0.5c-0.5,0.1-0.9,0.1-1.3,0.1C448.2,240.8,447.4,240.7,446.7,240.3z"
					/>
				<path fill="#CECECE" d="M458.9,240.6c-0.4,0.1-0.8,0.3-1.3,0.3c-1.5,0-2.3-0.9-2.3-2.7V233h-1.5v-1.3h1.5v-2.2l1.4-0.5v2.7h2.3
					v1.3h-2.3v5c0,0.6,0.1,1,0.3,1.3c0.1,0.3,0.5,0.4,1,0.4c0.4,0,0.6-0.1,0.9-0.3V240.6L458.9,240.6z"/>
				<path fill="#CECECE" d="M464.6,240.8c-1.3,0-2.4-0.4-3.2-1.3c-0.8-0.9-1.2-1.9-1.2-3.3c0-1.5,0.4-2.7,1.3-3.6
					c0.9-0.9,1.9-1.3,3.3-1.3c1.3,0,2.4,0.4,3.1,1.3c0.8,0.8,1.2,1.9,1.2,3.5c0,1.4-0.4,2.6-1.2,3.5
					C467,240.5,465.8,240.8,464.6,240.8z M464.6,232.7c-0.9,0-1.7,0.3-2.2,0.9c-0.5,0.6-0.8,1.5-0.8,2.6s0.3,1.9,0.8,2.6
					c0.5,0.6,1.3,0.9,2.2,0.9c0.9,0,1.7-0.3,2.2-0.9c0.5-0.6,0.8-1.4,0.8-2.6s-0.3-1.9-0.8-2.6S465.6,232.7,464.6,232.7z"/>
				<path fill="#CECECE" d="M475.9,233.2c-0.3-0.3-0.6-0.3-1-0.3c-0.6,0-1.2,0.3-1.5,0.9c-0.4,0.6-0.6,1.4-0.6,2.3v4.6h-1.4v-9h1.4
					v1.8l0,0c0.3-0.6,0.5-1.2,0.9-1.5s0.9-0.5,1.4-0.5c0.4,0,0.6,0,0.9,0.1L475.9,233.2L475.9,233.2z"/>
				<path fill="#CECECE" d="M483.9,240.6h-1.4v-1.4l0,0c-0.6,1-1.5,1.7-2.8,1.7c-0.9,0-1.5-0.3-2-0.8s-0.8-1.2-0.8-1.9
					c0-1.7,1-2.7,2.9-2.9l2.7-0.4c0-1.5-0.6-2.3-1.8-2.3c-1,0-2,0.4-2.9,1.2v-1.4c0.9-0.5,1.9-0.9,3.1-0.9c2,0,3.2,1.2,3.2,3.3
					L483.9,240.6L483.9,240.6L483.9,240.6z M482.5,236.1l-2.2,0.3c-0.6,0.1-1.2,0.3-1.5,0.5c-0.4,0.3-0.5,0.6-0.5,1.3
					c0,0.4,0.1,0.8,0.5,1c0.3,0.3,0.8,0.4,1.3,0.4c0.8,0,1.3-0.3,1.8-0.8s0.6-1.2,0.6-1.9L482.5,236.1L482.5,236.1z"/>
				<path fill="#CECECE" d="M494.2,240c0,3.3-1.5,5-4.7,5c-1.2,0-2-0.3-2.9-0.6V243c1,0.5,1.9,0.9,2.9,0.9c2.2,0,3.3-1.2,3.3-3.5v-1
					l0,0c-0.6,1.2-1.7,1.7-3.1,1.7c-1.2,0-2-0.4-2.7-1.2c-0.6-0.8-1-1.9-1-3.2c0-1.5,0.4-2.7,1.2-3.6s1.8-1.4,2.9-1.4s2,0.5,2.7,1.4
					l0,0v-1.3h1.4L494.2,240L494.2,240z M492.8,236.6v-1.3c0-0.8-0.3-1.3-0.8-1.8s-1-0.8-1.8-0.8c-0.9,0-1.5,0.4-2,1
					s-0.8,1.5-0.8,2.7c0,1,0.3,1.8,0.8,2.4c0.5,0.6,1.2,0.9,1.9,0.9c0.8,0,1.4-0.3,1.9-0.9C492.6,238.2,492.8,237.5,492.8,236.6z"/>
				<path fill="#CECECE" d="M504.3,236.5H498c0,1,0.3,1.8,0.8,2.3s1.3,0.8,2.2,0.8c1,0,1.9-0.4,2.8-1v1.4c-0.8,0.5-1.8,0.9-3.1,0.9
					c-1.3,0-2.3-0.4-2.9-1.3c-0.8-0.8-1-1.9-1-3.5c0-1.4,0.4-2.6,1.2-3.5c0.8-0.9,1.8-1.3,2.9-1.3c1.2,0,2,0.4,2.7,1.2s1,1.8,1,3.2
					v0.8L504.3,236.5L504.3,236.5z M502.9,235.3c0-0.8-0.3-1.5-0.6-1.9c-0.4-0.5-0.9-0.6-1.7-0.6c-0.6,0-1.3,0.3-1.7,0.8
					c-0.4,0.5-0.8,1.2-0.9,1.9L502.9,235.3L502.9,235.3z"/>
			</g>
		</g>
	</g>
	<path fill="#CECECE" d="M506.6,172.8c0-0.3,0-0.5,0-0.8c0-6-4.9-10.9-10.9-10.9c-2.2,0-4.2,0.6-6,1.8c-2-4.1-6.3-6.8-11.1-6.8
		c-6.9,0-12.5,5.6-12.5,12.5c0,0.3,0,0.5,0,0.8c-0.3,0-0.5,0-0.8,0c-5.5,0-10,4.5-10,10s4.5,10,10,10l0,0l0,0H502h6.5
		c0.3-0.1,0.4-0.1,0.6-0.3c2.8-1.4,4.7-4.3,4.7-7.7C513.9,177,510.7,173.4,506.6,172.8z"/>
	<path fill="#CECECE" d="M463.9,167.2c0.8-7.4,7-13.3,14.7-13.3c4.7,0,9.2,2.3,11.9,6.1c1.7-0.6,3.3-1,5.2-1c0.1,0,0.3,0,0.4,0
		c-0.8-8.2-7.7-14.5-16.1-14.5c-6.3,0-11.8,3.6-14.5,9c-1.9-1.3-4.1-2-6.5-2c-6.4,0-11.6,5.2-11.6,11.6c0,0.9,0.1,1.7,0.3,2.6
		c-5.4,0.4-9.6,4.9-9.6,10.4c0,5.8,4.6,10.4,10.4,10.4h6.8c-1.4-1.9-2.2-4.3-2.2-6.9C453,173.1,457.9,167.8,463.9,167.2z"/>
</g>
<g>
	<g>
		<path fill="#CECECE" d="M775.2,153.7c5.4,0,10.1,2.6,13,6.5l-5.6,5.8h17.8v-18.2l-5.6,5.8c-4.7-5.5-11.6-9.1-19.6-9.1
			c-12.7,0-23.3,9.3-25.2,21.4h9.3C761.3,159,767.7,153.7,775.2,153.7z"/>
		<path fill="#CECECE" d="M775.2,186.4c-5.2,0-9.8-2.4-12.8-6.3l6-6h-18.3v18.3l5.8-5.8c4.7,5.5,11.6,9,19.3,9
			c12.7,0,23.3-9.3,25.2-21.4h-9.3C789.3,181.1,782.9,186.4,775.2,186.4z"/>
	</g>
	<g>
		<path fill="#CECECE" d="M748,217.4c0,3.6-1.5,5.2-4.7,5.2c-3.1,0-4.6-1.7-4.6-5.1v-7.7h1.4v7.5c0,2.6,1,3.8,3.2,3.8
			c2,0,3.1-1.3,3.1-3.7v-7.7h1.4v7.5h0.2V217.4z"/>
		<path fill="#CECECE" d="M759.3,217.8c0,1.4-0.4,2.7-1,3.6c-0.8,0.9-1.8,1.4-3.1,1.4c-1.2,0-2-0.5-2.7-1.5l0,0v5.4h-1.4v-13h1.4
			v1.5l0,0c0.8-1.2,1.8-1.8,3.1-1.8c1.2,0,2,0.4,2.8,1.3C758.9,215.5,759.3,216.5,759.3,217.8z M757.7,217.8c0-1-0.3-1.8-0.6-2.3
			c-0.4-0.5-1-0.9-1.9-0.9s-1.5,0.3-2,0.9c-0.5,0.5-0.6,1.3-0.6,2.2v1.3c0,0.8,0.3,1.3,0.6,1.8c0.5,0.5,1.2,0.8,1.9,0.8
			c0.9,0,1.5-0.4,2-1C757.5,219.9,757.7,219,757.7,217.8z"/>
		<path fill="#CECECE" d="M769,221.8c0,3.3-1.5,4.9-4.7,4.9c-1.2,0-2-0.3-2.9-0.6v-1.4c1,0.5,1.9,0.9,2.8,0.9c2.2,0,3.3-1.2,3.3-3.5
			v-1l0,0c-0.6,1.2-1.7,1.7-3.1,1.7c-1.2,0-2-0.4-2.7-1.2s-1-1.9-1-3.2c0-1.5,0.4-2.7,1-3.6c0.8-0.9,1.8-1.4,3.1-1.4
			c1.2,0,2,0.5,2.7,1.4l0,0v-1.3h1.4L769,221.8L769,221.8z M767.6,218.5v-1.3c0-0.6-0.3-1.3-0.6-1.8c-0.5-0.5-1.2-0.8-1.8-0.8
			c-0.9,0-1.5,0.3-2,0.9c-0.5,0.6-0.8,1.5-0.8,2.7c0,1,0.3,1.8,0.8,2.4c0.5,0.6,1.2,0.9,1.9,0.9c0.8,0,1.4-0.3,1.9-0.9
			C767.3,220.1,767.6,219.4,767.6,218.5z"/>
		<path fill="#CECECE" d="M776.5,215c-0.3-0.3-0.6-0.3-1.2-0.3c-0.6,0-1,0.3-1.4,0.8c-0.5,0.6-0.6,1.4-0.6,2.4v4.6h-1.4v-9h1.4v1.8
			l0,0c0.3-0.6,0.5-1.2,1-1.5c0.4-0.4,0.9-0.5,1.4-0.5c0.4,0,0.6,0,0.9,0.1v1.5L776.5,215L776.5,215z"/>
		<path fill="#CECECE" d="M784.5,222.6H783v-1.4l0,0c-0.6,1-1.5,1.7-2.8,1.7c-0.9,0-1.7-0.3-2.2-0.8s-0.8-1-0.8-1.8
			c0-1.7,1-2.7,2.9-2.9l2.7-0.4c0-1.5-0.6-2.3-1.8-2.3c-1,0-2,0.4-2.9,1.2v-1.4c0.3-0.3,0.6-0.4,1.3-0.5c0.6-0.3,1.3-0.3,1.8-0.3
			c2,0,3.2,1.2,3.2,3.3L784.5,222.6L784.5,222.6z M783,218.1l-2.2,0.3c-0.8,0.1-1.3,0.3-1.7,0.6c-0.3,0.3-0.4,0.6-0.4,1.2
			c0,0.4,0.1,0.8,0.5,1c0.3,0.3,0.8,0.4,1.3,0.4c0.8,0,1.3-0.3,1.8-0.8s0.6-1.2,0.6-1.9v-0.8H783z"/>
		<path fill="#CECECE" d="M794.8,222.6h-1.4V221l0,0c-0.6,1.2-1.7,1.8-3.1,1.8c-1.2,0-2-0.4-2.7-1.2c-0.6-0.8-1-1.9-1-3.3
			c0-1.5,0.4-2.7,1.2-3.6c0.8-0.9,1.8-1.3,2.9-1.3c1.3,0,2.2,0.5,2.7,1.4l0,0v-5.6h1.4L794.8,222.6L794.8,222.6z M793.3,218.5v-1.3
			c0-0.8-0.3-1.3-0.6-1.8c-0.5-0.5-1.2-0.8-1.8-0.8c-0.9,0-1.5,0.3-2,0.9c-0.5,0.6-0.8,1.5-0.8,2.7c0,1,0.3,1.9,0.8,2.6
			c0.5,0.5,1.2,0.8,1.9,0.8s1.5-0.3,2-0.9C793.2,220.1,793.3,219.4,793.3,218.5z"/>
		<path fill="#CECECE" d="M804.8,218.5h-6.3c0,1,0.3,1.8,0.8,2.3s1.3,0.8,2.2,0.8c1,0,1.9-0.4,2.8-1v1.3c-0.8,0.6-1.8,0.9-3.1,0.9
			s-2.2-0.4-2.9-1.2c-0.8-0.8-1.2-2-1.2-3.5c0-1.4,0.4-2.6,1.3-3.5c0.8-0.8,1.8-1.3,2.8-1.3c1.2,0,2.2,0.4,2.8,1.3
			c0.6,0.8,0.9,1.8,0.9,3.1L804.8,218.5L804.8,218.5L804.8,218.5z M803.4,217.2c0-0.8-0.3-1.4-0.6-1.9c-0.4-0.5-0.9-0.8-1.7-0.8
			c-0.6,0-1.3,0.3-1.7,0.8c-0.5,0.5-0.8,1.2-0.9,1.9H803.4z"/>
		<path fill="#CECECE" d="M811.8,220.1c0,0.8-0.3,1.4-0.8,1.8c-0.6,0.5-1.4,0.8-2.4,0.8c-0.9,0-1.5-0.1-2.2-0.5v-1.5
			c0.6,0.5,1.5,0.9,2.3,0.9c1.2,0,1.7-0.4,1.7-1.3c0-0.4-0.1-0.6-0.4-0.9s-0.8-0.5-1.4-0.8c-0.8-0.4-1.3-0.6-1.7-1s-0.5-0.9-0.5-1.7
			s0.3-1.4,0.9-1.9c0.6-0.5,1.4-0.8,2.3-0.8c0.8,0,1.4,0.1,1.9,0.4v1.4c-0.6-0.4-1.3-0.6-2-0.6c-0.5,0-0.9,0.1-1.2,0.4
			s-0.4,0.5-0.4,0.9s0.1,0.8,0.4,0.9c0.3,0.3,0.6,0.5,1.4,0.8c0.8,0.4,1.3,0.6,1.7,1C811.6,219,811.8,219.5,811.8,220.1z"/>
		<path fill="#CECECE" d="M744.3,231.9c0,0.3-0.1,0.5-0.3,0.6c-0.1,0.1-0.4,0.3-0.6,0.3c-0.3,0-0.5-0.1-0.6-0.3
			c-0.1-0.1-0.3-0.4-0.3-0.6s0.1-0.5,0.3-0.6c0.1-0.1,0.4-0.3,0.6-0.3c0.3,0,0.5,0.1,0.6,0.3C744.2,231.4,744.3,231.6,744.3,231.9z
			 M744,244h-1.4v-9h1.4V244z"/>
		<path fill="#CECECE" d="M754.4,244H753v-5.1c0-1.9-0.6-2.8-2-2.8c-0.8,0-1.3,0.3-1.8,0.8s-0.8,1.3-0.8,2v5.1H747v-9h1.4v1.5l0,0
			c0.6-1.2,1.7-1.7,2.9-1.7c1,0,1.8,0.4,2.3,1s0.8,1.5,0.8,2.7V244L754.4,244z"/>
		<path fill="#CECECE" d="M763.1,243.7c-0.6,0.4-1.5,0.6-2.4,0.6c-1.3,0-2.3-0.4-3.1-1.3c-0.8-0.8-1.2-1.9-1.2-3.2
			c0-1.4,0.4-2.7,1.3-3.6s1.9-1.4,3.5-1.4c0.8,0,1.5,0.1,2,0.5v1.4c-0.6-0.5-1.4-0.6-2.2-0.6c-0.9,0-1.7,0.3-2.2,0.9
			c-0.6,0.6-0.9,1.5-0.9,2.6c0,1,0.3,1.9,0.8,2.4c0.5,0.6,1.3,0.9,2.2,0.9c0.8,0,1.5-0.3,2.2-0.8L763.1,243.7L763.1,243.7z"/>
		<path fill="#CECECE" d="M766.7,244h-1.4v-13.3h1.4V244z"/>
		<path fill="#CECECE" d="M776.9,244h-1.4v-1.4l0,0c-0.6,1.2-1.5,1.7-2.8,1.7c-2.2,0-3.2-1.3-3.2-3.8v-5.4h1.4v5.1
			c0,1.9,0.8,2.8,2.2,2.8c0.6,0,1.3-0.3,1.7-0.8c0.5-0.5,0.6-1.2,0.6-2v-5.1h1.4v9L776.9,244L776.9,244z"/>
		<path fill="#CECECE" d="M787.4,244H786v-1.5l0,0c-0.6,1.2-1.7,1.8-3.1,1.8c-1.2,0-2-0.4-2.7-1.2c-0.6-0.8-1-1.9-1-3.3
			c0-1.5,0.4-2.7,1.2-3.6s1.8-1.3,2.9-1.3c1.3,0,2.2,0.5,2.7,1.4l0,0v-5.5h1.4L787.4,244L787.4,244z M785.9,240v-1.3
			c0-0.8-0.3-1.3-0.6-1.8c-0.5-0.5-1.2-0.8-1.8-0.8c-0.9,0-1.5,0.3-2,0.9c-0.5,0.6-0.8,1.5-0.8,2.7c0,1,0.3,1.9,0.8,2.6
			c0.5,0.5,1.2,0.8,1.9,0.8s1.5-0.3,2-0.9C785.6,241.6,785.9,240.8,785.9,240z"/>
		<path fill="#CECECE" d="M797.4,240h-6.3c0,1,0.3,1.8,0.8,2.3s1.3,0.8,2.2,0.8c1,0,1.9-0.4,2.8-1v1.3c-0.8,0.6-1.8,0.9-3.1,0.9
			s-2.2-0.4-2.9-1.2c-0.8-0.8-1.2-2-1.2-3.5s0.4-2.6,1.3-3.5c0.8-0.8,1.8-1.3,2.8-1.3c1.2,0,2.2,0.4,2.8,1.3
			c0.6,0.8,0.9,1.8,0.9,3.1L797.4,240L797.4,240L797.4,240z M795.8,238.7c0-0.8-0.3-1.4-0.6-1.9c-0.4-0.5-0.9-0.8-1.7-0.8
			c-0.6,0-1.3,0.3-1.7,0.8c-0.5,0.5-0.8,1.2-0.9,1.9H795.8z"/>
		<path fill="#CECECE" d="M807.1,244h-1.5v-1.5l0,0c-0.6,1.2-1.7,1.8-3.1,1.8c-1.2,0-2-0.4-2.7-1.2c-0.6-0.8-1-1.9-1-3.3
			c0-1.5,0.4-2.7,1.2-3.6s1.8-1.3,2.9-1.3c1.3,0,2.2,0.5,2.7,1.4l0,0v-5.5h1.4L807.1,244L807.1,244z M805.6,240v-1.3
			c0-0.8-0.3-1.3-0.6-1.8c-0.5-0.5-1.2-0.8-1.8-0.8c-0.9,0-1.5,0.3-2,0.9c-0.5,0.6-0.8,1.5-0.8,2.7c0,1,0.3,1.9,0.8,2.6
			c0.5,0.5,1.2,0.8,1.9,0.8s1.5-0.3,2-0.9C805.3,241.6,805.6,240.8,805.6,240z"/>
	</g>
</g>
<g>
	<rect x="300.7" y="11" fill="#FFFFFF" width="15.8" height="29.7"/>
	<rect x="301.1" y="11.6" fill="none" width="15" height="29"/>
	<polygon fill="none" points="301.1,14.7 313,14.7 313,16.5 301.1,16.5 301.1,18.7 313,18.7 313,20.6 301.1,20.6 301.1,22.8 
		313,22.8 313,24.6 301.1,24.6 301.1,26.8 313,26.8 313,28.6 301.1,28.6 301.1,30.9 313,30.9 313,32.7 301.1,32.7 301.1,35 313,35 
		313,36.7 301.1,36.7 301.1,40.4 316.1,40.4 316.1,11.6 301.1,11.6 	"/>
	<path fill="#28397F" d="M316.1,10.1h-15v-4l-23.6,4v31.6l23.6,4v-4h15c0.8,0,1.3-0.7,1.3-1.3V11.6
		C317.4,10.8,316.9,10.1,316.1,10.1z M316.1,40.4h-15v-3.7H313V35h-11.9v-2.2H313V31h-11.9v-2.2H313V27h-11.9v-2.3H313v-1.8h-11.9
		v-2.2H313v-1.8h-11.9v-2.2H313v-1.8h-11.9v-3.1h15V40.4z"/>
	<g>
		<g enable-background="new    ">
			<g>
				<path fill="#FFFFFF" d="M295.5,19l-2.6,0.1l-1.5,8.8c0,0.1,0,0.3,0,0.4s0,0.3,0,0.4s0,0.3,0,0.4s0,0.3,0,0.4l0,0
					c0-0.1,0-0.3,0-0.4s0-0.3,0-0.4s0-0.3,0-0.3c0-0.1,0-0.1,0-0.3l-2.1-8.7l-2.5,0.1l-1.7,8.2c0,0.1,0,0.3-0.1,0.4
					c0,0.1,0,0.3,0,0.4s0,0.3,0,0.4s0,0.3,0,0.4l0,0c0-0.1,0-0.3,0-0.4s0-0.3,0-0.4s0-0.3,0-0.3c0-0.1,0-0.1,0-0.3l-1.3-8l-2.2,0.1
					l2.3,11.7l2.5,0.1L288,24c0-0.1,0-0.3,0-0.3c0-0.1,0-0.3,0-0.4s0-0.3,0-0.4s0-0.3,0-0.4l0,0c0,0.1,0,0.3,0,0.4s0,0.3,0,0.4
					s0,0.3,0,0.4s0,0.3,0,0.3l1.7,8.1l2.6,0.1L295.5,19"/>
			</g>
		</g>
	</g>
</g>
<g>
	<g>
		<path fill="#05733C" d="M379.7,10.1h-14.9v-4l-23.5,4v31.6l23.5,4v-4.6h14.9c0.8,0,1.3-0.7,1.3-1.3V11.6
			C381,10.8,380.5,10.1,379.7,10.1z M379.7,40H365v-2.7h3.5v-3.1H365v-1.9h3.5v-3.1H365v-1.9h3.5v-3.1H365v-1.8h3.5v-3.1H365v-1.8
			h3.5v-3.3H365v-2.6h14.7V40z"/>
		<rect x="370.2" y="14.2" fill="#05733C" width="6.3" height="3.1"/>
		<rect x="370.2" y="19.1" fill="#05733C" width="6.3" height="3.1"/>
		<rect x="370.2" y="34.1" fill="#05733C" width="6.3" height="3.1"/>
		<rect x="370.2" y="24.2" fill="#05733C" width="6.3" height="3.1"/>
		<rect x="370.2" y="29.2" fill="#05733C" width="6.3" height="3.1"/>
	</g>
	<path fill="#FFFFFF" d="M358,18.3l-3.1,0.1l-1.9,4.5c0,0.1-0.1,0.3-0.1,0.4s-0.1,0.3-0.1,0.4s0,0.3-0.1,0.3c0,0.1,0,0.1,0,0.3l0,0
		c0-0.1,0-0.3-0.1-0.4c0-0.1,0-0.3-0.1-0.3c0-0.1,0-0.3-0.1-0.3c0-0.1,0-0.1-0.1-0.3l-1.6-4.2l-3,0.1l3.1,6.9l-3.4,6.8l2.9,0.1
		l2-4.4c0-0.1,0-0.3,0.1-0.3c0-0.1,0-0.1,0.1-0.3c0-0.1,0-0.1,0-0.3s0-0.1,0-0.1l0,0c0,0.1,0,0.3,0,0.4s0,0.1,0,0.3s0,0.1,0,0.3v0.1
		l2.1,4.8l3.3,0.3l-3.8-7.6L358,18.3"/>
</g>
<g>
	<rect x="428.3" y="11.6" fill="#FFFFFF" width="15.7" height="28.3"/>
	<g>
		<path fill="#DC5C26" d="M443.5,10.6h-14.9V6l-23.5,4v31.6l23.5,4v-5h14.9c0.8,0,1.3-0.7,1.3-1.3V12
			C444.8,11.2,444.2,10.6,443.5,10.6z M443.4,39.5h-14.7v-3.7h10.7V34h-10.7v-2.2h10.7V30h-10.7v-2.7c0.7,0.3,1.4,0.4,2.2,0.4
			c3.3,0,5.9-2.6,5.9-5.9h-6v-5.7c-0.8,0-1.4,0.1-2.1,0.4v-4.4h14.7V39.5L443.4,39.5z"/>
		<path fill="#DC5C26" d="M431.6,15.1V21h6C437.6,17.7,434.8,15.1,431.6,15.1z"/>
	</g>
	<path fill="#FFFFFF" d="M415.1,25.3V21l0.8-0.1c0.4,0,0.7,0,0.9,0.1c0.2,0.1,0.5,0.3,0.7,0.4c0.1,0.1,0.3,0.4,0.4,0.7
		c0.1,0.3,0.1,0.7,0.1,1s0,0.8-0.1,1c-0.1,0.3-0.3,0.5-0.4,0.8s-0.4,0.4-0.7,0.4c-0.3,0.1-0.5,0.1-0.9,0.1L415.1,25.3 M416.4,18.3
		l-4,0.1v14.5l2.7,0.3v-5.3l1,0.1c0.4,0,0.7,0,1-0.1c0.4,0,0.7-0.1,0.9-0.3c0.2-0.2,0.5-0.3,0.8-0.4s0.5-0.4,0.8-0.7
		c0.3-0.3,0.4-0.5,0.5-0.8s0.3-0.5,0.4-0.9c0.1-0.3,0.1-0.7,0.3-0.9c0-0.4,0.1-0.7,0.1-1c0-0.8-0.1-1.6-0.3-2.1
		c-0.3-0.7-0.5-1-0.9-1.4s-0.9-0.7-1.4-0.8C417.8,18.3,417.3,18.3,416.4,18.3"/>
</g>
<g>
	<polygon fill="#FFFFFF" points="491.9,41 491.9,11.4 504.3,11.4 504.3,13.1 507.4,13.1 507.4,38.4 504.3,38.4 504.3,41 	"/>
	<g>
		<path fill="#682A7A" d="M508.4,14c0-1-0.7-1.8-1.7-1.8h-1.4v-0.4c0-0.8-0.5-1.3-1.3-1.3h-11.7v-4l-23.5,4v31.6l23.5,4v-4H504
			c0.8,0,1.3-0.7,1.3-1.3v-1.3h1.4c1,0,1.7-0.8,1.7-1.8v-6.4c0-0.4-0.1-0.8-0.4-1.2c0.3-0.3,0.4-0.7,0.4-1.2v-6.4
			c0-0.4-0.1-0.8-0.4-1.2c0.3-0.3,0.4-0.7,0.4-1.2C508.4,20.2,508.4,14,508.4,14z M503.9,40.6h-11.6v-3.7h8.5v-1.8h-8.5v-2.2h8.5
			v-1.8h-8.5v-2.2h8.5v-1.8h-8.5v-2.2h8.5v-1.8h-8.5v-2.2h8.5v-1.8h-8.5v-2.2h8.5v-1.8h-8.5V12h11.6v1.7h2.9c0.3,0,0.4,0.3,0.4,0.4
			v6.3c0,0.3-0.1,0.4-0.4,0.4l0,0h-2.6H504v1.3v7.2v1v7.2v3.1H503.9z M507,37.5c0,0.3-0.1,0.4-0.4,0.4h-1.4v-7.2h1.4
			c0.3,0,0.4,0.3,0.4,0.4V37.5z M507,28.8c0,0.3-0.1,0.4-0.4,0.4h-1.4V22h1.3c0.3,0,0.4,0.3,0.4,0.4L507,28.8L507,28.8z"/>
	</g>
	<path fill="#FFFFFF" d="M485.5,18.4l-2.7,0.1v8.1c0,0.3,0,0.7,0,0.9c0,0.3,0,0.3,0,0.4s0,0.3,0,0.4s0,0.3,0,0.4l0,0
		c0-0.1-0.1-0.3-0.1-0.4s-0.1-0.3-0.1-0.3c0-0.1-0.1-0.1-0.1-0.3c0-0.1-0.1-0.1-0.1-0.3l-4.7-8.6l-2.7,0.1v13.7l2.5,0.1V25
		c0-0.3,0-0.5,0-0.7c0-0.3,0-0.4,0-0.7c0-0.1,0-0.4,0-0.5s0-0.3,0-0.4l0,0c0,0.1,0,0.1,0.1,0.3c0,0.1,0.1,0.1,0.1,0.3
		c0,0.1,0.1,0.3,0.1,0.3c0,0.1,0.1,0.3,0.1,0.4l5,9.1l2.9,0.1L485.5,18.4"/>
</g>
<g>
	<path fill="#CECECE" d="M441.1,81c-0.3-3.1-6.7-3.8-10.4-3.8c-3.8,0-10.2,0.9-10.5,4v0.1v19.6v0.1c0.1,3.1,6.7,4,10.5,4
		s10.1-0.8,10.4-3.8c0-0.1,0-0.1,0-0.3V81.3V81z M439.9,101.2c0,1.4-4.1,2.6-9.2,2.6s-9.2-1.2-9.2-2.6V96c0,1.4,4.1,2.6,9.2,2.6
		c4.5,0,8.2-0.9,9-2c0.1-0.1,0.1,0,0.3,0L439.9,101.2L439.9,101.2z M439.9,94.6c0,1.4-4.1,2.6-9.2,2.6s-9.2-1.2-9.2-2.6v-5.2
		c0,1.4,4.1,2.6,9.2,2.6c4.5,0,8.2-0.9,9-2c0.1-0.1,0.1,0,0.3,0L439.9,94.6L439.9,94.6z M439.9,88.1c0,1.4-4.1,2.6-9.2,2.6
		s-9.2-1.2-9.2-2.6v-5.2c0,1.4,4.1,2.6,9.2,2.6c4.5,0,8.2-0.9,9-2c0.1-0.1,0.1,0,0.3,0L439.9,88.1L439.9,88.1z M430.7,84.2
		c-5.1,0-9.2-1.3-9.2-2.8s4.1-2.8,9.2-2.8s9.2,1.3,9.2,2.8C439.9,83,435.8,84.2,430.7,84.2z"/>
	<g>
		<path fill="#CECECE" d="M415,87.9c0-0.1,0-0.1,0-0.3c0-0.1,0-0.3,0-0.3c0-0.1,0-0.3,0-0.4l0,0c0,0.1,0,0.3,0,0.3
			c0,0.1,0,0.3,0,0.3C415,87.6,415,87.8,415,87.9C415,87.9,415,87.9,415,87.9l-1.3,4.6h2.7l-1.2-4.5C415,88.1,415,88.1,415,87.9z"/>
		<path fill="#CECECE" d="M405.1,77.2v28.7l21.2,3.7v-36L405.1,77.2z M417.5,98.2l-0.8-3.1l-3.8-0.1l-0.8,2.8l-2.3-0.1l3.6-12.9
			l2.8-0.1l4.1,13.7L417.5,98.2z"/>
	</g>
</g>
<g>
	<path fill="none" d="M369.8,77.4L369.8,77.4l5.4,3.1l0,0c0.5,0.3,1,0.5,1,1.2c0,0.8,0,15.6,0,15.6h3.1V76.7H370L369.8,77.4z"/>
	<polygon fill="none" points="371.7,83.8 371.7,90.1 364.3,90.1 364.3,92.4 371.7,92.4 371.7,94.1 364.3,94.1 364.3,96.3 
		371.7,96.3 371.7,98.1 364.3,98.1 364.3,100.2 371.7,100.2 371.7,102.1 364.3,102.1 364.3,104.6 374.6,104.6 374.6,81.6 
		364.3,81.6 364.3,83.8 	"/>
	<g>
		<rect x="364.3" y="100.2" fill="#CECECE" width="7.4" height="1.8"/>
		<rect x="364.3" y="96.3" fill="#CECECE" width="7.4" height="1.8"/>
		<rect x="364.3" y="92.4" fill="#CECECE" width="7.4" height="1.8"/>
		<path fill="#CECECE" d="M379,75.3h-9.5c-1,0-1.9,0.9-1.9,2v2.8h-3.1v1.3h10.2v23h-10.2v1.4h10c1.3,0,2-0.5,2-1.8v-5.4h3.1
			c1.3,0,1.3-0.5,1.3-1.8V77.1C380.7,76,380.2,75.3,379,75.3z M379.4,97.1h-3.1c0,0,0-14.8,0-15.6c0-0.5-0.6-0.9-1-1.2l0,0l-5.4-3.1
			l0,0v-0.6h9.5V97.1z"/>
		<rect x="364.3" y="83.8" fill="#CECECE" width="7.4" height="6.1"/>
		<g>
			<g>
				<path fill="#D1D2D2" d="M351.9,90.9c0.4,0,0.6,0,0.9-0.1s0.5-0.3,0.6-0.4c0.1-0.3,0.3-0.4,0.4-0.8c0.1-0.3,0.1-0.6,0.1-1
					s0-0.8-0.1-1c-0.1-0.3-0.3-0.5-0.4-0.6s-0.4-0.3-0.6-0.4s-0.5-0.1-0.9-0.1l-0.8,0.1v4.2l0,0L351.9,90.9z"/>
				<path fill="#CECECE" d="M351.9,90.9c0.4,0,0.6,0,0.9-0.1s0.5-0.3,0.6-0.4c0.1-0.3,0.3-0.4,0.4-0.8c0.1-0.3,0.1-0.6,0.1-1
					s0-0.8-0.1-1c-0.1-0.3-0.3-0.5-0.4-0.6s-0.4-0.3-0.6-0.4s-0.5-0.1-0.9-0.1l-0.8,0.1v4.2l0,0L351.9,90.9z"/>
			</g>
			<g>
				<g>
					<path fill="#D1D2D2" d="M341.3,107.1l23,4v-4.9v-1.4v-2.7v-1.8v-2.2v-1.8v-2.2v-1.8v-2.2V84v-2.2v-1.3v-8.4l-23,4
						C341.3,76,341.3,107.1,341.3,107.1z M352.4,84c0.9,0,1.3,0,1.9,0.1c0.5,0.1,1,0.4,1.4,0.8s0.6,0.9,0.9,1.4
						c0.3,0.6,0.3,1.3,0.3,2c0,0.4,0,0.8-0.1,1c0,0.4-0.1,0.6-0.3,0.9c-0.1,0.3-0.3,0.6-0.4,0.9s-0.4,0.5-0.5,0.8
						c-0.3,0.3-0.5,0.4-0.8,0.6c-0.3,0.1-0.5,0.4-0.8,0.4c-0.3,0.1-0.6,0.3-0.9,0.3c-0.4,0-0.6,0.1-1,0.1l-1-0.1v5.2l-2.7-0.3V84
						H352.4z"/>
				</g>
				<g>
					<path fill="#CECECE" d="M341.3,107.1l23,4v-4.9v-1.4v-2.7v-1.8v-2.2v-1.8v-2.2v-1.8v-2.2V84v-2.2v-1.3v-8.4l-23,4
						C341.3,76,341.3,107.1,341.3,107.1z M352.4,84c0.9,0,1.3,0,1.9,0.1c0.5,0.1,1,0.4,1.4,0.8s0.6,0.9,0.9,1.4
						c0.3,0.6,0.3,1.3,0.3,2c0,0.4,0,0.8-0.1,1c0,0.4-0.1,0.6-0.3,0.9c-0.1,0.3-0.3,0.6-0.4,0.9s-0.4,0.5-0.5,0.8
						c-0.3,0.3-0.5,0.4-0.8,0.6c-0.3,0.1-0.5,0.4-0.8,0.4c-0.3,0.1-0.6,0.3-0.9,0.3c-0.4,0-0.6,0.1-1,0.1l-1-0.1v5.2l-2.7-0.3V84
						H352.4z"/>
				</g>
			</g>
		</g>
	</g>
</g>
</svg>
