<?xml version="1.0" encoding="utf-8"?>
<!-- Generator: Adobe Illustrator 18.1.1, SVG Export Plug-In . SVG Version: 6.00 Build 0)  -->
<svg version="1.1" id="Layer_1" xmlns="http://www.w3.org/2000/svg" xmlns:xlink="http://www.w3.org/1999/xlink" x="0px" y="0px"
	 viewBox="0 0 1100 275" enable-background="new 0 0 1100 275" xml:space="preserve">
<g>
	<path fill="#E84124" d="M572.1,93.7h-1.4V82.6c-0.1,0.1-0.3,0.3-0.5,0.4s-0.5,0.3-0.8,0.4s-0.5,0.3-0.9,0.4
		c-0.3,0.1-0.7,0.3-0.9,0.3v-1.4c0.3-0.1,0.7-0.3,1-0.4s0.7-0.3,1-0.5c0.4-0.1,0.7-0.4,1-0.7c0.3-0.3,0.5-0.4,0.8-0.7h0.5v13.3
		L572.1,93.7L572.1,93.7z"/>
	<path fill="#E84124" d="M581.6,89.2h-4.8V88h4.8V89.2z"/>
	<path fill="#E84124" d="M591.5,84.5l-4.2,10.6c-0.8,1.8-1.8,2.9-3.1,2.9c-0.4,0-0.7,0-0.9-0.1v-1.3c0.3,0.1,0.7,0.1,0.9,0.1
		c0.8,0,1.3-0.4,1.7-1.3l0.8-1.7l-3.5-9.1h1.6l2.5,7c0,0.1,0.1,0.3,0.1,0.7l0,0c0-0.1,0.1-0.4,0.1-0.7l2.6-7
		C590.1,84.5,591.5,84.5,591.5,84.5z"/>
	<path fill="#E84124" d="M600.4,89.5H594c0,1,0.3,1.8,0.8,2.3s1.3,0.8,2.2,0.8c1,0,2-0.4,2.9-1V93c-0.8,0.5-1.8,0.9-3.1,0.9
		s-2.3-0.4-3-1.3c-0.8-0.8-1-2-1-3.5c0-1.4,0.4-2.6,1.2-3.5s1.8-1.3,3-1.3s2.1,0.4,2.7,1.2s1,1.8,1,3.3v0.8
		C600.7,89.5,600.4,89.5,600.4,89.5z M598.8,88.3c0-0.8-0.3-1.6-0.7-2c-0.4-0.5-0.9-0.7-1.7-0.7c-0.7,0-1.3,0.3-1.7,0.8
		c-0.5,0.5-0.8,1.2-0.9,2L598.8,88.3L598.8,88.3z"/>
	<path fill="#E84124" d="M609.2,93.7h-1.4v-1.4l0,0c-0.7,1-1.6,1.7-2.9,1.7c-0.9,0-1.6-0.3-2.1-0.8s-0.8-1.2-0.8-2c0-1.7,1-2.7,3-3
		l2.7-0.4c0-1.6-0.7-2.3-1.8-2.3c-1,0-2.1,0.4-3,1.2v-1.4c0.9-0.5,2-0.9,3.1-0.9c2.1,0,3.3,1.2,3.3,3.4L609.2,93.7L609.2,93.7z
		 M607.7,89.1l-2.2,0.3c-0.7,0.1-1.2,0.3-1.6,0.5s-0.5,0.7-0.5,1.3c0,0.4,0.1,0.8,0.5,1c0.3,0.3,0.8,0.4,1.3,0.4
		c0.8,0,1.3-0.3,1.8-0.8s0.7-1.2,0.7-2V89.1L607.7,89.1z"/>
	<path fill="#E84124" d="M616.7,86.1c-0.3-0.3-0.7-0.3-1-0.3c-0.7,0-1.2,0.3-1.6,0.9s-0.7,1.4-0.7,2.3v4.7H612v-9.1h1.4v1.8l0,0
		c0.3-0.7,0.5-1.2,0.9-1.6s0.9-0.5,1.4-0.5c0.4,0,0.7,0,0.9,0.1L616.7,86.1L616.7,86.1z"/>
	<path fill="#E84124" d="M543,115.3v-1.6c0.8,0.7,1.7,0.9,2.6,0.9c1.3,0,2-0.4,2-1.3c0-0.3,0-0.4-0.1-0.7c-0.1-0.1-0.3-0.3-0.4-0.4
		c-0.1-0.1-0.4-0.3-0.7-0.4s-0.5-0.3-0.8-0.4c-0.4-0.1-0.8-0.3-1-0.5c-0.3-0.1-0.5-0.4-0.8-0.5c-0.3-0.3-0.4-0.4-0.5-0.7
		s-0.1-0.5-0.1-0.9s0.1-0.8,0.3-1.2c0.3-0.4,0.5-0.7,0.8-0.8c0.4-0.3,0.7-0.4,1.2-0.5s0.9-0.1,1.3-0.1c0.8,0,1.4,0.1,2.1,0.4v1.4
		c-0.7-0.4-1.4-0.7-2.3-0.7c-0.3,0-0.5,0-0.8,0.1c-0.3,0-0.4,0.1-0.5,0.3s-0.3,0.3-0.4,0.4s-0.1,0.4-0.1,0.5c0,0.3,0,0.4,0.1,0.7
		c0.1,0.1,0.3,0.3,0.4,0.4c0.1,0.1,0.4,0.3,0.7,0.4s0.5,0.3,0.8,0.4c0.4,0.1,0.8,0.3,1,0.5c0.3,0.1,0.7,0.4,0.8,0.5
		c0.3,0.3,0.4,0.4,0.5,0.7c0.1,0.3,0.1,0.5,0.1,0.9s-0.1,0.8-0.3,1.2c-0.3,0.4-0.5,0.7-0.8,0.8c-0.3,0.1-0.7,0.4-1.2,0.5
		s-0.9,0.1-1.3,0.1C544.6,115.8,543.8,115.7,543,115.3z"/>
	<path fill="#E84124" d="M558.8,115.6h-1.4v-1.4l0,0c-0.7,1-1.6,1.7-2.9,1.7c-2.2,0-3.3-1.3-3.3-3.9v-5.5h1.4v5.2
		c0,2,0.8,2.9,2.2,2.9c0.7,0,1.3-0.3,1.7-0.8c0.5-0.5,0.7-1.2,0.7-2.1v-5.2h1.4v9.1C558.7,115.6,558.8,115.6,558.8,115.6z"/>
	<path fill="#E84124" d="M563.2,114.3L563.2,114.3v1.3h-1.4v-13.4h1.4v6l0,0c0.8-1.2,1.8-1.8,3.1-1.8c1.2,0,2.1,0.4,2.7,1.2
		c0.7,0.8,1,2,1,3.3c0,1.6-0.4,2.7-1.2,3.7s-1.7,1.4-3,1.4C564.8,115.8,563.9,115.3,563.2,114.3z M563.1,110.6v1.3
		c0,0.8,0.3,1.4,0.8,2c0.5,0.5,1.2,0.8,1.8,0.8c0.9,0,1.6-0.4,2.1-1c0.5-0.7,0.8-1.6,0.8-2.9c0-1-0.3-1.8-0.7-2.3s-1-0.9-2-0.9
		c-0.9,0-1.6,0.3-2.1,0.9S563.1,109.7,563.1,110.6z"/>
	<path fill="#E84124" d="M571.8,115.3v-1.6c0.8,0.7,1.7,0.9,2.6,0.9c1.3,0,2-0.4,2-1.3c0-0.3,0-0.4-0.1-0.7
		c-0.1-0.1-0.3-0.3-0.4-0.4c-0.1-0.1-0.4-0.3-0.7-0.4s-0.5-0.3-0.8-0.4c-0.4-0.1-0.8-0.3-1-0.5c-0.3-0.1-0.5-0.4-0.8-0.5
		c-0.3-0.3-0.4-0.4-0.5-0.7s-0.1-0.5-0.1-0.9s0.1-0.8,0.3-1.2c0.3-0.4,0.5-0.7,0.8-0.8c0.4-0.3,0.7-0.4,1.2-0.5s0.9-0.1,1.3-0.1
		c0.8,0,1.4,0.1,2.1,0.4v1.4c-0.7-0.4-1.4-0.7-2.3-0.7c-0.3,0-0.5,0-0.8,0.1c-0.3,0-0.4,0.1-0.5,0.3c-0.1,0.1-0.3,0.3-0.4,0.4
		s-0.1,0.4-0.1,0.5c0,0.3,0,0.4,0.1,0.7c0.1,0.1,0.3,0.3,0.4,0.4c0.1,0.1,0.4,0.3,0.7,0.4s0.5,0.3,0.8,0.4c0.4,0.1,0.8,0.3,1,0.5
		c0.3,0.1,0.7,0.4,0.8,0.5c0.3,0.3,0.4,0.4,0.5,0.7s0.1,0.5,0.1,0.9s-0.1,0.8-0.3,1.2c-0.3,0.4-0.5,0.7-0.8,0.8
		c-0.3,0.1-0.7,0.4-1.2,0.5s-0.9,0.1-1.3,0.1C573.4,115.8,572.6,115.7,571.8,115.3z"/>
	<path fill="#E84124" d="M586.5,115.2c-0.7,0.4-1.6,0.7-2.5,0.7c-1.3,0-2.3-0.4-3.1-1.3c-0.8-0.8-1.2-2-1.2-3.3
		c0-1.6,0.4-2.7,1.3-3.7s2-1.3,3.4-1.3c0.8,0,1.6,0.1,2.1,0.4v1.4c-0.7-0.5-1.4-0.7-2.2-0.7c-0.9,0-1.7,0.4-2.3,1
		c-0.7,0.7-0.9,1.6-0.9,2.6s0.3,2,0.8,2.5s1.3,0.9,2.2,0.9c0.8,0,1.6-0.3,2.2-0.8v1.4h0.2V115.2z"/>
	<path fill="#E84124" d="M593.4,108c-0.3-0.3-0.7-0.3-1-0.3c-0.7,0-1.2,0.3-1.6,0.9s-0.7,1.4-0.7,2.3v4.7h-1.4v-9.1h1.4v1.8l0,0
		c0.3-0.7,0.5-1.2,0.9-1.6s0.9-0.5,1.4-0.5c0.4,0,0.7,0,0.9,0.1L593.4,108L593.4,108z"/>
	<path fill="#E84124" d="M595.7,104.2c-0.3,0-0.5-0.1-0.7-0.3s-0.3-0.4-0.3-0.7s0.1-0.5,0.3-0.7s0.4-0.3,0.7-0.3s0.5,0.1,0.7,0.3
		s0.3,0.4,0.3,0.7s-0.1,0.5-0.3,0.7S596,104.2,595.7,104.2z M596.5,115.6h-1.4v-9.1h1.4V115.6z"/>
	<path fill="#E84124" d="M600.9,114.3L600.9,114.3v5.5h-1.4v-13.3h1.4v1.7l0,0c0.8-1.2,1.8-1.8,3.1-1.8c1.2,0,2.1,0.4,2.7,1.2
		c0.7,0.8,1,2,1,3.3c0,1.6-0.4,2.7-1.2,3.7c-0.8,0.9-1.7,1.4-3,1.4C602.5,115.8,601.6,115.3,600.9,114.3z M600.8,110.6v1.3
		c0,0.8,0.3,1.4,0.8,2c0.5,0.5,1.2,0.8,1.8,0.8c0.9,0,1.6-0.4,2.1-1c0.5-0.7,0.8-1.6,0.8-2.9c0-1-0.3-1.8-0.7-2.3s-1-0.9-2-0.9
		c-0.9,0-1.6,0.3-2.1,0.9S600.8,109.7,600.8,110.6z"/>
	<path fill="#E84124" d="M614.4,115.6c-0.4,0.1-0.8,0.3-1.3,0.3c-1.6,0-2.3-0.9-2.3-2.7v-5.3h-1.6v-1.3h1.6v-2.2l1.4-0.5v2.7h2.3
		v1.3h-2.3v5.1c0,0.7,0.1,1,0.3,1.3c0.1,0.3,0.5,0.4,1,0.4c0.4,0,0.7-0.1,0.9-0.3L614.4,115.6L614.4,115.6z"/>
	<path fill="#E84124" d="M617.1,104.2c-0.3,0-0.5-0.1-0.7-0.3c-0.1-0.1-0.3-0.4-0.3-0.7s0.1-0.5,0.3-0.7c0.1-0.1,0.4-0.3,0.7-0.3
		s0.5,0.1,0.7,0.3s0.3,0.4,0.3,0.7s-0.1,0.5-0.3,0.7S617.4,104.2,617.1,104.2z M617.8,115.6h-1.4v-9.1h1.4V115.6z"/>
	<path fill="#E84124" d="M624.5,115.8c-1.3,0-2.5-0.4-3.3-1.3s-1.2-2-1.2-3.4c0-1.6,0.4-2.7,1.3-3.7s2-1.3,3.4-1.3
		c1.3,0,2.5,0.4,3.1,1.3c0.8,0.8,1.2,2,1.2,3.5c0,1.4-0.4,2.6-1.2,3.5C627,115.5,626,115.8,624.5,115.8z M624.7,107.5
		c-0.9,0-1.7,0.3-2.2,0.9c-0.5,0.7-0.8,1.6-0.8,2.6s0.3,2,0.8,2.6s1.3,0.9,2.2,0.9s1.7-0.3,2.2-0.9s0.8-1.4,0.8-2.6s-0.3-2-0.8-2.6
		S625.6,107.5,624.7,107.5z"/>
	<path fill="#E84124" d="M639,115.6h-1.4v-5.2c0-2-0.7-2.9-2.1-2.9c-0.8,0-1.3,0.3-1.8,0.8s-0.7,1.3-0.7,2.1v5.2h-1.4v-9.1h1.4v1.6
		l0,0c0.7-1.2,1.7-1.7,3-1.7c1,0,1.8,0.3,2.3,0.9c0.5,0.7,0.8,1.6,0.8,2.7L639,115.6L639,115.6z"/>
</g>
<g>
	<g>
		<g>
			<path fill="#383A37" d="M852.9,146.4c0,0.7-0.1,1.2-0.3,1.7c-0.1,0.5-0.5,0.9-0.8,1.3c-0.3,0.4-0.8,0.7-1.3,0.9s-1,0.3-1.6,0.3
				c-0.7,0-1.2-0.1-1.7-0.4c-0.5-0.3-0.9-0.7-1.3-1.2c-0.4-0.5-0.7-1.2-0.8-1.8c-0.1-0.7-0.3-1.6-0.3-2.5c0-1.2,0.1-2.1,0.4-3
				c0.3-0.9,0.7-1.7,1-2.3c0.4-0.7,1-1.2,1.7-1.4c0.7-0.3,1.3-0.5,2.1-0.5c0.9,0,1.6,0.1,2.1,0.4v1.4c-0.7-0.4-1.3-0.5-2.1-0.5
				c-0.5,0-1,0.1-1.6,0.4s-0.9,0.7-1.2,1c-0.4,0.5-0.5,1-0.8,1.7c-0.1,0.7-0.3,1.4-0.3,2.2l0,0c0.7-1,1.6-1.6,2.9-1.6
				c0.5,0,1,0.1,1.6,0.3c0.4,0.1,0.8,0.5,1.2,0.8c0.3,0.4,0.5,0.8,0.8,1.3S852.9,145.8,852.9,146.4z M851.5,146.6
				c0-0.4,0-0.8-0.1-1.2s-0.3-0.7-0.5-0.9c-0.3-0.3-0.5-0.4-0.8-0.5s-0.7-0.3-1-0.3s-0.7,0.1-1,0.3c-0.4,0.1-0.5,0.3-0.8,0.5
				c-0.3,0.3-0.4,0.5-0.5,0.8s-0.1,0.7-0.1,1c0,0.4,0,0.9,0.1,1.2c0.1,0.4,0.3,0.8,0.5,1c0.3,0.3,0.5,0.5,0.8,0.7
				c0.3,0.1,0.7,0.3,1,0.3s0.7-0.1,1-0.3c0.3-0.1,0.5-0.4,0.8-0.5s0.4-0.5,0.5-0.9C851.4,147.4,851.5,147,851.5,146.6z"/>
			<path fill="#383A37" d="M862.7,144c0,1-0.1,2-0.3,2.9c-0.1,0.8-0.5,1.6-0.8,2.1c-0.4,0.5-0.8,1-1.3,1.3s-1.2,0.4-1.8,0.4
				c-0.7,0-1.2-0.1-1.7-0.4c-0.5-0.3-0.9-0.7-1.3-1.2c-0.4-0.5-0.7-1.2-0.8-2s-0.3-1.7-0.3-2.7c0-1.2,0.1-2.1,0.3-3
				c0.1-0.9,0.5-1.6,0.8-2.2c0.4-0.5,0.8-1,1.3-1.3s1.2-0.4,1.8-0.4C861.4,137.5,862.7,139.6,862.7,144z M861.3,144.2
				c0-3.7-0.9-5.5-2.6-5.5c-1.8,0-2.7,1.8-2.7,5.6c0,3.4,0.9,5.2,2.7,5.2C860.4,149.4,861.3,147.7,861.3,144.2z"/>
			<path fill="#383A37" d="M882.9,150.4h-1.4v-5.2c0-1-0.1-1.7-0.5-2.2c-0.3-0.4-0.8-0.7-1.6-0.7c-0.7,0-1.2,0.3-1.6,0.9
				c-0.4,0.5-0.7,1.3-0.7,2.1v5.2h-1.4V145c0-1.8-0.7-2.7-2.1-2.7c-0.7,0-1.2,0.3-1.6,0.8s-0.7,1.2-0.7,2.1v5.2H870v-9.1h1.4v1.4
				l0,0c0.7-1,1.6-1.7,2.9-1.7c0.7,0,1.2,0.1,1.7,0.5s0.8,0.8,0.9,1.3c0.7-1.3,1.7-1.8,3-1.8c2,0,3,1.3,3,3.8L882.9,150.4
				L882.9,150.4z"/>
			<path fill="#383A37" d="M886.5,139.1c-0.3,0-0.5-0.1-0.7-0.3c-0.1-0.1-0.3-0.4-0.3-0.7s0.1-0.5,0.3-0.7c0.1-0.1,0.4-0.3,0.7-0.3
				s0.5,0.1,0.7,0.3c0.1,0.1,0.3,0.4,0.3,0.7s-0.1,0.5-0.3,0.7C887,138.9,886.7,139.1,886.5,139.1z M887.3,150.4h-1.6v-9.1h1.4v9.1
				H887.3z"/>
			<path fill="#383A37" d="M897.7,150.4h-1.4v-5.2c0-2-0.7-2.9-2.1-2.9c-0.8,0-1.3,0.3-1.8,0.8s-0.8,1.3-0.8,2.1v5.2h-1.4v-9.1h1.4
				v1.6l0,0c0.7-1.2,1.7-1.7,3-1.7c1,0,1.8,0.3,2.3,0.9c0.5,0.7,0.8,1.6,0.8,2.7V150.4z"/>
			<path fill="#383A37" d="M907.9,150.4h-1.4V149l0,0c-0.7,1-1.6,1.7-2.9,1.7c-2.2,0-3.3-1.3-3.3-3.9v-5.5h1.4v5.2
				c0,2,0.8,2.9,2.2,2.9c0.7,0,1.3-0.3,1.8-0.8s0.7-1.2,0.7-2.1v-5.2h1.4L907.9,150.4L907.9,150.4z"/>
			<path fill="#383A37" d="M915,150.4c-0.4,0.1-0.8,0.3-1.3,0.3c-1.6,0-2.3-0.9-2.3-2.7v-5.3h-1.6v-1.3h1.6v-2.2l1.4-0.5v2.7h2.3
				v1.3h-2.3v5.1c0,0.7,0.1,1,0.3,1.3c0.1,0.3,0.5,0.4,1,0.4c0.4,0,0.7-0.1,0.9-0.3L915,150.4L915,150.4z"/>
			<path fill="#383A37" d="M924.2,146.2h-6.4c0,1,0.3,1.8,0.8,2.3s1.3,0.8,2.2,0.8c1,0,2-0.4,2.9-1v1.4c-0.8,0.5-1.8,0.9-3.1,0.9
				s-2.3-0.4-3-1.3c-0.8-0.8-1-2-1-3.5c0-1.4,0.4-2.6,1.2-3.5s1.8-1.3,3-1.3s2.1,0.4,2.7,1.2c0.7,0.8,1,1.8,1,3.3v0.8
				C924.4,146.2,924.2,146.2,924.2,146.2z M922.7,145.1c0-0.8-0.3-1.6-0.7-2c-0.4-0.5-0.9-0.7-1.7-0.7c-0.7,0-1.3,0.3-1.7,0.8
				s-0.8,1.2-0.9,2L922.7,145.1L922.7,145.1z"/>
			<path fill="#383A37" d="M925.9,150.2v-1.6c0.8,0.7,1.7,0.9,2.6,0.9c1.3,0,2-0.4,2-1.3c0-0.3,0-0.4-0.1-0.7
				c-0.1-0.1-0.3-0.3-0.4-0.4c-0.1-0.1-0.4-0.3-0.7-0.4c-0.3-0.1-0.5-0.3-0.8-0.4c-0.4-0.1-0.8-0.3-1-0.5c-0.3-0.1-0.5-0.4-0.8-0.5
				c-0.3-0.3-0.4-0.4-0.5-0.7s-0.1-0.5-0.1-0.9s0.1-0.8,0.3-1.2c0.3-0.4,0.5-0.7,0.8-0.8c0.4-0.3,0.7-0.4,1.2-0.5
				c0.4-0.1,0.9-0.1,1.3-0.1c0.8,0,1.4,0.1,2.1,0.4v1.4c-0.7-0.4-1.4-0.7-2.3-0.7c-0.3,0-0.5,0-0.8,0.1c-0.3,0-0.4,0.1-0.5,0.3
				c-0.1,0.1-0.3,0.3-0.4,0.4c-0.1,0.1-0.1,0.4-0.1,0.5c0,0.3,0,0.4,0.1,0.7c0.1,0.1,0.3,0.3,0.4,0.4c0.1,0.1,0.4,0.3,0.7,0.4
				c0.3,0.1,0.5,0.3,0.8,0.4c0.4,0.1,0.8,0.3,1,0.5c0.3,0.1,0.7,0.4,0.8,0.5c0.3,0.3,0.4,0.4,0.5,0.7s0.1,0.5,0.1,0.9
				s-0.1,0.8-0.3,1.2c-0.3,0.4-0.5,0.7-0.8,0.8s-0.7,0.4-1.2,0.5s-0.9,0.1-1.3,0.1C927.4,150.7,926.5,150.5,925.9,150.2z"/>
			<path fill="#383A37" d="M848.8,171L848.8,171v5.5h-1.4v-13.3h1.4v1.6l0,0c0.8-1.2,1.8-1.8,3.1-1.8c1.2,0,2.1,0.4,2.7,1.2
				c0.7,0.8,1,2,1,3.3c0,1.6-0.4,2.7-1.2,3.7c-0.8,0.9-1.7,1.4-3,1.4C850.3,172.6,849.4,172.1,848.8,171z M848.8,167.4v1.3
				c0,0.8,0.3,1.4,0.8,2c0.5,0.5,1.2,0.8,1.8,0.8c0.9,0,1.6-0.4,2.1-1c0.5-0.7,0.8-1.6,0.8-2.9c0-1-0.3-1.8-0.7-2.3s-1-0.9-2-0.9
				c-0.9,0-1.6,0.3-2.1,0.9C849,165.7,848.8,166.5,848.8,167.4z"/>
			<path fill="#383A37" d="M865.3,168.2h-6.4c0,1,0.3,1.8,0.8,2.3s1.3,0.8,2.2,0.8c1,0,2-0.4,2.9-1v1.4c-0.8,0.5-1.8,0.9-3.1,0.9
				s-2.3-0.4-3-1.3c-0.8-0.8-1-2-1-3.5c0-1.4,0.4-2.6,1.2-3.5s1.8-1.3,3-1.3s2.1,0.4,2.7,1.2c0.7,0.8,1,1.8,1,3.3v0.8L865.3,168.2
				L865.3,168.2z M863.9,167c0-0.8-0.3-1.6-0.7-2c-0.4-0.5-0.9-0.7-1.7-0.7c-0.7,0-1.3,0.3-1.7,0.8s-0.8,1.2-0.9,2L863.9,167
				L863.9,167z"/>
			<path fill="#383A37" d="M872.4,164.8c-0.3-0.3-0.7-0.3-1-0.3c-0.7,0-1.2,0.3-1.6,0.9c-0.4,0.7-0.7,1.4-0.7,2.3v4.7h-1.4v-9.1h1.4
				v1.8l0,0c0.3-0.7,0.5-1.2,0.9-1.6c0.4-0.4,0.9-0.5,1.4-0.5c0.4,0,0.7,0,0.9,0.1L872.4,164.8L872.4,164.8z"/>
			<path fill="#373737" d="M891.9,172.3h-1.4v-5.2c0-1-0.1-1.7-0.5-2.2c-0.3-0.4-0.8-0.7-1.6-0.7c-0.7,0-1.2,0.3-1.6,0.9
				c-0.4,0.5-0.7,1.3-0.7,2.1v5.2h-1.4V167c0-1.8-0.7-2.7-2.1-2.7c-0.7,0-1.2,0.3-1.6,0.8c-0.4,0.5-0.7,1.2-0.7,2.1v5.2H879v-9.1
				h1.4v1.4l0,0c0.7-1,1.6-1.7,2.9-1.7c0.7,0,1.2,0.1,1.7,0.5s0.8,0.8,0.9,1.3c0.7-1.3,1.7-1.8,3-1.8c2,0,3,1.3,3,3.8L891.9,172.3
				L891.9,172.3z"/>
			<path fill="#383A37" d="M898.5,172.6c-1.3,0-2.5-0.4-3.3-1.3c-0.8-0.9-1.2-2-1.2-3.4c0-1.6,0.4-2.7,1.3-3.7s2-1.3,3.4-1.3
				c1.3,0,2.5,0.4,3.1,1.3c0.8,0.8,1.2,2,1.2,3.5c0,1.4-0.4,2.6-1.2,3.5C900.9,172.2,899.9,172.6,898.5,172.6z M898.6,164.2
				c-0.9,0-1.7,0.3-2.2,0.9c-0.5,0.7-0.8,1.6-0.8,2.6s0.3,2,0.8,2.6c0.5,0.7,1.3,0.9,2.2,0.9s1.7-0.3,2.2-0.9
				c0.5-0.7,0.8-1.4,0.8-2.6c0-1.2-0.3-2-0.8-2.6C900.3,164.5,899.5,164.2,898.6,164.2z"/>
			<path fill="#383A37" d="M912.9,172.3h-1.4v-5.2c0-2-0.7-2.9-2.1-2.9c-0.8,0-1.3,0.3-1.8,0.8s-0.8,1.3-0.8,2.1v5.2h-1.4v-9.1h1.4
				v1.6l0,0c0.7-1.2,1.7-1.7,3-1.7c1,0,1.8,0.3,2.3,0.9c0.5,0.7,0.8,1.6,0.8,2.7V172.3z"/>
			<path fill="#383A37" d="M920,172.3c-0.4,0.1-0.8,0.3-1.3,0.3c-1.6,0-2.3-0.9-2.3-2.7v-5.3h-1.6v-1.3h1.6V161l1.4-0.5v2.7h2.3v1.3
				h-2.3v5.1c0,0.7,0.1,1,0.3,1.3c0.1,0.3,0.5,0.4,1,0.4c0.4,0,0.7-0.1,0.9-0.3L920,172.3L920,172.3z"/>
			<path fill="#383A37" d="M929.5,172.3h-1.4v-5.2c0-2-0.7-2.9-2.1-2.9c-0.7,0-1.3,0.3-1.8,0.8s-0.8,1.3-0.8,2.1v5.2H922v-13.4h1.4
				v5.9l0,0c0.7-1.2,1.7-1.7,3-1.7c2.1,0,3.1,1.3,3.1,3.8V172.3L929.5,172.3z"/>
		</g>
	</g>
	<g>
		<path fill="#2FAAE1" d="M907.7,102.8c0.4-1.6,0.5-3.3,0.5-5c0-12.7-10.3-23-23-23c-1.3,0-2.6,0.1-3.9,0.4c-2.1-1.3-4.4-2.1-7-2.1
			c-7.3,0-13.3,6-13.3,13.3c0,2.5,0.7,4.7,1.8,6.8c-0.3,1.4-0.5,3-0.5,4.6c0,12.7,10.3,23,23,23c1.4,0,2.9-0.1,4.2-0.4
			c1.8,1,4,1.6,6.3,1.6c7.3,0,13.3-6,13.3-13.3C909,106.6,908.5,104.6,907.7,102.8"/>
		<path fill="#FFFFFF" d="M878.4,82.8L878.4,82.8c-2,0.7-3.4,1.7-4.4,3.1c-1,1.3-1.6,2.9-1.6,4.7c0,1.8,0.5,3.4,1.4,4.6
			s2.3,2.2,3.9,2.9s3.7,1.3,6,1.8c1.7,0.4,3.1,0.7,4.2,1c1,0.3,1.8,0.8,2.5,1.3s0.9,1.3,0.9,2.2c0,1.2-0.5,2.1-1.7,2.9
			s-2.7,1.2-4.6,1.2c-1.4,0-2.5-0.3-3.4-0.7c-0.8-0.4-1.4-0.9-2-1.4c-0.5-0.7-0.9-1.4-1.3-2.3s-0.8-1.6-1.3-2
			c-0.5-0.5-1.2-0.7-2-0.7c-0.9,0-1.8,0.3-2.3,0.9c-0.7,0.7-0.9,1.3-0.9,2.2c0,1.3,0.5,2.7,1.4,4.2c0.9,1.4,2.2,2.5,3.8,3.4
			c2.2,1.2,5,1.7,8.2,1.7c2.7,0,5.2-0.4,7.2-1.3c2.1-0.8,3.7-2.1,4.7-3.5c1-1.6,1.6-3.3,1.6-5.1c0-1.6-0.3-3-0.9-4
			c-0.7-1-1.4-2-2.6-2.7c-1-0.7-2.3-1.3-3.9-1.8s-3.3-0.9-5.1-1.3c-1.4-0.4-2.5-0.7-3.1-0.8c-0.7-0.1-1.3-0.4-1.8-0.7
			c-0.5-0.3-1-0.7-1.3-1c-0.3-0.4-0.5-0.8-0.5-1.3c0-0.9,0.5-1.6,1.4-2.2c1-0.7,2.3-1,3.9-1c1.8,0,3,0.3,3.8,0.9
			c0.8,0.7,1.4,1.4,2.1,2.6c0.5,0.9,0.9,1.4,1.3,1.8c0.5,0.4,1.2,0.7,2,0.7c0.9,0,1.7-0.4,2.3-1s0.9-1.4,0.9-2.2
			c0-0.9-0.3-1.7-0.7-2.6c-0.5-0.9-1.2-1.7-2.2-2.5s-2.2-1.4-3.8-1.8c-1.6-0.5-3.3-0.7-5.3-0.7C882.6,81.8,880.3,82.2,878.4,82.8z"
			/>
	</g>
</g>
<g>
	<path fill="#E84124" d="M331.1,135.9c0.5,0,0.8,0,0.8-0.7c0-7,0-34.4,0-40.3c0-1,0-1-1-1c-19.7,0-39.3,0-59,0c-1.2,0-1.2,0-1.2,1
		c0,12.9,0,27.1,0,40c0,0.8,0.1,0.9,0.9,0.9C281.6,135.9,325.1,135.9,331.1,135.9 M330.5,91.1c2.5,0,4.2,1.6,4.2,4
		c0,13.6,0,41.3,0,41.9c1.3,0,6.8,0,8.2,0.1c0.5,0,1.3,0.1,1.6,0.7c0.4,0.8-0.5,1.2-1,1.6c-2.2,1.4-4.7,2-7.3,2c-11.6,0-58,0-69.5,0
		c-2.5,0-5.1-0.4-7.3-2c-0.5-0.4-1.4-0.8-1-1.6c0.3-0.7,1-0.7,1.6-0.7c1.4-0.1,7,0,8.2-0.1c0-0.5,0-28.3,0-41.9c0-2.5,1.7-4,4.2-4
		C281.9,91.1,320.9,91.1,330.5,91.1 M430.1,75.1c0.8,0,1,0.1,1,1c0,16,0,32,0,48c0,0.8-0.3,1-1,1c-14,0-69.8,0-83.7,0
		c-0.8,0-1-0.3-1-1c0-16,0-32,0-48c0-0.9,0.3-1,1-1C360.4,75.1,416.1,75.1,430.1,75.1 M405,141.3c0.7,0,1.3,0,2-0.3
		c0.8-0.3,0.9-1.3,0.5-2s-1.7-0.5-2.3-0.5h-8.9c-0.3-0.1-0.3-0.3-0.3-0.7c0-3,0-5.9,0-8.9c0-0.7,0.3-0.7,0.8-0.7
		c1.3,0,23.9,0,33.8,0c2.1,0,3.8-1.6,3.8-3.5c0-16.4,0-32.7,0-49.2c0-0.4,0-0.7-0.1-1c-0.8-1.8-2.1-2.7-4.2-2.7
		c-6.9,0-24.3,0-41.6,0l0,0c-17.3,0-34.7,0-41.6,0c-2.1,0-3.4,0.9-4.2,2.7c-0.1,0.3-0.1,0.7-0.1,1c0,16.4,0,32.7,0,49.2
		c0,2,1.7,3.5,3.8,3.5c10,0,32.5,0,33.8,0c0.5,0,0.8,0.1,0.8,0.7c0,3,0,5.9,0,8.9c0,0.4-0.1,0.5-0.3,0.7h-8.9c-0.7,0-2-0.1-2.3,0.5
		c-0.4,0.7-0.3,1.7,0.5,2c0.7,0.3,1.3,0.3,2,0.3H405z M496.2,138.4c0,1.6-1.3,2.9-2.7,2.9h-8.1c-1.6,0-2.7-1.3-2.7-2.9v-20.3
		c0-1.6,1.3-2.9,2.7-2.9h8.1c1.6,0,2.7,1.3,2.7,2.9V138.4z M483.8,128.2L483.8,128.2c0,3.1,0,6.1,0,9.3c0,0.3,0.1,0.3,0.3,0.3
		c3.5,0,7,0,10.4,0c0.3,0,0.3-0.1,0.3-0.3c0-2.7,0-5.5,0-8.2c0-3.4,0-6.8,0-10.3c0-0.3,0-0.4-0.3-0.4c-3.5,0-6.9,0-10.4,0
		c-0.3,0-0.4,0.1-0.4,0.4C483.8,122.1,483.8,125.2,483.8,128.2 M474.3,101.4c0-0.7-0.1-0.8-0.8-0.8c-9.9,0-19.8,0-29.7,0
		c-0.7,0-0.8,0.3-0.8,0.9c0,8.3,0,35.1,0,35.1l0,0h31.2l0,0C474.3,136.6,474.3,109.7,474.3,101.4 M476.6,137.8c0,2-1.3,3.4-3.4,3.4
		c-9.8,0-19.6,0-29.2,0c-1.8,0-3.3-1.4-3.3-3.4c0-12.9,0-25.8,0-38.6c0-2,1.6-3.3,3.5-3.3c9.5,0,19,0,28.6,0c0.4,0,0.8,0,1,0.1
		c1.8,0.5,2.6,1.6,2.6,3.4c0,6.4,0,12.7,0,19C476.6,118.5,476.6,131.4,476.6,137.8"/>
	<path fill="#E84124" d="M378,172.1h-12.1v-9l12.1-1.7V172.1z M356.2,164.5v7.6h9.3v-8.9L356.2,164.5z M356.2,172.6v7.7l9.3,1.3v-9
		H356.2z M365.9,172.6v9l12.1,1.7v-10.7H365.9z M399.9,165.8l-2.7,10c-0.1,0.5-0.3,0.9-0.3,1.3l0,0c0-0.4-0.1-0.8-0.3-1.2l-2.7-10.2
		h-1.4l-2.9,10c-0.1,0.5-0.3,0.9-0.3,1.3l0,0c0-0.4-0.1-0.9-0.3-1.3l-2.7-10h-1.7l3.8,13h1.8l2.7-9.7c0.1-0.4,0.3-0.9,0.3-1.3l0,0
		c0,0.5,0.1,0.9,0.3,1.3l2.7,9.7h1.8l3.7-13C401.8,165.8,399.9,165.8,399.9,165.8z M404.6,166.5c0-0.3-0.1-0.5-0.3-0.7
		c-0.1-0.1-0.4-0.3-0.7-0.3s-0.5,0.1-0.7,0.3c-0.1,0.1-0.3,0.4-0.3,0.7s0.1,0.5,0.3,0.7c0.1,0.1,0.4,0.3,0.7,0.3s0.5-0.1,0.7-0.3
		C404.5,167,404.6,166.7,404.6,166.5 M404.4,169.6h-1.6v9.4h1.6V169.6z M414.4,173.2c0-1.2-0.3-2.2-0.8-2.9s-1.3-1-2.3-1
		c-1.3,0-2.3,0.7-3.1,1.8l0,0v-1.6h-1.4v9.4h1.4v-5.3c0-0.9,0.3-1.6,0.8-2.1s1.2-0.8,1.8-0.8c1.4,0,2.2,1,2.2,3v5.3h1.4V173.2
		L414.4,173.2z M424.7,165h-1.4v5.7l0,0c-0.7-1-1.6-1.6-2.9-1.6s-2.3,0.5-3.1,1.4s-1.2,2.2-1.2,3.8c0,1.4,0.4,2.6,1,3.4
		c0.7,0.9,1.7,1.3,2.9,1.3c1.4,0,2.5-0.7,3.3-1.8l0,0v1.6h1.4L424.7,165L424.7,165z M423.3,174.7c0,0.9-0.3,1.7-0.8,2.3
		c-0.5,0.7-1.2,0.9-2.1,0.9s-1.6-0.3-2.1-0.9c-0.5-0.7-0.8-1.4-0.8-2.6s0.3-2.1,0.8-2.7c0.5-0.7,1.3-1,2.1-1s1.3,0.3,1.8,0.8
		s0.8,1.2,0.8,2v1.3 M435.8,174.2c0-1.6-0.4-2.7-1.2-3.5c-0.8-0.9-1.8-1.3-3.3-1.3s-2.6,0.4-3.5,1.3c-0.8,0.9-1.3,2.1-1.3,3.7
		c0,1.4,0.4,2.6,1.2,3.5c0.8,0.9,2,1.3,3.3,1.3c1.4,0,2.6-0.4,3.4-1.3C435.4,176.9,435.8,175.7,435.8,174.2 M434.2,174.3
		c0,1.2-0.3,2.1-0.8,2.7c-0.5,0.7-1.3,0.9-2.2,0.9s-1.7-0.3-2.2-0.9c-0.5-0.7-0.8-1.6-0.8-2.6c0-1.2,0.3-2.1,0.8-2.7
		c0.5-0.7,1.3-0.9,2.3-0.9c0.9,0,1.7,0.3,2.2,0.9C434,172.2,434.2,173.1,434.2,174.3 M447.9,169.6l-2,7c-0.1,0.3-0.1,0.5-0.1,0.8
		h-0.1c0-0.3,0-0.7-0.1-0.8l-2-7h-1.4l-2.1,7c-0.1,0.4-0.1,0.7-0.1,0.9h-0.1c0-0.3-0.1-0.7-0.1-0.8l-2-7h-1.6l2.9,9.4h1.4l2.1-6.8
		c0.1-0.4,0.1-0.7,0.1-0.8l0,0c0,0.4,0.1,0.7,0.1,0.9l2,6.7h1.6l2.7-9.4L447.9,169.6L447.9,169.6z M455.9,176.4
		c0-0.7-0.1-1.2-0.5-1.6c-0.4-0.4-1-0.8-1.8-1.2c-0.8-0.3-1.2-0.5-1.4-0.8s-0.4-0.5-0.4-0.9s0.1-0.7,0.4-0.9
		c0.3-0.3,0.7-0.4,1.2-0.4c0.8,0,1.6,0.3,2.1,0.7v-1.6c-0.7-0.3-1.3-0.4-2-0.4c-0.9,0-1.7,0.3-2.3,0.8c-0.7,0.5-0.9,1.2-0.9,2
		c0,0.7,0.1,1.2,0.5,1.6c0.4,0.4,0.9,0.8,1.7,1.2c0.8,0.4,1.3,0.7,1.6,0.9s0.4,0.5,0.4,0.9c0,0.9-0.7,1.3-1.8,1.3
		c-0.9,0-1.7-0.3-2.5-0.9v1.6c0.7,0.4,1.4,0.5,2.3,0.5c1,0,1.8-0.3,2.5-0.8C455.5,177.9,455.9,177.3,455.9,176.4"/>
	<path fill="#E84124" d="M474.9,169.6L474.9,169.6v6.1c0,0.8-0.7,1.4-1.4,1.4s-1.4-0.7-1.4-1.4v-6.1c0-0.8,0.7-1.4,1.4-1.4
		S474.9,168.8,474.9,169.6z M492,169.6L492,169.6c0-0.8-0.7-1.4-1.4-1.4c-0.8,0-1.4,0.7-1.4,1.4v6.1c0,0.8,0.7,1.4,1.4,1.4
		c0.8,0,1.4-0.7,1.4-1.4l0,0V169.6z M488.5,168.4h-13v9.5l0,0c0,0.8,0.7,1.4,1.4,1.4h1.2v3.3c0,0.8,0.7,1.4,1.4,1.4s1.4-0.7,1.4-1.4
		l0,0v-3.3h2v3.3c0,0.8,0.7,1.4,1.4,1.4s1.4-0.7,1.4-1.4l0,0v-3.3h1.2c0.8,0,1.4-0.7,1.4-1.4L488.5,168.4L488.5,168.4z M488.5,167.9
		h-13.2c0.1-2.2,1.4-4.2,3.4-5.2l-1-1.8c0-0.1,0-0.3,0.1-0.3s0.3,0,0.3,0.1l1,2c0.9-0.4,1.8-0.7,2.9-0.7c1,0,2,0.3,2.9,0.7l1-2
		c0-0.1,0.1-0.1,0.3-0.1c0.1,0,0.1,0.1,0.1,0.3l-1,1.8C487.2,163.7,488.5,165.7,488.5,167.9 M479.5,165c0-0.3-0.3-0.5-0.5-0.5
		s-0.5,0.3-0.5,0.5c0,0.3,0.3,0.5,0.5,0.5S479.5,165.3,479.5,165 M485.5,165c0-0.3-0.3-0.5-0.5-0.5c-0.3,0-0.5,0.3-0.5,0.5
		c0,0.3,0.3,0.5,0.5,0.5S485.5,165.3,485.5,165"/>
	<path fill="#E84124" d="M265.2,167.5c0,0.3-0.1,0.5-0.4,0.8s-0.5,0.3-0.8,0.3s-0.7-0.1-0.8-0.3c-0.3-0.3-0.4-0.5-0.4-0.8
		s0.1-0.5,0.4-0.8s0.5-0.3,0.8-0.3c0.4,0,0.7,0.1,0.8,0.4C265.1,167,265.2,167.2,265.2,167.5 M263.1,170.5h1.8v8.3h-1.8V170.5z"/>
	<path fill="#E84124" d="M275.2,170.8c0,0.8-0.1,1.4-0.5,2c-0.4,0.7-0.9,1-1.6,1.4s-1.4,0.5-2.3,0.5h-1.4v4.2h-2v-11.7h3.7
		c1.3,0,2.3,0.3,3.1,0.9C274.8,168.8,275.2,169.6,275.2,170.8 M273.1,170.9c0-0.7-0.3-1.2-0.7-1.6c-0.4-0.4-1-0.5-1.8-0.5h-1.3v4.2
		h1.3c0.8,0,1.4-0.1,1.8-0.5C273,172.1,273.1,171.5,273.1,170.9"/>
	<path fill="#E84124" d="M280.3,178.8v-1l0,0c-0.5,0.9-1.4,1.3-2.5,1.3c-0.8,0-1.4-0.3-2-0.7c-0.5-0.4-0.7-1-0.7-1.8s0.3-1.4,0.7-2
		c0.5-0.5,1.2-0.8,2.1-0.9l2.5-0.4c0-1.2-0.5-1.7-1.6-1.7c-0.5,0-1,0.1-1.4,0.3c-0.5,0.1-0.9,0.4-1.3,0.7v-1.7
		c0.3-0.1,0.8-0.4,1.3-0.5c0.7-0.1,1.2-0.3,1.6-0.3c1,0,1.8,0.3,2.5,0.8s0.8,1.4,0.8,2.5v5.3L280.3,178.8L280.3,178.8z M277.1,176.4
		c0,0.4,0.1,0.7,0.4,0.9s0.7,0.3,1,0.3c0.5,0,1-0.1,1.4-0.5s0.5-0.9,0.5-1.4v-0.8l-1.8,0.3c-0.5,0.1-0.9,0.3-1.2,0.4
		C277.2,175.7,277.1,176,277.1,176.4"/>
	<path fill="#E84124" d="M289.7,178.8v-1.3l0,0c-0.7,1-1.6,1.6-2.7,1.6c-1,0-2-0.4-2.5-1.2c-0.7-0.8-0.9-1.8-0.9-3
		c0-1.4,0.4-2.5,1-3.4c0.7-0.8,1.6-1.3,2.7-1.3c0.5,0,1,0.1,1.4,0.3c0.4,0.3,0.8,0.5,0.9,0.9l0,0v-5.1h1.8v12.4h-1.8v0.1H289.7z
		 M289.7,174c0-0.7-0.3-1-0.7-1.6c-0.4-0.4-0.9-0.7-1.4-0.7c-0.7,0-1.3,0.3-1.7,0.8c-0.4,0.5-0.5,1.3-0.5,2.2c0,0.8,0.1,1.6,0.5,2
		c0.4,0.5,0.9,0.8,1.6,0.8s1.2-0.3,1.6-0.8s0.7-1.2,0.7-1.8L289.7,174L289.7,174z"/>
	<polygon fill="#E84124" points="319.2,178.8 319.2,169.6 319.2,169.6 315.4,178.8 314.1,178.8 310.3,169.7 310.2,169.7 
		310.2,178.8 308.4,178.8 308.4,167.1 311.2,167.1 314.8,176 314.8,176 318.5,167.1 321.1,167.1 321.1,178.8 	"/>
	<path fill="#E84124" d="M327.8,178.8v-1l0,0c-0.5,0.9-1.4,1.3-2.5,1.3c-0.8,0-1.4-0.3-2-0.7c-0.5-0.4-0.7-1-0.7-1.8s0.3-1.4,0.7-2
		c0.5-0.5,1.2-0.8,2.1-0.9l2.5-0.4c0-1.2-0.5-1.7-1.6-1.7c-0.5,0-1,0.1-1.4,0.3c-0.5,0.1-0.9,0.4-1.3,0.7v-1.7
		c0.3-0.1,0.8-0.4,1.3-0.5c0.7-0.1,1.2-0.3,1.6-0.3c1,0,1.8,0.3,2.5,0.8c0.5,0.5,0.8,1.4,0.8,2.5v5.3L327.8,178.8L327.8,178.8z
		 M324.5,176.4c0,0.4,0.1,0.7,0.4,0.9c0.3,0.3,0.7,0.3,1,0.3c0.5,0,1-0.1,1.4-0.5s0.5-0.9,0.5-1.4v-0.8l-1.8,0.3
		c-0.5,0.1-0.9,0.3-1.2,0.4C324.5,175.7,324.5,176,324.5,176.4"/>
	<path fill="#E84124" d="M337.6,178.6c-0.7,0.4-1.4,0.5-2.3,0.5c-0.8,0-1.6-0.1-2.2-0.5c-0.7-0.4-1.2-0.8-1.4-1.4
		c-0.4-0.7-0.5-1.3-0.5-2.2s0.1-1.7,0.5-2.5c0.4-0.7,0.9-1.3,1.6-1.6s1.4-0.5,2.3-0.5c0.4,0,0.8,0,1,0.1c0.4,0.1,0.7,0.1,0.9,0.3
		v1.8c-0.7-0.4-1.3-0.7-2-0.7c-0.8,0-1.4,0.3-2,0.8c-0.5,0.5-0.8,1.2-0.8,2.1s0.3,1.6,0.7,2.1c0.5,0.5,1,0.8,2,0.8
		c0.3,0,0.7,0,0.9-0.1c0.4-0.1,0.7-0.3,1-0.5v1.6C337.3,178.6,337.6,178.6,337.6,178.6z"/>
</g>
<g>
	<path fill="#CECECE" d="M572.6,156h-1.4v-11.1c-0.1,0.1-0.3,0.3-0.5,0.4c-0.3,0.1-0.5,0.3-0.8,0.4c-0.3,0.1-0.5,0.3-0.9,0.4
		c-0.4,0.1-0.7,0.3-0.9,0.3V145c0.3-0.1,0.7-0.3,1-0.4s0.7-0.3,1-0.5c0.4-0.1,0.7-0.4,1-0.7s0.5-0.4,0.8-0.7h0.5V156H572.6z"/>
	<path fill="#CECECE" d="M582.2,151.5h-4.8v-1.2h4.8V151.5z"/>
	<path fill="#CECECE" d="M589.1,155.9c-0.4,0.1-0.8,0.3-1.3,0.3c-1.6,0-2.3-0.9-2.3-2.7v-5.3h-1.6v-1.3h1.6v-2.2l1.4-0.5v2.7h2.3
		v1.3h-2.3v5.1c0,0.7,0.1,1,0.3,1.3c0.1,0.3,0.5,0.4,1,0.4c0.4,0,0.7-0.1,0.9-0.3L589.1,155.9L589.1,155.9z"/>
	<path fill="#CECECE" d="M591.8,144.5c-0.3,0-0.5-0.1-0.7-0.3c-0.1-0.1-0.3-0.4-0.3-0.7s0.1-0.5,0.3-0.7c0.1-0.1,0.4-0.3,0.7-0.3
		s0.5,0.1,0.7,0.3c0.1,0.1,0.3,0.4,0.3,0.7s-0.1,0.5-0.3,0.7S592.1,144.5,591.8,144.5z M592.5,156H591v-9.1h1.4L592.5,156L592.5,156
		z"/>
	<path fill="#CECECE" d="M608.4,156H607v-5.2c0-1-0.1-1.7-0.5-2.2s-0.8-0.7-1.6-0.7c-0.7,0-1.2,0.3-1.6,0.9
		c-0.4,0.7-0.7,1.3-0.7,2.1v5.2h-1.4v-5.5c0-1.8-0.7-2.7-2.1-2.7c-0.7,0-1.2,0.3-1.6,0.8c-0.4,0.5-0.7,1.2-0.7,2.1v5.2h-1.4v-9.1
		h1.4v1.4l0,0c0.7-1,1.6-1.7,2.9-1.7c0.7,0,1.2,0.1,1.7,0.5s0.8,0.8,0.9,1.3c0.7-1.3,1.7-1.8,3-1.8c2,0,3,1.3,3,3.8L608.4,156
		L608.4,156z"/>
	<path fill="#CECECE" d="M618.5,151.8h-6.4c0,1,0.3,1.8,0.8,2.3s1.3,0.8,2.2,0.8c1,0,2-0.4,2.9-1v1.4c-0.8,0.5-1.8,0.9-3.1,0.9
		s-2.3-0.4-3-1.3c-0.8-0.8-1-2-1-3.5c0-1.4,0.4-2.6,1.2-3.5s1.8-1.3,3-1.3s2.1,0.4,2.7,1.2c0.7,0.8,1,1.8,1,3.3v0.8
		C618.9,151.8,618.5,151.8,618.5,151.8z M617,150.5c0-0.8-0.3-1.6-0.7-2s-0.9-0.7-1.7-0.7c-0.7,0-1.3,0.3-1.7,0.8s-0.8,1.2-0.9,2
		L617,150.5L617,150.5z"/>
</g>
<g>
	<path fill="#CECECE" d="M559.3,176.6L559.3,176.6v5.5h-1.4v-13.3h1.4v1.6l0,0c0.8-1.2,1.8-1.8,3.1-1.8c1.2,0,2.1,0.4,2.7,1.2
		s1,2,1,3.3c0,1.6-0.4,2.7-1.2,3.7s-1.7,1.4-3,1.4C560.8,178.2,559.8,177.7,559.3,176.6z M559.2,173v1.3c0,0.8,0.3,1.4,0.8,2
		c0.5,0.5,1.2,0.8,1.8,0.8c0.9,0,1.6-0.4,2.1-1c0.5-0.7,0.8-1.6,0.8-2.9c0-1-0.3-1.8-0.7-2.3s-1-0.9-2-0.9s-1.6,0.3-2.1,0.9
		C559.5,171.3,559.2,172.1,559.2,173z"/>
	<path fill="#CECECE" d="M575.9,177.9h-1.4v-1.4l0,0c-0.7,1-1.6,1.7-2.9,1.7c-2.2,0-3.3-1.3-3.3-3.9v-5.5h1.4v5.2
		c0,2,0.8,2.9,2.2,2.9c0.7,0,1.3-0.3,1.8-0.8s0.7-1.2,0.7-2.1v-5.2h1.4L575.9,177.9L575.9,177.9z"/>
	<path fill="#CECECE" d="M583.6,170.2c-0.3-0.3-0.7-0.3-1-0.3c-0.7,0-1.2,0.3-1.6,0.9c-0.4,0.7-0.7,1.4-0.7,2.3v4.7h-1.4v-9.1h1.4
		v1.8l0,0c0.3-0.7,0.5-1.2,0.9-1.6c0.4-0.4,0.9-0.5,1.4-0.5c0.4,0,0.7,0,0.9,0.1L583.6,170.2L583.6,170.2z"/>
	<path fill="#CECECE" d="M591.2,177.5c-0.7,0.4-1.6,0.7-2.5,0.7c-1.3,0-2.3-0.4-3.1-1.3c-0.8-0.8-1.2-2-1.2-3.3
		c0-1.6,0.4-2.7,1.3-3.7c0.9-0.9,2-1.3,3.4-1.3c0.8,0,1.6,0.1,2.1,0.4v1.4c-0.7-0.5-1.4-0.7-2.2-0.7c-0.9,0-1.7,0.4-2.3,1
		c-0.7,0.7-0.9,1.6-0.9,2.6s0.3,2,0.8,2.5s1.3,0.9,2.2,0.9c0.8,0,1.6-0.3,2.2-0.8v1.4h0.2V177.5z"/>
	<path fill="#CECECE" d="M600.9,177.9h-1.4v-5.2c0-2-0.7-2.9-2.1-2.9c-0.7,0-1.3,0.3-1.8,0.8s-0.8,1.3-0.8,2.1v5.2h-1.4v-13.6h1.4
		v5.9l0,0c0.7-1.2,1.7-1.7,3-1.7c2.1,0,3.1,1.3,3.1,3.8V177.9L600.9,177.9z"/>
	<path fill="#CECECE" d="M610.2,177.9h-1.4v-1.4l0,0c-0.7,1-1.6,1.7-2.9,1.7c-0.9,0-1.6-0.3-2.1-0.8s-0.8-1.2-0.8-2c0-1.7,1-2.7,3-3
		l2.7-0.4c0-1.6-0.7-2.3-1.8-2.3c-1,0-2.1,0.4-3,1.2v-1.4c0.9-0.5,2-0.9,3.1-0.9c2.1,0,3.3,1.2,3.3,3.4L610.2,177.9L610.2,177.9z
		 M608.8,173.2l-2.2,0.3c-0.7,0.1-1.2,0.3-1.6,0.5c-0.4,0.3-0.5,0.7-0.5,1.3c0,0.4,0.1,0.8,0.5,1c0.3,0.3,0.8,0.4,1.3,0.4
		c0.8,0,1.3-0.3,1.8-0.8s0.7-1.2,0.7-2V173.2L608.8,173.2z"/>
	<path fill="#CECECE" d="M612.4,177.5V176c0.8,0.7,1.7,0.9,2.6,0.9c1.3,0,2-0.4,2-1.3c0-0.3,0-0.4-0.1-0.7c-0.1-0.1-0.3-0.3-0.4-0.4
		c-0.1-0.1-0.4-0.3-0.7-0.4c-0.3-0.1-0.5-0.3-0.8-0.4c-0.4-0.1-0.8-0.3-1-0.5c-0.3-0.1-0.5-0.4-0.8-0.5c-0.3-0.3-0.4-0.4-0.5-0.7
		s-0.1-0.5-0.1-0.9s0.1-0.8,0.3-1.2c0.3-0.4,0.5-0.7,0.8-0.8c0.4-0.3,0.7-0.4,1.2-0.5s0.9-0.1,1.3-0.1c0.8,0,1.4,0.1,2.1,0.4v1.4
		c-0.7-0.4-1.4-0.7-2.3-0.7c-0.3,0-0.5,0-0.8,0.1c-0.3,0-0.4,0.1-0.5,0.3c-0.1,0.1-0.3,0.3-0.4,0.4c-0.1,0.1-0.1,0.4-0.1,0.5
		c0,0.3,0,0.4,0.1,0.7s0.3,0.3,0.4,0.4c0.1,0.1,0.4,0.3,0.7,0.4c0.3,0.1,0.5,0.3,0.8,0.4c0.4,0.1,0.8,0.3,1,0.5
		c0.3,0.1,0.7,0.4,0.8,0.5c0.3,0.3,0.4,0.4,0.5,0.7s0.1,0.5,0.1,0.9s-0.1,0.8-0.3,1.2s-0.5,0.7-0.8,0.8s-0.7,0.4-1.2,0.5
		s-0.9,0.1-1.3,0.1C614,178.2,613.2,177.9,612.4,177.5z"/>
	<path fill="#CECECE" d="M628.1,173.8h-6.4c0,1,0.3,1.8,0.8,2.3s1.3,0.8,2.2,0.8c1,0,2-0.4,2.9-1v1.4c-0.8,0.5-1.8,0.9-3.1,0.9
		s-2.3-0.4-3-1.3c-0.8-0.8-1-2-1-3.5c0-1.4,0.4-2.6,1.2-3.5s1.8-1.3,3-1.3s2.1,0.4,2.7,1.2c0.7,0.8,1,1.8,1,3.3v0.8
		C628.5,173.8,628.1,173.8,628.1,173.8z M626.6,172.5c0-0.8-0.3-1.6-0.7-2s-0.9-0.7-1.7-0.7c-0.7,0-1.3,0.3-1.7,0.8s-0.8,1.2-0.9,2
		L626.6,172.5L626.6,172.5z"/>
</g>
<g>
	<g>
		<g>
			<path fill="#383A37" d="M712.3,151.7h-1.4v-11.1c-0.1,0.1-0.3,0.3-0.5,0.4c-0.3,0.1-0.5,0.3-0.8,0.4c-0.3,0.1-0.5,0.3-0.9,0.4
				c-0.3,0.1-0.7,0.3-0.9,0.3v-1.4c0.3-0.1,0.7-0.3,1-0.4c0.4-0.1,0.7-0.3,1-0.5c0.4-0.1,0.7-0.4,1-0.7s0.5-0.4,0.8-0.7h0.5
				L712.3,151.7L712.3,151.7z"/>
			<path fill="#383A37" d="M724.9,140.4h-3.7v11.3h-1.4v-11.5h-3.7v-1.3h8.9L724.9,140.4L724.9,140.4z"/>
			<path fill="#383A37" d="M726.9,151.7v-12.8h3.7c1,0,2,0.3,2.6,0.8c0.7,0.5,0.9,1.3,0.9,2.1s-0.3,1.3-0.7,1.8s-0.9,0.9-1.6,1.2
				l0,0c0.9,0.1,1.6,0.4,2.1,0.9s0.8,1.3,0.8,2.1c0,1-0.4,2-1.2,2.6c-0.8,0.7-1.7,1.3-3,1.3L726.9,151.7L726.9,151.7z M728.4,140.4
				v4.2h1.6c0.8,0,1.4-0.3,2-0.7c0.5-0.4,0.7-0.9,0.7-1.7c0-1.3-0.8-1.8-2.5-1.8H728.4z M728.4,145.8v4.6h2.1c0.9,0,1.6-0.3,2.1-0.7
				s0.8-1,0.8-1.7c0-1.6-1-2.2-3.1-2.2L728.4,145.8L728.4,145.8z"/>
			<path fill="#383A37" d="M748.5,151.3c-0.7,0.4-1.6,0.7-2.5,0.7c-1.3,0-2.3-0.4-3.1-1.3c-0.8-0.8-1.2-2-1.2-3.3
				c0-1.6,0.4-2.7,1.3-3.7c0.9-0.9,2-1.3,3.4-1.3c0.8,0,1.6,0.1,2.1,0.4v1.4c-0.7-0.5-1.4-0.7-2.2-0.7c-0.9,0-1.7,0.4-2.3,1
				c-0.7,0.7-0.9,1.6-0.9,2.6s0.3,2,0.8,2.5c0.5,0.7,1.3,0.9,2.2,0.9c0.8,0,1.6-0.3,2.2-0.8v1.4h0.2V151.3z"/>
			<path fill="#383A37" d="M752.1,151.7h-1.4v-13.4h1.4V151.7z"/>
			<path fill="#383A37" d="M758.9,152c-1.3,0-2.5-0.4-3.3-1.3c-0.8-0.9-1.2-2-1.2-3.4c0-1.6,0.4-2.7,1.3-3.7c0.9-0.9,2-1.3,3.4-1.3
				c1.3,0,2.5,0.4,3.1,1.3c0.8,0.8,1.2,2,1.2,3.5c0,1.4-0.4,2.6-1.2,3.5C761.4,151.6,760.2,152,758.9,152z M759,143.6
				c-0.9,0-1.7,0.3-2.2,0.9c-0.5,0.7-0.8,1.6-0.8,2.6s0.3,2,0.8,2.6c0.5,0.7,1.3,0.9,2.2,0.9s1.7-0.3,2.2-0.9
				c0.5-0.7,0.8-1.4,0.8-2.6s-0.3-2-0.8-2.6C760.6,143.9,759.9,143.6,759,143.6z"/>
			<path fill="#383A37" d="M773.1,151.7h-1.4v-1.4l0,0c-0.7,1-1.6,1.7-2.9,1.7c-2.2,0-3.3-1.3-3.3-3.9v-5.5h1.4v5.2
				c0,2,0.8,2.9,2.2,2.9c0.7,0,1.3-0.3,1.8-0.8s0.7-1.2,0.7-2.1v-5.2h1.4L773.1,151.7L773.1,151.7z"/>
			<path fill="#383A37" d="M783.8,151.7h-1.4v-1.6l0,0c-0.7,1.2-1.7,1.8-3.1,1.8c-1.2,0-2.1-0.4-2.7-1.2c-0.7-0.8-1-2-1-3.4
				c0-1.6,0.4-2.7,1.2-3.7c0.8-0.9,1.8-1.3,3-1.3c1.3,0,2.2,0.5,2.7,1.4l0,0v-5.6h1.4v13.6H783.8z M782.4,147.7v-1.3
				c0-0.8-0.3-1.3-0.8-1.8s-1-0.8-1.8-0.8c-0.9,0-1.6,0.4-2.1,1c-0.5,0.7-0.8,1.6-0.8,2.7c0,1,0.3,1.8,0.8,2.5s1.2,0.9,2,0.9
				s1.4-0.3,2-0.9C782.1,149.2,782.4,148.6,782.4,147.7z"/>
			<path fill="#383A37" d="M716.2,173.4v-1.6c0.8,0.7,1.7,0.9,2.6,0.9c1.3,0,2-0.4,2-1.3c0-0.3,0-0.4-0.1-0.7
				c-0.1-0.1-0.3-0.3-0.4-0.4c-0.1-0.1-0.4-0.3-0.7-0.4c-0.3-0.1-0.5-0.3-0.8-0.4c-0.4-0.1-0.8-0.3-1-0.5c-0.3-0.1-0.5-0.4-0.8-0.5
				c-0.3-0.3-0.4-0.4-0.5-0.7s-0.1-0.5-0.1-0.9s0.1-0.8,0.3-1.2c0.3-0.4,0.5-0.7,0.8-0.8c0.4-0.3,0.7-0.4,1.2-0.5
				c0.4-0.1,0.9-0.1,1.3-0.1c0.8,0,1.4,0.1,2.1,0.4v1.4c-0.7-0.4-1.4-0.7-2.3-0.7c-0.3,0-0.5,0-0.8,0.1c-0.3,0-0.4,0.1-0.5,0.3
				c-0.1,0.1-0.3,0.3-0.4,0.4s-0.1,0.4-0.1,0.5c0,0.3,0,0.4,0.1,0.7c0.1,0.1,0.3,0.3,0.4,0.4s0.4,0.3,0.7,0.4
				c0.3,0.1,0.5,0.3,0.8,0.4c0.4,0.1,0.8,0.3,1,0.5c0.3,0.1,0.7,0.4,0.8,0.5c0.3,0.3,0.4,0.4,0.5,0.7s0.1,0.5,0.1,0.9
				s-0.1,0.8-0.3,1.2c-0.3,0.4-0.5,0.7-0.8,0.8s-0.7,0.4-1.2,0.5s-0.9,0.1-1.3,0.1C717.8,173.9,717,173.8,716.2,173.4z"/>
			<path fill="#383A37" d="M728.8,173.6c-0.4,0.1-0.8,0.3-1.3,0.3c-1.6,0-2.3-0.9-2.3-2.7v-5.3h-1.6v-1.3h1.6v-2.2l1.4-0.5v2.7h2.3
				v1.3h-2.3v5.1c0,0.7,0.1,1,0.3,1.3c0.1,0.3,0.5,0.4,1,0.4c0.4,0,0.7-0.1,0.9-0.3L728.8,173.6L728.8,173.6z"/>
			<path fill="#383A37" d="M734.5,173.9c-1.3,0-2.5-0.4-3.3-1.3c-0.8-0.9-1.2-2-1.2-3.4c0-1.6,0.4-2.7,1.3-3.7
				c0.9-0.9,2-1.3,3.4-1.3c1.3,0,2.5,0.4,3.1,1.3c0.8,0.8,1.2,2,1.2,3.5c0,1.4-0.4,2.6-1.2,3.5C737,173.5,735.8,173.9,734.5,173.9z
				 M734.5,165.5c-0.9,0-1.7,0.3-2.2,0.9c-0.5,0.7-0.8,1.6-0.8,2.6s0.3,2,0.8,2.6c0.5,0.7,1.3,0.9,2.2,0.9s1.7-0.3,2.2-0.9
				c0.5-0.7,0.8-1.4,0.8-2.6c0-1.2-0.3-2-0.8-2.6C736.2,165.8,735.6,165.5,734.5,165.5z"/>
			<path fill="#383A37" d="M746.1,166.1c-0.3-0.3-0.7-0.3-1-0.3c-0.7,0-1.2,0.3-1.6,0.9c-0.4,0.7-0.7,1.4-0.7,2.3v4.7h-1.4v-9.1h1.4
				v1.8l0,0c0.3-0.7,0.5-1.2,0.9-1.6c0.4-0.4,0.9-0.5,1.4-0.5c0.4,0,0.7,0,0.9,0.1L746.1,166.1L746.1,166.1z"/>
			<path fill="#383A37" d="M754.2,173.6h-1.4v-1.4l0,0c-0.7,1-1.6,1.7-2.9,1.7c-0.9,0-1.6-0.3-2.1-0.8s-0.8-1.2-0.8-2
				c0-1.7,1-2.7,3-3l2.7-0.4c0-1.6-0.7-2.3-1.8-2.3c-1,0-2.1,0.4-3,1.2v-1.4c0.9-0.5,2-0.9,3.1-0.9c2.1,0,3.3,1.2,3.3,3.4v6h-0.1
				V173.6z M752.8,169.1l-2.2,0.3c-0.7,0.1-1.2,0.3-1.6,0.5c-0.4,0.3-0.5,0.7-0.5,1.3c0,0.4,0.1,0.8,0.5,1c0.3,0.3,0.8,0.4,1.3,0.4
				c0.8,0,1.3-0.3,1.8-0.8s0.7-1.2,0.7-2V169.1z"/>
			<path fill="#383A37" d="M764.8,173c0,3.4-1.6,5.1-4.8,5.1c-1.2,0-2.1-0.3-3-0.7V176c1,0.5,2,0.9,3,0.9c2.2,0,3.4-1.2,3.4-3.5v-1
				l0,0c-0.7,1.2-1.7,1.7-3.1,1.7c-1.2,0-2.1-0.4-2.7-1.2c-0.7-0.8-1-2-1-3.3c0-1.6,0.4-2.7,1.2-3.7c0.8-0.9,1.8-1.4,3-1.4
				s2.1,0.5,2.7,1.4l0,0v-1.3h1.4L764.8,173L764.8,173z M763.3,169.6v-1.3c0-0.8-0.3-1.3-0.8-1.8s-1-0.8-1.8-0.8
				c-0.9,0-1.6,0.4-2.1,1c-0.5,0.7-0.8,1.6-0.8,2.7c0,1,0.3,1.8,0.8,2.5s1.2,0.9,2,0.9s1.4-0.3,2-0.9
				C763.1,171.2,763.3,170.5,763.3,169.6z"/>
			<path fill="#383A37" d="M775.1,169.5h-6.4c0,1,0.3,1.8,0.8,2.3s1.3,0.8,2.2,0.8c1,0,2-0.4,2.9-1v1.4c-0.8,0.5-1.8,0.9-3.1,0.9
				s-2.3-0.4-3-1.3c-0.8-0.8-1-2-1-3.5c0-1.4,0.4-2.6,1.2-3.5s1.8-1.3,3-1.3s2.1,0.4,2.7,1.2c0.7,0.8,1,1.8,1,3.3v0.8L775.1,169.5
				L775.1,169.5z M773.6,168.3c0-0.8-0.3-1.6-0.7-2c-0.4-0.5-0.9-0.7-1.7-0.7c-0.7,0-1.3,0.3-1.7,0.8s-0.8,1.2-0.9,2L773.6,168.3
				L773.6,168.3z"/>
		</g>
	</g>
</g>
<path fill="#0072BC" d="M777.4,104.5c0-0.3,0-0.5,0-0.8c0-6.1-5-11.1-11.1-11.1c-2.2,0-4.3,0.7-6.1,1.8c-2.1-4.2-6.4-6.9-11.3-6.9
	c-7,0-12.8,5.7-12.8,12.8c0,0.3,0,0.5,0,0.8c-0.3,0-0.5,0-0.8,0c-5.6,0-10.2,4.6-10.2,10.2s4.6,10.2,10.2,10.2l0,0l0,0h37.4h6.7
	c0.3-0.1,0.4-0.1,0.7-0.3c2.9-1.4,4.8-4.4,4.8-7.8C784.9,108.8,781.6,105.2,777.4,104.5z"/>
<path fill="#0072BC" d="M733.9,98.8c0.8-7.6,7.2-13.6,15-13.6c4.8,0,9.4,2.3,12.1,6.3c1.7-0.7,3.4-1,5.3-1c0.1,0,0.3,0,0.4,0
	c-0.8-8.3-7.8-14.7-16.4-14.7c-6.4,0-12,3.7-14.7,9.1c-2-1.3-4.2-2.1-6.7-2.1c-6.5,0-11.9,5.3-11.9,11.9c0,0.9,0.1,1.7,0.3,2.6
	c-5.5,0.4-9.8,5-9.8,10.6c0,5.9,4.7,10.6,10.6,10.6h6.9c-1.4-2-2.2-4.4-2.2-7C722.8,104.8,727.7,99.4,733.9,98.8z"/>
<g>
	<g>
		<g>
			<path fill="#E84124" d="M1028.8,82.3c5.5,0,10.3,2.6,13.3,6.7l-5.7,5.9h18.1V76.3l-5.7,5.9c-4.8-5.6-11.9-9.3-20-9.3
				c-12.9,0-23.7,9.5-25.7,21.8h9.5C1014.6,87.5,1021.1,82.3,1028.8,82.3z"/>
			<path fill="#E84124" d="M1028.8,115.6c-5.3,0-10-2.5-13-6.4l6.1-6.1h-18.7v18.7l5.9-5.9c4.8,5.6,11.9,9.1,19.7,9.1
				c12.9,0,23.7-9.5,25.7-21.8h-9.5C1043.1,110.2,1036.6,115.6,1028.8,115.6z"/>
		</g>
	</g>
	<g>
		<path fill="#383A37" d="M995,146.9c0,3.7-1.6,5.3-4.8,5.3c-3.1,0-4.7-1.7-4.7-5.2v-7.8h1.4v7.7c0,2.6,1,3.9,3.3,3.9
			c2.1,0,3.1-1.3,3.1-3.8v-7.8h1.4v7.7L995,146.9L995,146.9z"/>
		<path fill="#383A37" d="M1006.5,147.3c0,1.4-0.4,2.7-1,3.7c-0.8,0.9-1.8,1.4-3.1,1.4c-1.2,0-2.1-0.5-2.7-1.6l0,0v5.5h-1.4V143h1.4
			v1.6l0,0c0.8-1.2,1.8-1.8,3.1-1.8c1.2,0,2.1,0.4,2.9,1.3C1006.1,144.8,1006.5,145.8,1006.5,147.3z M1004.9,147.2
			c0-1-0.3-1.8-0.7-2.3s-1.2-0.9-2-0.9c-0.9,0-1.6,0.3-2.1,0.9c-0.5,0.5-0.7,1.3-0.7,2.2v1.3c0,0.8,0.3,1.3,0.7,1.8
			c0.5,0.5,1.2,0.8,2,0.8c0.9,0,1.6-0.4,2.1-1C1004.6,149.4,1004.9,148.5,1004.9,147.2z"/>
		<path fill="#383A37" d="M1016.4,151.3c0,3.4-1.6,5-4.8,5c-1.2,0-2.1-0.3-3-0.7v-1.4c1,0.5,2,0.9,2.9,0.9c2.2,0,3.4-1.2,3.4-3.5v-1
			l0,0c-0.7,1.2-1.7,1.7-3.1,1.7c-1.2,0-2.1-0.4-2.7-1.2c-0.7-0.8-1-2-1-3.3c0-1.6,0.4-2.7,1-3.7c0.8-0.9,1.8-1.4,3.1-1.4
			c1.2,0,2.1,0.5,2.7,1.4l0,0v-1.3h1.4L1016.4,151.3C1016.3,151.3,1016.4,151.3,1016.4,151.3z M1015,147.9v-1.3
			c0-0.7-0.3-1.3-0.7-1.8c-0.5-0.5-1.2-0.8-1.8-0.8c-0.9,0-1.6,0.3-2.1,0.9c-0.5,0.7-0.8,1.6-0.8,2.7c0,1,0.3,1.8,0.8,2.5
			s1.2,0.9,2,0.9s1.4-0.3,2-0.9C1014.7,149.6,1015,148.8,1015,147.9z"/>
		<path fill="#383A37" d="M1024.1,144.4c-0.3-0.3-0.7-0.3-1.2-0.3c-0.7,0-1,0.3-1.4,0.8c-0.5,0.7-0.7,1.4-0.7,2.5v4.7h-1.4V143h1.4
			v1.8l0,0c0.3-0.7,0.5-1.2,1-1.6c0.4-0.4,0.9-0.5,1.4-0.5c0.4,0,0.7,0,0.9,0.1V144.4L1024.1,144.4z"/>
		<path fill="#383A37" d="M1032.2,152.1h-1.4v-1.4l0,0c-0.7,1-1.6,1.7-2.9,1.7c-0.9,0-1.7-0.3-2.2-0.8s-0.8-1-0.8-1.8
			c0-1.7,1-2.7,3-3l2.7-0.4c0-1.6-0.7-2.3-1.8-2.3c-1,0-2.1,0.4-3,1.2v-1.4c0.3-0.3,0.7-0.4,1.3-0.5c0.7-0.3,1.3-0.3,1.8-0.3
			c2.1,0,3.3,1.2,3.3,3.4V152.1z M1030.7,147.4l-2.2,0.3c-0.8,0.1-1.3,0.3-1.7,0.7c-0.3,0.3-0.4,0.7-0.4,1.2c0,0.4,0.1,0.8,0.5,1
			c0.3,0.3,0.8,0.4,1.3,0.4c0.8,0,1.3-0.3,1.8-0.8s0.7-1.2,0.7-2L1030.7,147.4L1030.7,147.4z"/>
		<path fill="#383A37" d="M1042.7,152.1h-1.4v-1.6l0,0c-0.7,1.2-1.7,1.8-3.1,1.8c-1.2,0-2.1-0.4-2.7-1.2s-1-2-1-3.4
			c0-1.6,0.4-2.7,1.2-3.7c0.8-0.9,1.8-1.3,3-1.3c1.3,0,2.2,0.5,2.7,1.4l0,0v-5.6h1.4L1042.7,152.1L1042.7,152.1z M1041.2,147.9v-1.3
			c0-0.8-0.3-1.3-0.7-1.8c-0.5-0.5-1.2-0.8-1.8-0.8c-0.9,0-1.6,0.3-2.1,0.9c-0.5,0.7-0.8,1.6-0.8,2.7c0,1,0.3,2,0.8,2.6
			c0.5,0.5,1.2,0.8,2,0.8s1.6-0.3,2.1-0.9C1041,149.5,1041.2,148.8,1041.2,147.9z"/>
		<path fill="#383A37" d="M1052.9,147.8h-6.4c0,1,0.3,1.8,0.8,2.3s1.3,0.8,2.2,0.8c1,0,2-0.4,2.9-1v1.3c-0.8,0.7-1.8,0.9-3.1,0.9
			c-1.3,0-2.2-0.4-3-1.2s-1.2-2.1-1.2-3.5s0.4-2.6,1.3-3.5c0.8-0.8,1.8-1.3,2.9-1.3c1.2,0,2.2,0.4,2.9,1.3c0.7,0.8,0.9,1.8,0.9,3.1
			L1052.9,147.8L1052.9,147.8z M1051.5,146.6c0-0.8-0.3-1.4-0.7-2s-0.9-0.8-1.7-0.8c-0.7,0-1.3,0.3-1.7,0.8c-0.5,0.5-0.8,1.2-0.9,2
			H1051.5z"/>
		<path fill="#383A37" d="M1060.1,149.6c0,0.8-0.3,1.4-0.8,1.8c-0.7,0.5-1.4,0.8-2.5,0.8c-0.9,0-1.6-0.1-2.2-0.5v-1.6
			c0.7,0.5,1.6,0.9,2.3,0.9c1.2,0,1.7-0.4,1.7-1.3c0-0.4-0.1-0.7-0.4-0.9c-0.3-0.3-0.8-0.5-1.4-0.8c-0.8-0.4-1.3-0.7-1.7-1
			c-0.4-0.4-0.5-0.9-0.5-1.7s0.3-1.4,0.9-2s1.4-0.8,2.3-0.8c0.8,0,1.4,0.1,2,0.4v1.4c-0.7-0.4-1.3-0.7-2.1-0.7
			c-0.5,0-0.9,0.1-1.2,0.4s-0.4,0.5-0.4,0.9s0.1,0.8,0.4,0.9c0.3,0.3,0.7,0.5,1.4,0.8c0.8,0.4,1.3,0.7,1.7,1
			C1059.8,148.3,1060.1,149,1060.1,149.6z"/>
		<path fill="#383A37" d="M991.2,161.6c0,0.3-0.1,0.5-0.3,0.7c-0.1,0.1-0.4,0.3-0.7,0.3s-0.5-0.1-0.7-0.3c-0.1-0.1-0.3-0.4-0.3-0.7
			s0.1-0.5,0.3-0.7c0.1-0.1,0.4-0.3,0.7-0.3s0.5,0.1,0.7,0.3C991.1,161.1,991.2,161.2,991.2,161.6z M991,174h-1.4v-9.1h1.4V174z"/>
		<path fill="#383A37" d="M1001.5,174h-1.4v-5.2c0-2-0.7-2.9-2.1-2.9c-0.8,0-1.3,0.3-1.8,0.8s-0.8,1.3-0.8,2.1v5.2H994v-9.1h1.4v1.6
			l0,0c0.7-1.2,1.7-1.7,3-1.7c1,0,1.8,0.4,2.3,1c0.5,0.7,0.8,1.6,0.8,2.7V174L1001.5,174z"/>
		<path fill="#383A37" d="M1010.4,173.5c-0.7,0.4-1.6,0.7-2.5,0.7c-1.3,0-2.3-0.4-3.1-1.3c-0.8-0.8-1.2-2-1.2-3.3
			c0-1.4,0.4-2.7,1.3-3.7c0.9-0.9,2-1.4,3.5-1.4c0.8,0,1.6,0.1,2.1,0.5v1.4c-0.7-0.5-1.4-0.7-2.2-0.7c-0.9,0-1.7,0.3-2.2,0.9
			c-0.7,0.7-0.9,1.6-0.9,2.6s0.3,2,0.8,2.5c0.5,0.7,1.3,0.9,2.2,0.9c0.8,0,1.6-0.3,2.2-0.8L1010.4,173.5L1010.4,173.5z"/>
		<path fill="#383A37" d="M1014,174h-1.4v-13.6h1.4V174z"/>
		<path fill="#383A37" d="M1024.5,174h-1.4v-1.4l0,0c-0.7,1.2-1.6,1.7-2.9,1.7c-2.2,0-3.3-1.3-3.3-3.9v-5.5h1.4v5.2
			c0,2,0.8,2.9,2.2,2.9c0.7,0,1.3-0.3,1.7-0.8c0.5-0.5,0.7-1.2,0.7-2.1v-5.2h1.4v9.1H1024.5z"/>
		<path fill="#383A37" d="M1035.2,174h-1.4v-1.6l0,0c-0.7,1.2-1.7,1.8-3.1,1.8c-1.2,0-2.1-0.4-2.7-1.2s-1-2-1-3.4
			c0-1.6,0.4-2.7,1.2-3.7s1.8-1.3,3-1.3c1.3,0,2.2,0.5,2.7,1.4l0,0v-5.6h1.4L1035.2,174L1035.2,174z M1033.6,169.8v-1.3
			c0-0.8-0.3-1.3-0.7-1.8c-0.5-0.5-1.2-0.8-1.8-0.8c-0.9,0-1.6,0.3-2.1,0.9s-0.8,1.6-0.8,2.7c0,1,0.3,2,0.8,2.6
			c0.5,0.5,1.2,0.8,2,0.8s1.6-0.3,2.1-0.9C1033.3,171.4,1033.6,170.8,1033.6,169.8z"/>
		<path fill="#383A37" d="M1045.3,169.7h-6.4c0,1,0.3,1.8,0.8,2.3s1.3,0.8,2.2,0.8c1,0,2-0.4,2.9-1v1.3c-0.8,0.7-1.8,0.9-3.1,0.9
			c-1.3,0-2.2-0.4-3-1.2s-1.2-2.1-1.2-3.5s0.4-2.6,1.3-3.5c0.8-0.8,1.8-1.3,2.9-1.3c1.2,0,2.2,0.4,2.9,1.3c0.7,0.8,0.9,1.8,0.9,3.1
			L1045.3,169.7L1045.3,169.7z M1043.8,168.5c0-0.8-0.3-1.4-0.7-2c-0.4-0.5-0.9-0.8-1.7-0.8c-0.7,0-1.3,0.3-1.7,0.8
			c-0.5,0.5-0.8,1.2-0.9,2H1043.8z"/>
		<path fill="#383A37" d="M1055.3,174h-1.4v-1.6l0,0c-0.7,1.2-1.7,1.8-3.1,1.8c-1.2,0-2.1-0.4-2.7-1.2s-1-2-1-3.4
			c0-1.6,0.4-2.7,1.2-3.7s1.8-1.3,3-1.3c1.3,0,2.2,0.5,2.7,1.4l0,0v-5.6h1.4L1055.3,174L1055.3,174z M1053.7,169.8v-1.3
			c0-0.8-0.3-1.3-0.7-1.8c-0.5-0.5-1.2-0.8-1.8-0.8c-0.9,0-1.6,0.3-2.1,0.9c-0.5,0.7-0.8,1.6-0.8,2.7c0,1,0.3,2,0.8,2.6
			c0.5,0.5,1.2,0.8,2,0.8s1.6-0.3,2.1-0.9C1053.4,171.4,1053.7,170.8,1053.7,169.8z"/>
	</g>
</g>
<g>
	<path fill="#383A37" d="M5,191.5l-1.7,0.4l1.2,1.6L3.8,194l-1-1.7l-1,1.7l-0.7-0.5l1.2-1.6l-1.7-0.4l0.3-0.8l1.7,0.7l-0.1-2h0.9
		l-0.1,2l1.7-0.7L5,191.5z"/>
	<path fill="#383A37" d="M21.1,189.4l-2.6,9.1h-1.3l-1.8-6.7c-0.1-0.3-0.1-0.7-0.1-0.9l0,0c0,0.3-0.1,0.7-0.1,0.9l-2,6.7h-1.3
		l-2.6-9.1h1.2l2,7c0.1,0.3,0.1,0.7,0.1,0.9l0,0c0-0.3,0.1-0.5,0.1-0.9l2.1-7h1l2,7c0.1,0.3,0.1,0.5,0.1,0.8l0,0
		c0-0.3,0.1-0.5,0.1-0.9l1.8-7L21.1,189.4L21.1,189.4z"/>
	<path fill="#383A37" d="M23.6,189.6c0,0.1-0.1,0.4-0.3,0.5c-0.1,0.1-0.3,0.3-0.5,0.3c-0.1,0-0.4,0-0.5-0.1S22,190,22,189.8
		c0-0.1,0.1-0.4,0.3-0.5c0.1-0.1,0.3-0.1,0.5-0.1c0.1,0,0.4,0,0.5,0.1C23.4,189.3,23.6,189.5,23.6,189.6z M23.4,198.5h-1V192h1
		V198.5z"/>
	<path fill="#383A37" d="M30.9,198.5h-1v-3.7c0-1.4-0.5-2.1-1.6-2.1c-0.5,0-0.9,0.1-1.3,0.5s-0.5,0.9-0.5,1.4v3.8h-1v-6.5h1v1l0,0
		c0.5-0.8,1.2-1.3,2.1-1.3c0.8,0,1.3,0.3,1.7,0.7s0.5,1.2,0.5,2L30.9,198.5L30.9,198.5z"/>
	<path fill="#383A37" d="M38.4,198.5h-1v-1l0,0c-0.5,0.8-1.2,1.3-2.2,1.3c-0.8,0-1.4-0.3-2-0.9c-0.5-0.5-0.8-1.4-0.8-2.3
		c0-1,0.3-2,0.8-2.6c0.5-0.7,1.3-0.9,2.2-0.9s1.6,0.4,2,1l0,0v-4h1V198.5z M37.4,195.5v-0.9c0-0.5-0.1-0.9-0.5-1.3s-0.8-0.5-1.3-0.5
		c-0.7,0-1.2,0.3-1.6,0.7c-0.4,0.5-0.5,1.2-0.5,2s0.1,1.4,0.5,1.8s0.8,0.7,1.3,0.7c0.7,0,1-0.3,1.4-0.7
		C37.1,196.7,37.4,196.2,37.4,195.5z"/>
	<path fill="#383A37" d="M46.4,195.3c0,1-0.3,1.8-0.9,2.5c-0.7,0.7-1.4,0.9-2.3,0.9c-1,0-1.7-0.3-2.3-0.9c-0.5-0.7-0.8-1.4-0.8-2.3
		c0-1.2,0.3-2,0.9-2.6c0.7-0.5,1.4-0.9,2.3-0.9c0.9,0,1.7,0.3,2.2,0.9C46,193.4,46.4,194.2,46.4,195.3z M45.3,195.3
		c0-0.8-0.1-1.4-0.5-2c-0.4-0.4-0.9-0.7-1.6-0.7s-1.2,0.3-1.6,0.7c-0.4,0.4-0.7,1-0.7,2c0,0.8,0.3,1.4,0.7,1.8s0.9,0.7,1.6,0.7
		c0.7,0,1.2-0.3,1.6-0.7S45.3,196,45.3,195.3z"/>
	<path fill="#383A37" d="M56.3,192l-2,6.5h-1l-1.3-4.7c0-0.1-0.1-0.4-0.1-0.7l0,0c0,0.1,0,0.4-0.1,0.5l-1.4,4.7h-1l-2-6.5h1l1.3,5
		c0,0.1,0.1,0.4,0.1,0.5l0,0c0-0.1,0-0.4,0.1-0.7l1.4-5h0.9l1.3,5c0,0.1,0.1,0.4,0.1,0.5l0,0c0-0.1,0-0.4,0.1-0.5l1.3-5h1.2v0.4
		H56.3z"/>
	<path fill="#383A37" d="M61,196.8c0,0.5-0.3,1-0.7,1.3c-0.4,0.4-1,0.5-1.8,0.5c-0.7,0-1.2-0.1-1.6-0.4V197c0.5,0.4,1,0.7,1.7,0.7
		c0.8,0,1.3-0.3,1.3-0.9c0-0.3-0.1-0.5-0.3-0.7c-0.1-0.1-0.5-0.4-1-0.7s-0.9-0.5-1.2-0.8s-0.4-0.7-0.4-1.2s0.3-1,0.7-1.3
		c0.4-0.4,1-0.5,1.7-0.5c0.5,0,1,0.1,1.4,0.3v1c-0.4-0.3-0.9-0.5-1.4-0.5c-0.4,0-0.7,0.1-0.8,0.3c-0.1,0.1-0.3,0.4-0.3,0.7
		s0.1,0.5,0.3,0.7c0.1,0.1,0.5,0.4,1,0.5c0.5,0.3,0.9,0.5,1.2,0.8C60.9,195.9,61,196.3,61,196.8z"/>
	<path fill="#383A37" d="M72.1,195.3c0,1-0.3,1.8-0.9,2.5c-0.7,0.7-1.4,0.9-2.3,0.9c-1,0-1.7-0.3-2.3-0.9c-0.5-0.7-0.8-1.4-0.8-2.3
		c0-1.2,0.3-2,0.9-2.6c0.7-0.5,1.4-0.9,2.3-0.9s1.7,0.3,2.2,0.9C71.7,193.4,72.1,194.2,72.1,195.3z M71,195.3c0-0.8-0.1-1.4-0.5-2
		c-0.4-0.4-0.9-0.7-1.6-0.7s-1.2,0.3-1.6,0.7s-0.7,1-0.7,2c0,0.8,0.3,1.4,0.7,1.8s0.9,0.7,1.6,0.7s1.2-0.3,1.6-0.7
		C70.8,196.7,71,196,71,195.3z"/>
	<path fill="#383A37" d="M79.1,198.5h-1v-3.7c0-1.4-0.5-2.1-1.6-2.1c-0.5,0-0.9,0.1-1.3,0.5s-0.5,0.9-0.5,1.4v3.8h-1v-6.5h1v1l0,0
		c0.5-0.8,1.2-1.3,2.1-1.3c0.8,0,1.3,0.3,1.7,0.7c0.4,0.4,0.5,1.2,0.5,2L79.1,198.5L79.1,198.5z"/>
	<path fill="#383A37" d="M82.1,198.5h-1v-9.7h1V198.5z"/>
	<path fill="#383A37" d="M89.4,192l-3,7.6c-0.5,1.3-1.3,2-2.2,2c-0.3,0-0.5,0-0.7-0.1v-0.9c0.3,0.1,0.4,0.1,0.7,0.1
		c0.5,0,0.9-0.3,1.2-0.9l0.5-1.3l-2.6-6.5h1.2l1.7,5c0,0.1,0.1,0.3,0.1,0.5l0,0c0-0.1,0-0.3,0.1-0.5l1.8-5.1L89.4,192
		C89.4,191.7,89.4,192,89.4,192z"/>
</g>
<g>
	<g>
		<path fill="#B92227" d="M163,150.8c-0.3-3.1-6.7-3.8-10.4-3.8c-3.8,0-10.2,0.9-10.5,4v0.1v19.6v0.1c0.1,3.1,6.7,4,10.5,4
			c3.8,0,10.1-0.8,10.4-3.8c0-0.1,0-0.1,0-0.3V151C163,150.9,163,150.8,163,150.8z M161.8,170.9c0,1.4-4.1,2.6-9.2,2.6
			c-5.1,0-9.2-1.2-9.2-2.6v-5.2c0,1.4,4.1,2.6,9.2,2.6c4.5,0,8.2-0.9,9-2c0.1-0.1,0.1,0,0.3,0C161.8,166.1,161.8,170.9,161.8,170.9z
			 M161.8,164.3c0,1.4-4.1,2.6-9.2,2.6c-5.1,0-9.2-1.2-9.2-2.6v-5.2c0,1.4,4.1,2.6,9.2,2.6c4.5,0,8.2-0.9,9-2c0.1-0.1,0.1,0,0.3,0
			V164.3z M161.8,157.8c0,1.4-4.1,2.6-9.2,2.6c-5.1,0-9.2-1.2-9.2-2.6v-5.2c0,1.4,4.1,2.6,9.2,2.6c4.5,0,8.2-0.9,9-2
			c0.1-0.1,0.1,0,0.3,0V157.8z M152.6,153.8c-5.1,0-9.2-1.3-9.2-2.8c0-1.5,4.1-2.8,9.2-2.8c5.1,0,9.2,1.3,9.2,2.8
			C161.8,152.6,157.7,153.8,152.6,153.8z"/>
		<g>
			<path fill="#B92227" d="M136.9,157.6c0-0.1,0-0.1,0-0.3c0-0.1,0-0.3,0-0.3c0-0.1,0-0.3,0-0.4l0,0c0,0.1,0,0.3,0,0.3
				c0,0.1,0,0.3,0,0.3c0,0.1,0,0.3,0,0.3C136.9,157.6,136.9,157.6,136.9,157.6l-1.3,4.6h2.7l-1.2-4.5
				C136.9,157.7,136.9,157.7,136.9,157.6z"/>
			<path fill="#B92227" d="M127,146.9v28.7l21.2,3.7v-36.1L127,146.9z M139.4,167.8l-0.8-3.1l-3.8-0.1l-0.8,2.8l-2.3-0.1l3.6-12.9
				l2.8-0.1l4.1,13.7L139.4,167.8z"/>
		</g>
	</g>
	<g>
		<rect x="23.2" y="79.4" fill="#FFFFFF" width="15.8" height="29.7"/>
		<rect x="23.6" y="79.9" fill="none" width="15" height="29"/>
		<polygon fill="none" points="23.6,83 35.5,83 35.5,84.9 23.6,84.9 23.6,87.1 35.5,87.1 35.5,88.9 23.6,88.9 23.6,91.1 35.5,91.1 
			35.5,93 23.6,93 23.6,95.2 35.5,95.2 35.5,97 23.6,97 23.6,99.2 35.5,99.2 35.5,101 23.6,101 23.6,103.4 35.5,103.4 35.5,105.1 
			23.6,105.1 23.6,108.7 38.6,108.7 38.6,79.9 23.6,79.9 		"/>
		<path fill="#28397F" d="M38.6,78.5h-15v-4L0,78.5V110l23.6,4v-4h15c0.8,0,1.3-0.7,1.3-1.3V79.9C39.9,79.1,39.4,78.5,38.6,78.5z
			 M38.6,108.7h-15v-3.7h11.9v-1.7H23.6v-2.2h11.9v-1.8H23.6v-2.2h11.9v-1.8H23.6V93h11.9v-1.8H23.6v-2.2h11.9v-1.8H23.6v-2.2h11.9
			V83H23.6v-3.1h15V108.7z"/>
		<g>
			<g enable-background="new    ">
				<g>
					<path fill="#FFFFFF" d="M18,87.3l-2.6,0.1L14,96.2c0,0.1,0,0.3,0,0.4s0,0.3,0,0.4s0,0.3,0,0.4c0,0.1,0,0.3,0,0.4l0,0
						c0-0.1,0-0.3,0-0.4s0-0.3,0-0.4c0-0.1,0-0.3,0-0.3c0-0.1,0-0.1,0-0.3l-2.1-8.7l-2.5,0.1l-1.7,8.2c0,0.1,0,0.3-0.1,0.4
						c0,0.1,0,0.3,0,0.4s0,0.3,0,0.4s0,0.3,0,0.4l0,0c0-0.1,0-0.3,0-0.4c0-0.1,0-0.3,0-0.4s0-0.3,0-0.3c0-0.1,0-0.1,0-0.3l-1.3-8
						L4,88.5l2.3,11.7l2.5,0.1l1.7-7.8c0-0.1,0-0.3,0-0.3c0-0.1,0-0.3,0-0.4s0-0.3,0-0.4c0-0.1,0-0.3,0-0.4l0,0c0,0.1,0,0.3,0,0.4
						c0,0.1,0,0.3,0,0.4s0,0.3,0,0.4s0,0.3,0,0.3l1.7,8.1l2.6,0.1L18,87.3"/>
				</g>
			</g>
		</g>
	</g>
	<g>
		<rect x="150.9" y="79.9" fill="#FFFFFF" width="15.7" height="28.3"/>
		<g>
			<path fill="#DC5C26" d="M166.2,79h-14.9v-4.6l-23.5,4V110l23.5,4v-5h14.9c0.8,0,1.3-0.7,1.3-1.3V80.3
				C167.5,79.5,166.8,79,166.2,79z M166,107.8h-14.7v-3.7H162v-1.8h-10.7v-2.2H162v-1.8h-10.7v-2.7c0.7,0.3,1.4,0.4,2.2,0.4
				c3.3,0,5.9-2.6,5.9-5.9h-6v-5.7c-0.8,0-1.4,0.1-2.1,0.4v-4.4H166C166,80.3,166,107.8,166,107.8z"/>
			<path fill="#DC5C26" d="M154.3,83.4v5.9h6C160.3,86,157.4,83.4,154.3,83.4z"/>
		</g>
		<path fill="#FFFFFF" d="M137.7,93.6v-4.3l0.8-0.1c0.4,0,0.7,0,0.9,0.1s0.5,0.3,0.7,0.4c0.1,0.1,0.3,0.4,0.4,0.7
			c0.1,0.3,0.1,0.7,0.1,1s0,0.8-0.1,1c-0.1,0.3-0.3,0.5-0.4,0.8s-0.4,0.4-0.7,0.4c-0.3,0.1-0.5,0.1-0.9,0.1L137.7,93.6 M139,86.7
			l-4,0.1v14.5l2.7,0.3v-5.3l1,0.1c0.4,0,0.7,0,1-0.1c0.4,0,0.7-0.1,0.9-0.3c0.3-0.1,0.5-0.3,0.8-0.4c0.3-0.1,0.5-0.4,0.8-0.7
			c0.3-0.3,0.4-0.5,0.5-0.8c0.1-0.3,0.3-0.5,0.4-0.9c0.1-0.3,0.1-0.7,0.3-0.9c0-0.4,0.1-0.7,0.1-1c0-0.8-0.1-1.6-0.3-2.1
			c-0.3-0.7-0.5-1-0.9-1.4c-0.4-0.4-0.9-0.7-1.4-0.8C140.5,86.7,140,86.7,139,86.7"/>
	</g>
	<g>
		<polygon fill="#FFFFFF" points="212.6,109.5 212.6,79.9 225,79.9 225,81.6 228.1,81.6 228.1,106.9 225,106.9 225,109.5 		"/>
		<g>
			<path fill="#682A7A" d="M229.2,82.5c0-1-0.7-1.8-1.7-1.8h-1.4v-0.4c0-0.8-0.5-1.3-1.3-1.3H213v-4l-23.5,4v31.6l23.5,4v-4h11.7
				c0.8,0,1.3-0.7,1.3-1.3V108h1.4c1,0,1.7-0.8,1.7-1.8v-6.3c0-0.4-0.1-0.8-0.4-1.2c0.3-0.3,0.4-0.7,0.4-1.2v-6.4
				c0-0.4-0.1-0.8-0.4-1.2c0.3-0.3,0.4-0.7,0.4-1.2C229.2,88.8,229.2,82.5,229.2,82.5z M224.6,109.1H213v-3.7h8.5v-1.8H213v-2.2h8.5
				v-1.8H213v-2.2h8.5v-1.8H213v-2.2h8.5v-1.8H213v-2.2h8.5v-1.8H213v-2.2h8.5v-1.8H213v-3.1h11.6V82h2.9c0.3,0,0.4,0.3,0.4,0.4v6.3
				c0,0.3-0.1,0.4-0.4,0.4l0,0h-2.6h-0.1v1.3v7.2v1.3v7.2L224.6,109.1C224.7,109.1,224.6,109.1,224.6,109.1z M227.7,106
				c0,0.3-0.1,0.4-0.4,0.4h-1.4v-7.2h1.4c0.3,0,0.4,0.3,0.4,0.4V106z M227.7,97.4c0,0.3-0.1,0.4-0.4,0.4h-1.4v-7.2h1.3
				c0.3,0,0.4,0.3,0.4,0.4L227.7,97.4L227.7,97.4z"/>
		</g>
		<path fill="#FFFFFF" d="M206.2,87l-2.7,0.1v8.1c0,0.3,0,0.7,0,0.9s0,0.3,0,0.4s0,0.3,0,0.4s0,0.3,0,0.4l0,0c0-0.1-0.1-0.3-0.1-0.4
			s-0.1-0.3-0.1-0.3c0-0.1-0.1-0.1-0.1-0.3s-0.1-0.1-0.1-0.3l-4.7-8.6l-2.7,0.1v13.7l2.5,0.1v-7.7c0-0.3,0-0.5,0-0.7
			c0-0.3,0-0.4,0-0.7c0-0.1,0-0.4,0-0.5s0-0.3,0-0.4l0,0c0,0.1,0,0.1,0.1,0.3c0,0.1,0.1,0.1,0.1,0.3s0.1,0.3,0.1,0.3
			c0,0.1,0.1,0.3,0.1,0.4l5,9.1l2.9,0.1L206.2,87"/>
	</g>
	<g>
		<g>
			<path fill="#2673BA" d="M14.5,157.9c-0.1-0.4-0.1-0.7-0.3-1c-0.1-0.3-0.3-0.7-0.4-0.8c-0.1-0.3-0.3-0.5-0.5-0.7
				c-0.1-0.1-0.4-0.4-0.5-0.4c-0.3-0.1-0.4-0.3-0.7-0.3c-0.3,0-0.5-0.1-0.8,0c-0.3,0-0.5,0-0.8,0.1c-0.3,0.1-0.5,0.1-0.7,0.4
				c-0.3,0.1-0.4,0.3-0.7,0.5c-0.1,0.3-0.4,0.4-0.5,0.8c-0.1,0.3-0.3,0.5-0.4,0.8c-0.1,0.3-0.3,0.7-0.3,0.9C8,158.7,8,159,8,159.4
				s0,0.8,0,1.2s0,0.9,0,1.3s0.1,0.8,0.1,1c0.1,0.4,0.1,0.7,0.3,0.9c0.1,0.3,0.3,0.5,0.4,0.8c0.1,0.3,0.3,0.4,0.5,0.7
				c0.1,0.1,0.4,0.4,0.5,0.5c0.1,0.1,0.4,0.3,0.7,0.3c0.3,0.1,0.4,0.1,0.7,0.1c0.3,0,0.5,0,0.8,0c0.3,0,0.4-0.1,0.7-0.3
				c0.3-0.1,0.4-0.3,0.5-0.4c0.1-0.1,0.4-0.4,0.5-0.7c0.1-0.3,0.3-0.5,0.4-0.8c0.1-0.3,0.3-0.7,0.3-1c0.1-0.4,0.1-0.8,0.1-1.2
				c0-0.4,0-0.8,0-1.3s0-0.9,0-1.3C14.6,158.7,14.6,158.3,14.5,157.9z"/>
			<path fill="#2673BA" d="M37.7,149.7H23.2v-8.3L0,145.5V177l23.2,4.2v-8.2h14.1c1.3,0,2.5-1.2,2.5-2.5v-18.3
				C39.7,149.7,38,149.7,37.7,149.7z M37.7,151.3c0.4,0,0.4,0.4,0.4,0.8l0,0l-9.3,9c0,0-0.1,0-0.3,0l-5.5-5.3v-4.4
				C23.1,151.3,37.7,151.3,37.7,151.3z M18,162.4c-0.1,0.7-0.3,1.3-0.4,1.8c-0.1,0.5-0.4,1.2-0.7,1.6c-0.3,0.5-0.5,0.9-0.9,1.4
				c-0.4,0.4-0.7,0.8-1,1c-0.4,0.3-0.8,0.5-1.2,0.8c-0.4,0.1-0.9,0.3-1.3,0.4c-0.4,0.1-0.9,0.1-1.4,0c-0.5,0-0.9-0.1-1.3-0.3
				c-0.4-0.1-0.8-0.3-1.2-0.5s-0.8-0.5-1-0.8c-0.4-0.3-0.7-0.7-0.9-1c-0.3-0.4-0.5-0.8-0.8-1.3c-0.3-0.5-0.4-1-0.5-1.4
				c-0.1-0.5-0.3-1-0.3-1.7C5,161.9,5,161.2,5,160.6c0-0.7,0-1.3,0.1-1.8c0.1-0.7,0.1-1.2,0.3-1.7s0.3-1,0.5-1.6
				c0.3-0.5,0.4-0.9,0.8-1.3c0.3-0.4,0.7-0.8,0.9-1.2c0.4-0.4,0.7-0.7,1-0.9s0.8-0.4,1.3-0.5c0.4-0.1,0.9-0.3,1.4-0.3
				c0.5,0,0.9,0,1.4,0c0.4,0.1,0.9,0.3,1.3,0.4c0.4,0.1,0.8,0.4,1.2,0.8c0.4,0.3,0.7,0.7,1,1c0.3,0.4,0.7,0.9,0.8,1.3
				c0.3,0.5,0.4,1,0.7,1.6c0.1,0.5,0.3,1.2,0.4,1.8c0.1,0.7,0.1,1.3,0.1,2.1C18.1,161.1,18.1,161.7,18,162.4z M37.2,171.2H23.1v-12
				l4.8,4.8c0.4,0.4,1,0.4,1.4,0l8.6-8.5v14.7C38.1,170.7,37.6,171.2,37.2,171.2z"/>
		</g>
	</g>
	<g>
		<path fill="none" d="M91.4,147.2L91.4,147.2l5.4,3.1l0,0c0.5,0.3,1,0.5,1,1.2c0,0.8,0,15.6,0,15.6h3.1v-20.5h-9.3L91.4,147.2z"/>
		<polygon fill="none" points="93.3,153.6 93.3,159.9 85.9,159.9 85.9,162 93.3,162 93.3,163.8 85.9,163.8 85.9,166 93.3,166 
			93.3,167.8 85.9,167.8 85.9,170 93.3,170 93.3,171.8 85.9,171.8 85.9,174.4 96.1,174.4 96.1,151.4 85.9,151.4 85.9,153.6 		"/>
		<g>
			<rect x="85.9" y="170" fill="#008473" width="7.4" height="1.8"/>
			<rect x="85.9" y="166" fill="#008473" width="7.4" height="1.8"/>
			<rect x="85.9" y="162" fill="#008473" width="7.4" height="1.8"/>
			<path fill="#008473" d="M100.6,145.2h-9.5c-1,0-1.9,0.9-1.9,2v2.8h-3.1v1.3h10.2v23H86.2v1.4h10c1.3,0,2-0.5,2-1.8v-5.4h3.1
				c1.3,0,1.3-0.5,1.3-1.8v-19.8C102.3,145.8,101.8,145.2,100.6,145.2z M101,166.9h-3.1c0,0,0-14.8,0-15.6c0-0.5-0.6-0.9-1-1.2l0,0
				l-5.4-3.1l0,0v-0.6h9.5V166.9z"/>
			<rect x="85.9" y="153.6" fill="#008473" width="7.4" height="6.1"/>
			<g>
				<g>
					<path fill="#D1D2D2" d="M73.5,160.6c0.4,0,0.6,0,0.9-0.1c0.3-0.1,0.5-0.3,0.6-0.4c0.1-0.3,0.3-0.4,0.4-0.8
						c0.1-0.3,0.1-0.6,0.1-1c0-0.4,0-0.8-0.1-1s-0.3-0.5-0.4-0.6c-0.1-0.1-0.4-0.3-0.6-0.4c-0.3-0.1-0.5-0.1-0.9-0.1l-0.8,0.1v4.2
						l0,0L73.5,160.6z"/>
					<path fill="#008473" d="M73.5,160.6c0.4,0,0.6,0,0.9-0.1c0.3-0.1,0.5-0.3,0.6-0.4c0.1-0.3,0.3-0.4,0.4-0.8
						c0.1-0.3,0.1-0.6,0.1-1c0-0.4,0-0.8-0.1-1s-0.3-0.5-0.4-0.6c-0.1-0.1-0.4-0.3-0.6-0.4c-0.3-0.1-0.5-0.1-0.9-0.1l-0.8,0.1v4.2
						l0,0L73.5,160.6z"/>
				</g>
				<g>
					<g>
						<path fill="#D1D2D2" d="M62.9,176.7l23,4v-4.9v-1.4v-2.7V170v-2.2V166v-2.2V162v-2.2v-6.1v-2.2v-1.3v-8.4l-23,4
							C62.9,145.8,62.9,176.7,62.9,176.7z M74,153.7c0.9,0,1.3,0,1.9,0.1c0.5,0.1,1,0.4,1.4,0.8c0.4,0.4,0.6,0.9,0.9,1.4
							c0.3,0.6,0.3,1.3,0.3,2c0,0.4,0,0.8-0.1,1c0,0.4-0.1,0.6-0.3,0.9c-0.1,0.3-0.3,0.6-0.4,0.9c-0.1,0.3-0.4,0.5-0.5,0.8
							c-0.3,0.3-0.5,0.4-0.8,0.6c-0.3,0.1-0.5,0.4-0.8,0.4c-0.3,0.1-0.6,0.3-0.9,0.3c-0.4,0-0.6,0.1-1,0.1l-1-0.1v5.2l-2.7-0.3
							v-14.2H74z"/>
					</g>
					<g>
						<path fill="#008473" d="M62.9,176.7l23,4v-4.9v-1.4v-2.7V170v-2.2V166v-2.2V162v-2.2v-6.1v-2.2v-1.3v-8.4l-23,4
							C62.9,145.8,62.9,176.7,62.9,176.7z M74,153.7c0.9,0,1.3,0,1.9,0.1c0.5,0.1,1,0.4,1.4,0.8c0.4,0.4,0.6,0.9,0.9,1.4
							c0.3,0.6,0.3,1.3,0.3,2c0,0.4,0,0.8-0.1,1c0,0.4-0.1,0.6-0.3,0.9c-0.1,0.3-0.3,0.6-0.4,0.9c-0.1,0.3-0.4,0.5-0.5,0.8
							c-0.3,0.3-0.5,0.4-0.8,0.6c-0.3,0.1-0.5,0.4-0.8,0.4c-0.3,0.1-0.6,0.3-0.9,0.3c-0.4,0-0.6,0.1-1,0.1l-1-0.1v5.2l-2.7-0.3
							v-14.2H74z"/>
					</g>
				</g>
			</g>
		</g>
	</g>
	<g>
		<g>
			<path fill="#05733C" d="M101.5,78.5H86.7v-4l-23.5,4V110l23.5,4v-4.6h14.9c0.8,0,1.3-0.7,1.3-1.3V79.9
				C102.8,79.1,102.3,78.5,101.5,78.5z M101.5,108.3H86.8v-2.7h3.5v-3.1h-3.5v-1.8h3.5v-3.1h-3.5v-1.8h3.5v-3.1h-3.5v-1.8h3.5v-3.1
				h-3.5v-1.8h3.5v-3.3h-3.5v-2.6h14.7V108.3z"/>
			<rect x="92" y="82.5" fill="#05733C" width="6.3" height="3.1"/>
			<rect x="92" y="87.5" fill="#05733C" width="6.3" height="3.1"/>
			<rect x="92" y="102.5" fill="#05733C" width="6.3" height="3.1"/>
			<rect x="92" y="92.6" fill="#05733C" width="6.3" height="3.1"/>
			<rect x="92" y="97.5" fill="#05733C" width="6.3" height="3.1"/>
		</g>
		<path fill="#FFFFFF" d="M79.7,86.7l-3.1,0.1l-1.8,4.4c0,0.1-0.1,0.3-0.1,0.4s-0.1,0.3-0.1,0.4s0,0.3-0.1,0.3c0,0.1,0,0.1,0,0.3
			l0,0c0-0.1,0-0.3-0.1-0.4c0-0.1,0-0.3-0.1-0.3c0-0.1,0-0.3-0.1-0.3c0-0.1,0-0.1-0.1-0.3l-1.6-4.2l-3,0.1l3.1,6.9L69,101l2.9,0.1
			l2-4.4c0-0.1,0-0.3,0.1-0.3c0-0.1,0-0.1,0.1-0.3c0-0.1,0-0.1,0-0.3c0-0.1,0-0.1,0-0.1l0,0c0,0.1,0,0.3,0,0.4c0,0.1,0,0.1,0,0.3
			c0,0.1,0,0.1,0,0.3v0.1l2.1,4.8l3.3,0.3l-3.8-7.6L79.7,86.7"/>
	</g>
</g>
<g>
	<path fill="#373737" d="M108.4,140.7l-2.2,0.4l1.4,1.9l-0.9,0.6l-1.2-2l-1.3,2l-0.9-0.6l1.4-1.9l-1.9-0.4l0.4-1l2,0.8l-0.1-2.3h1
		l-0.1,2.3l2-0.8L108.4,140.7z"/>
</g>
<g>
	<path fill="#373737" d="M168.1,140.7l-2.2,0.4l1.4,1.9l-0.9,0.6l-1.2-2l-1.3,2l-0.9-0.6l1.4-1.9l-2.2-0.4l0.4-1l2,0.8l-0.1-2.3h1
		l-0.1,2.3l2-0.8L168.1,140.7z"/>
</g>
</svg>
