<?xml version="1.0" encoding="utf-8"?>
<!-- Generator: Adobe Illustrator 19.2.1, SVG Export Plug-In . SVG Version: 6.00 Build 0)  -->
<svg version="1.1" id="Layer_1" xmlns="http://www.w3.org/2000/svg" xmlns:xlink="http://www.w3.org/1999/xlink" x="0px" y="0px"
	 viewBox="0 0 200 42.6" style="enable-background:new 0 0 200 42.6;" xml:space="preserve">
<g transform="translate(-216.07358,-549.28882)">
	<g transform="matrix(1.8232952,0,0,1.8232952,-597.71681,-124.12247)">
		<g transform="translate(0,-91.137241)">
			<g transform="matrix(0.74069815,0,0,0.74069815,98.5698,-8.2505871)">
				<path style="fill:#FFFFFF;" d="M470.6,658.4v-18.9l16.8-6.2l9.1,2.9v25.5l-9.1,2.7L470.6,658.4l16.8,2v-22.1l-10.9,2.6v14.9
					L470.6,658.4z"/>
				<path style="fill:#FFFFFF;" d="M514.3,658.5c-2.6,0-4.8-0.9-6.3-2.6s-2.4-4-2.4-6.8c0-3,0.8-5.4,2.4-7.2
					c1.6-1.8,3.8-2.7,6.6-2.7c2.6,0,4.6,0.9,6.2,2.6c1.6,1.7,2.4,4,2.4,6.8c0,3-0.8,5.4-2.4,7.2C519.1,657.6,517,658.5,514.3,658.5
					L514.3,658.5z M514.4,641.2c-2,0-3.5,0.7-4.8,2.1c-1.2,1.4-1.8,3.3-1.8,5.6s0.6,4.1,1.8,5.5c1.2,1.4,2.7,2.1,4.7,2.1
					c2,0,3.6-0.7,4.8-2s1.8-3.2,1.8-5.6c0-2.5-0.6-4.4-1.7-5.7C518,641.9,516.4,641.2,514.4,641.2L514.4,641.2z"/>
				<path style="fill:#FFFFFF;" d="M530.9,638.2c-1.2,0-2.2,0.4-3,1.2c-0.8,0.8-1.2,1.9-1.2,3.3v2.2h-2.3v1.8h2.3v11.5h2.1v-11.5
					h5.2v11.5h2.1v-11.5h3.1v-1.8h-3.1v-2c0-1.9,0.7-2.8,2.2-2.8c0.5,0,1,0.1,1.4,0.3v-1.9c-0.4-0.2-0.9-0.2-1.5-0.2
					c-1.2,0-2.2,0.4-3,1.2c-0.8,0.8-1.2,1.9-1.2,3.3v2.2h-5.2v-2c0-1.9,0.7-2.8,2.2-2.8c0.5,0,1,0.1,1.4,0.3v-1.9
					C532.1,638.3,531.6,638.2,530.9,638.2L530.9,638.2z"/>
				<path style="fill:#FFFFFF;" d="M542.3,641.5c-0.4,0-0.7-0.1-1-0.4c-0.3-0.3-0.4-0.6-0.4-1s0.1-0.7,0.4-1c0.3-0.3,0.6-0.4,1-0.4
					c0.4,0,0.7,0.1,1,0.4c0.3,0.3,0.4,0.6,0.4,1c0,0.4-0.1,0.7-0.4,1C543,641.4,542.7,641.5,542.3,641.5L542.3,641.5z M543.4,658.2
					h-2.1v-13.3h2.1V658.2z"/>
				<path style="fill:#FFFFFF;" d="M555.4,657.6c-1,0.6-2.2,0.9-3.6,0.9c-1.9,0-3.4-0.6-4.6-1.8c-1.2-1.2-1.7-2.8-1.7-4.8
					c0-2.2,0.6-3.9,1.9-5.3c1.3-1.3,2.9-2,5-2c1.2,0,2.2,0.2,3.1,0.6v2.2c-1-0.7-2-1-3.2-1c-1.4,0-2.5,0.5-3.3,1.5
					c-0.9,1-1.3,2.3-1.3,3.8c0,1.6,0.4,2.8,1.2,3.7c0.8,0.9,1.9,1.3,3.3,1.3c1.2,0,2.2-0.4,3.3-1.2L555.4,657.6z"/>
				<path style="fill:#FFFFFF;" d="M568.4,652.1h-9.4c0,1.5,0.4,2.6,1.2,3.4c0.8,0.8,1.8,1.2,3.1,1.2c1.5,0,2.9-0.5,4.1-1.5v2
					c-1.2,0.8-2.7,1.3-4.6,1.3c-1.9,0-3.4-0.6-4.4-1.8c-1.1-1.2-1.6-2.9-1.6-5.1c0-2.1,0.6-3.8,1.8-5.1c1.2-1.3,2.6-2,4.4-2
					c1.7,0,3.1,0.6,4,1.7c1,1.1,1.4,2.7,1.4,4.7L568.4,652.1z M566.3,650.3c0-1.2-0.3-2.2-0.9-2.9c-0.6-0.7-1.4-1-2.4-1
					c-1,0-1.9,0.4-2.6,1.1c-0.7,0.7-1.1,1.7-1.3,2.8H566.3z"/>
			</g>
		</g>
	</g>
</g>
</svg>
