<?xml version="1.0" encoding="utf-8"?>
<!-- Generator: Adobe Illustrator 19.2.1, SVG Export Plug-In . SVG Version: 6.00 Build 0)  -->
<svg version="1.1" id="Layer_1" xmlns="http://www.w3.org/2000/svg" xmlns:xlink="http://www.w3.org/1999/xlink" x="0px" y="0px"
	 viewBox="0 0 200 42.6" style="enable-background:new 0 0 200 42.6;" xml:space="preserve">
<g>
	<path style="fill:#F15526;" d="M0,0h20.3c0,6.9,0,13.4,0,20.3H0V0z"/>
	<path style="fill:#81BA41;" d="M22.3,0h20.3c0,6.9,0,13.4,0,20.3c-6.9,0-13.4,0-20.3,0C22.3,13.4,22.3,6.9,22.3,0"/>
	<path style="fill:#787878;" d="M183.4,7.7c2-1.1,4.3-1.4,6.3-0.9c0,1.1,0,2.6,0,3.7c-1.1-0.6-2.3-0.9-3.1-0.3
		c-0.9,0.3-1.4,1.1-1.4,2c-0.3,1.1,0,2.3,0,3.4c2,0,4.3,0,6.3,0c0-1.4,0-2.9,0-4.3c1.4-0.3,2.9-0.9,4.3-1.4c0,1.7,0,3.7,0,5.4
		c1.4,0,2.9,0,4.3,0v3.4c-1.4,0-2.9,0-4.3,0c0,2,0,4,0,6.3c0,1.1,0,2.3,0,3.4c0,0.6,0.3,1.4,0.9,1.7c1.1,0.6,2.3,0.3,3.4-0.3v3.7
		c-1.1,0.6-2.6,0.6-4,0.6s-2.6-0.6-3.4-1.7c-0.9-1.1-1.1-2.9-1.1-4.3c0-3.1,0-6.3,0-9.4c-2.3,0-4.3,0-6.6,0c0,4.9,0,10,0,14.9h-4.3
		c0-4.9,0-10,0-14.9c-1.1,0-2,0-3.1,0c0-1.1,0-2.3,0-3.4c1.1,0,2,0,3.1,0c0-1.4-0.3-3.1,0.3-4.6C181.4,9.7,182.3,8.6,183.4,7.7"/>
	<path style="fill:#787878;" d="M89.3,8c0.9,0,1.7,0.3,2.6,0.9c0.6,0.9,0.9,2,0.3,2.9c-0.6,1.1-1.7,1.4-2.9,1.1
		c-1.1-0.3-2-1.1-2-2.6C87,9.2,88.1,8,89.3,8"/>
	<path style="fill:#787878;" d="M55.5,8.6h6.3c2,5.2,4,10,6,15.2c0.6,1.1,0.9,2.6,1.4,3.7c2.9-6.3,5.4-12.6,8-18.9c2,0,4,0,6.3,0
		c0,8.6,0,17.2,0,25.8c-1.4,0-2.9,0-4.6,0c0-6.3,0-12.6,0-18.9c0-0.3,0-0.6,0-0.9l-0.3,0.3c-2.6,6.6-5.2,12.9-7.7,19.5
		c-1.1,0-2,0-3.1,0c-2.6-6.6-5.2-12.9-7.7-19.5c0,0,0-0.3-0.3-0.3c0,2.9,0,5.4,0,8.3c0,3.7,0,7.7,0,11.4c-1.4,0-2.9,0-4.3,0
		C55.5,25.8,55.5,17.2,55.5,8.6"/>
	<path style="fill:#787878;" d="M101.3,15.7c2-0.6,4.3-0.6,6.6,0c0.6,0,0.9,0.3,1.1,0.6c0,1.4,0,2.9,0,4.3c-1.4-1.1-3.1-1.7-5.2-1.4
		c-1.4,0-2.9,0.9-3.7,2c-1.1,1.4-1.4,3.4-1.1,5.2c0,1.4,0.6,2.9,1.7,3.7c1.1,0.9,2.6,1.4,4,1.1s2.9-0.9,4-1.7c0,1.4,0,2.6,0,4
		c-1.7,1.1-4,1.4-6,1.1c-2,0-4.3-0.9-5.7-2.3c-1.7-1.7-2.6-4-2.6-6.3s0.3-4.9,1.7-6.9C97.6,17.5,99.3,16.3,101.3,15.7"/>
	<path style="fill:#787878;" d="M149.4,15.5c2-0.3,4.3,0,6,0.6c0,1.4,0,2.6,0,4c-1.4-0.9-2.9-1.4-4.6-1.4c-0.9,0-1.7,0.3-2,1.1
		s0,1.7,0.6,2.3c1.1,0.9,2.9,1.1,4,2c1.1,0.6,2,1.4,2.6,2.3c0.9,2,0.6,4.6-1.1,6.3c-1.7,1.4-4,2-6,2c-1.4,0-3.1-0.3-4.6-1.1
		c0-1.4,0-2.9,0-4.3c1.1,0.9,2.6,1.4,4,1.7c1.1,0.3,2,0.3,3.1-0.3c0.9-0.6,1.1-1.7,0.6-2.6c-0.6-0.6-1.1-0.9-2-1.1
		c-1.4-0.6-2.6-1.1-3.7-2c-0.9-0.6-1.4-1.4-1.7-2.6c-0.3-1.4-0.3-3.1,0.6-4.3C145.9,16.6,147.6,15.7,149.4,15.5"/>
	<path style="fill:#787878;" d="M119,16c1.1-0.9,2.9-0.9,4-0.3c0,1.4,0,2.9,0,4.3c-0.9-0.6-2-0.9-2.9-0.6c-1.1,0-2.3,1.1-2.9,2.3
		c-0.6,1.1-0.6,2.6-0.6,3.7c0,2.9,0,5.7,0,8.9h-4.3c0-6,0-12.3,0-18.3c1.4,0,2.9,0,4.3,0c0,1.1,0,2,0,3.1
		C117.3,17.7,117.9,16.6,119,16"/>
	<path style="fill:#787878;" d="M87.6,15.7c1.4,0,2.9,0,4.3,0c0,6,0,12.3,0,18.3h-4.3C87.6,28,87.6,22,87.6,15.7"/>
	<path style="fill:#787878;" d="M137.1,28.6c-0.3,0.9-1.1,1.7-2.3,2c-1.1,0.6-2.3,0.6-3.7,0.3c-1.1-0.3-2.3-1.1-2.9-2.3
		c-0.6-1.4-0.9-3.1-0.6-4.6c0-1.4,0.6-2.9,1.7-3.7c0.9-0.9,1.7-1.1,2.9-1.1c1.4,0,2.9,0.3,3.7,1.1c1.1,0.9,1.4,2.6,1.4,3.7
		C137.9,25.5,137.6,27.2,137.1,28.6 M141.3,20c-0.9-1.7-2-3.1-3.7-4c-2-0.9-4.3-1.1-6.3-0.9c-2.3,0.3-4.3,1.4-5.7,3.1
		c-1.1,1.7-2,3.7-2,5.7c-0.3,2.3,0.3,4.9,1.7,6.9c1.1,1.7,3.1,2.9,5.2,3.4c1.7,0.3,3.4,0.3,5.2,0c2-0.3,3.7-1.4,5.2-3.1
		c1.1-1.4,1.7-3.4,2-5.4C142.2,24,142.2,22,141.3,20"/>
	<path style="fill:#787878;" d="M172.5,26.9c-0.3,0.9-0.6,2-1.1,2.6c-0.6,0.9-1.7,1.1-2.6,1.4c-1.1,0.3-2.3,0-3.1-0.3
		c-1.1-0.6-2-1.4-2.3-2.3c-0.6-1.1-0.6-2.6-0.6-4s0.6-2.6,1.4-3.7c0.9-0.9,2-1.4,3.1-1.4s2.6,0.3,3.4,1.1s1.4,1.7,1.7,2.9
		C172.8,24.3,172.8,25.5,172.5,26.9 M176.5,20.6c-0.6-1.7-2-3.4-3.7-4.3c-2-1.1-4.3-1.1-6.6-0.9c-1.7,0.3-3.4,0.9-4.9,2
		c-1.7,1.4-2.6,3.4-2.9,5.7c-0.3,2-0.3,4.3,0.6,6.3s2.6,3.4,4.6,4.3c2,0.9,4,0.9,6.3,0.6c2-0.3,4-1.4,5.4-3.1c1.4-1.7,2-4,2-6.3
		C177.4,23.5,177.1,22,176.5,20.6"/>
	<path style="fill:#369ED8;" d="M0,22.3c6.9,0,13.4,0,20.3,0c0,6.9,0,13.4,0,20.3H0V22.3z"/>
	<path style="fill:#FDB716;" d="M22.3,22.3c6.9,0,13.4,0,20.3,0v20.3H22.3C22.3,36.1,22.3,29.2,22.3,22.3"/>
</g>
</svg>
